<svg width="26" height="26" viewBox="0 0 26 26" fill="none" xmlns="http://www.w3.org/2000/svg">
<path d="M13 0C20.1797 0 26 5.8203 26 13C26 20.1797 20.1797 26 13 26C5.8203 26 0 20.1797 0 13C0 5.8203 5.8203 0 13 0ZM13.1953 7.15039C13.0653 7.08539 12.9351 7.08539 12.8701 7.15039C12.7401 7.15039 12.6749 7.21479 12.5449 7.34473L12.4805 7.41016L7.7998 12.0898C7.40984 12.4798 7.40987 13.0651 7.7998 13.4551C8.1898 13.8451 8.77504 13.8451 9.16504 13.4551L12.0898 10.5303V18.2002C12.025 18.7201 12.4801 19.1748 13 19.1748C13.5199 19.1748 13.9745 18.7201 13.9746 18.2002V10.5303L16.9004 13.4551C17.2903 13.8448 17.8747 13.8448 18.2646 13.4551C18.6546 13.0651 18.6546 12.4798 18.2646 12.0898L13.585 7.41016C13.3901 7.21531 13.3251 7.1505 13.1953 7.15039Z" fill="#2A2A2A"/>
</svg>
