<svg width="20" height="20" viewBox="0 0 20 20" fill="none" xmlns="http://www.w3.org/2000/svg">
<path d="M10.0199 15.8498C13.2499 15.8498 15.8799 13.2198 15.8799 9.9898C15.8799 6.7598 13.2499 4.1298 10.0199 4.1298C8.9899 4.1298 7.9999 4.3998 7.1299 4.8898L8.2299 6.1198L2.5499 7.3198L4.3499 1.7998L5.5899 3.1798C6.8999 2.3298 8.4199 1.8698 10.0199 1.8698C14.4999 1.8698 18.1499 5.5098 18.1499 9.9998C18.1499 14.4898 14.5099 18.1298 10.0199 18.1298C7.5399 18.1298 5.2299 17.0198 3.6699 15.0798L5.4399 13.6598C6.5599 15.0498 8.2299 15.8498 10.0199 15.8498Z" fill="#574A3A"/>
<path d="M12 10C12 10.2626 11.9483 10.5227 11.8478 10.7654C11.7472 11.008 11.5999 11.2285 11.4142 11.4142C11.2285 11.5999 11.008 11.7473 10.7654 11.8478C10.5227 11.9483 10.2626 12 10 12C9.73736 12 9.47728 11.9483 9.23463 11.8478C8.99198 11.7473 8.7715 11.5999 8.58578 11.4142C8.40007 11.2285 8.25275 11.008 8.15224 10.7654C8.05173 10.5227 8 10.2626 8 10C8 9.73736 8.05173 9.47728 8.15224 9.23463C8.25275 8.99198 8.40007 8.7715 8.58578 8.58579C8.7715 8.40007 8.99198 8.25275 9.23463 8.15224C9.47728 8.05173 9.73736 8 10 8C10.2626 8 10.5227 8.05173 10.7654 8.15224C11.008 8.25275 11.2285 8.40007 11.4142 8.58579C11.5999 8.7715 11.7472 8.99198 11.8478 9.23463C11.9483 9.47728 12 9.73736 12 10Z" fill="#574A3A"/>
</svg>
