<svg width="14" height="14" viewBox="0 0 14 14" fill="none" xmlns="http://www.w3.org/2000/svg">
<g clip-path="url(#clip0_15109_5905)">
<path d="M12.1771 3.20833C11.3777 2.11664 10.2537 1.30559 8.96565 0.891102C7.67762 0.476614 6.29152 0.479904 5.00547 0.900499C3.71942 1.32109 2.59924 2.13747 1.80502 3.23294C1.01081 4.32841 0.583227 5.64691 0.583375 6.99999C0.583056 7.49102 0.639826 7.98042 0.752542 8.45833C1.07741 7.06847 1.8564 5.82659 2.96629 4.92916C3.05931 4.85265 3.17373 4.80682 3.29384 4.79794C3.41395 4.78906 3.53387 4.81758 3.63713 4.87958C4.64742 5.50443 5.81213 5.83475 7.00004 5.83333C8.18795 5.83475 9.35266 5.50443 10.363 4.87958C10.4662 4.81758 10.5861 4.78906 10.7062 4.79794C10.8264 4.80682 10.9408 4.85265 11.0338 4.92916C12.1437 5.82659 12.9227 7.06847 13.2475 8.45833C13.458 7.55779 13.4713 6.62241 13.2865 5.71625C13.1018 4.8101 12.7233 3.95459 12.1771 3.20833Z" fill="#5F55B9"/>
<path d="M4.66671 7C4.512 7 4.36362 7.06146 4.25423 7.17085C4.14483 7.28025 4.08337 7.42862 4.08337 7.58333V8.75C4.0834 8.90469 4.14487 9.05304 4.25426 9.16242C4.36365 9.2718 4.51201 9.33324 4.66671 9.33324C4.8214 9.33324 4.96976 9.2718 5.07915 9.16242C5.18855 9.05304 5.25002 8.90469 5.25004 8.75V7.58333C5.25004 7.50673 5.23495 7.43087 5.20564 7.3601C5.17632 7.28933 5.13335 7.22502 5.07919 7.17085C5.02502 7.11669 4.96071 7.07372 4.88994 7.0444C4.81917 7.01509 4.74331 7 4.66671 7ZM9.33337 7C9.17866 7 9.03029 7.06146 8.9209 7.17085C8.8115 7.28025 8.75004 7.42862 8.75004 7.58333V8.75C8.75006 8.90469 8.81153 9.05304 8.92093 9.16242C9.03032 9.2718 9.17868 9.33324 9.33337 9.33324C9.48807 9.33324 9.63643 9.2718 9.74582 9.16242C9.85522 9.05304 9.91668 8.90469 9.91671 8.75V7.58333C9.91671 7.42862 9.85525 7.28025 9.74585 7.17085C9.63646 7.06146 9.48808 7 9.33337 7Z" fill="#5F55B9"/>
<path d="M7 14C5.61553 14 4.26216 13.5895 3.11101 12.8203C1.95987 12.0511 1.06266 10.9579 0.532846 9.67879C0.00303297 8.3997 -0.13559 6.99224 0.134506 5.63437C0.404603 4.2765 1.07129 3.02922 2.05026 2.05026C3.02922 1.07129 4.2765 0.404603 5.63437 0.134506C6.99224 -0.13559 8.3997 0.00303297 9.67879 0.532846C10.9579 1.06266 12.0511 1.95987 12.8203 3.11101C13.5895 4.26216 14 5.61553 14 7C14 8.85652 13.2625 10.637 11.9498 11.9498C10.637 13.2625 8.85652 14 7 14ZM7 1.16667C5.84628 1.16667 4.71846 1.50879 3.75918 2.14976C2.79989 2.79074 2.05222 3.70178 1.61071 4.76768C1.16919 5.83359 1.05368 7.00647 1.27876 8.13803C1.50384 9.26959 2.05941 10.309 2.87521 11.1248C3.69102 11.9406 4.73042 12.4962 5.86198 12.7213C6.99353 12.9463 8.16642 12.8308 9.23232 12.3893C10.2982 11.9478 11.2093 11.2001 11.8502 10.2408C12.4912 9.28154 12.8333 8.15373 12.8333 7C12.8333 5.45291 12.2188 3.96918 11.1248 2.87521C10.0308 1.78125 8.5471 1.16667 7 1.16667Z" fill="#5F55B9"/>
</g>
<defs>
<clipPath id="clip0_15109_5905">
<rect width="14" height="14" fill="white"/>
</clipPath>
</defs>
</svg>
