<svg width="20" height="20" viewBox="0 0 20 20" fill="none" xmlns="http://www.w3.org/2000/svg">
<path d="M17.8 4.39998C17.8 4.19998 17.6 4.09998 17.5 4.29998L16.4 5.39998C15.8 4.59998 15.1 3.89998 14.3 3.39998C12.7 2.39998 10.7 1.89998 8.89996 2.09998C6.99996 2.29998 5.29996 3.19998 3.99996 4.49998C2.99996 5.49998 2.29996 6.89998 1.99996 8.19998C1.89996 8.59998 2.19996 8.89998 2.49996 8.89998H3.59996C3.79996 8.89998 3.99996 8.79998 4.09996 8.49998C4.39996 7.59998 4.89996 6.69998 5.59996 6.09998C6.59996 5.19998 7.79996 4.59998 9.09996 4.59998C10.4 4.49998 11.7 4.89998 12.7 5.69998C13.4 6.19998 13.9 6.79998 14.3 7.49998L13.2 8.69998C13.1 8.79998 13.2 8.99998 13.3 8.99998H17.6C17.7 8.99998 17.8 8.89998 17.8 8.79998V4.39998ZM4.19996 12.3C4.09996 12.1 3.89996 12 3.69996 12H2.59996C2.19996 12 1.99996 12.4 2.09996 12.7C2.39996 13.4 2.69996 14 3.09996 14.6C3.29996 14.8 3.59996 14.9 3.79996 14.7L4.69996 14C4.89996 13.8 4.89996 13.5 4.79996 13.3C4.49996 13 4.29996 12.6 4.19996 12.3ZM8.29996 15.7C7.79996 15.6 7.29996 15.4 6.79996 15.1C6.49996 15 6.19996 15 6.09996 15.2L5.49996 16C5.29996 16.2 5.39996 16.6 5.59996 16.7C6.29996 17.1 6.99996 17.4 7.79996 17.6C8.09996 17.7 8.39996 17.5 8.39996 17.2L8.59996 16.2C8.69996 16 8.49996 15.8 8.29996 15.7ZM13.1 15.5C13 15.3 12.7 15.2 12.4 15.3C11.9 15.5 11.4 15.7 10.8 15.8C10.5 15.8 10.3 16.1 10.4 16.3L10.5 17.3C10.5 17.6 10.8 17.8 11.1 17.8C11.9 17.7 12.6 17.4 13.4 17.1C13.7 17 13.7 16.7 13.6 16.4L13.1 15.5ZM16.9 12H15.9C15.7 12 15.5 12.1 15.4 12.3C15.2 12.8 14.8 13.4 14.5 13.8C14.3 14 14.3 14.3 14.5 14.5L15.2 15.2C15.4 15.4 15.7 15.4 15.9 15.2C16.5 14.5 17 13.7 17.3 12.7C17.5 12.3 17.3 12 16.9 12Z" fill="black"/>
</svg>
