<svg width="17" height="16" viewBox="0 0 17 16" fill="none" xmlns="http://www.w3.org/2000/svg">
<path d="M12.9389 9.74012C12.7446 9.92837 12.6554 10.2006 12.6996 10.4676L13.3664 14.1576C13.4226 14.4704 13.2906 14.7869 13.0289 14.9676C12.7724 15.1551 12.4311 15.1776 12.1514 15.0276L8.8296 13.2951C8.7141 13.2336 8.58585 13.2006 8.4546 13.1969H8.25135C8.18085 13.2074 8.11185 13.2299 8.04885 13.2644L4.72635 15.0051C4.5621 15.0876 4.3761 15.1169 4.19385 15.0876C3.74985 15.0036 3.4536 14.5806 3.52635 14.1344L4.19385 10.4444C4.2381 10.1751 4.14885 9.90137 3.9546 9.71012L1.24635 7.08512C1.01985 6.86537 0.941102 6.53537 1.0446 6.23762C1.1451 5.94062 1.4016 5.72387 1.71135 5.67512L5.43885 5.13437C5.72235 5.10512 5.97135 4.93262 6.09885 4.67762L7.74135 1.31012C7.78035 1.23512 7.8306 1.16612 7.89135 1.10762L7.95885 1.05512C7.9941 1.01612 8.0346 0.983872 8.0796 0.957622L8.16135 0.927622L8.28885 0.875122H8.6046C8.8866 0.904372 9.13485 1.07312 9.2646 1.32512L10.9289 4.67762C11.0489 4.92287 11.2821 5.09312 11.5514 5.13437L15.2789 5.67512C15.5939 5.72012 15.8571 5.93762 15.9614 6.23762C16.0596 6.53837 15.9749 6.86837 15.7439 7.08512L12.9389 9.74012Z" stroke="#D2C5B7"/>
</svg>
