<svg width="16" height="15" viewBox="0 0 16 15" fill="none" xmlns="http://www.w3.org/2000/svg">
<path d="M12.4389 9.24006C12.2447 9.42831 12.1554 9.70056 12.1997 9.96756L12.8664 13.6576C12.9227 13.9703 12.7907 14.2868 12.5289 14.4676C12.2724 14.6551 11.9312 14.6776 11.6514 14.5276L8.32966 12.7951C8.21416 12.7336 8.08591 12.7006 7.95466 12.6968H7.75141C7.68091 12.7073 7.61191 12.7298 7.54891 12.7643L4.22641 14.5051C4.06216 14.5876 3.87616 14.6168 3.69391 14.5876C3.24991 14.5036 2.95366 14.0806 3.02641 13.6343L3.69391 9.94431C3.73816 9.67506 3.64891 9.40131 3.45466 9.21006L0.746413 6.58506C0.519913 6.36531 0.441163 6.03531 0.544663 5.73756C0.645163 5.44056 0.901663 5.22381 1.21141 5.17506L4.93891 4.63431C5.22241 4.60506 5.47141 4.43256 5.59891 4.17756L7.24141 0.810061C7.28041 0.735061 7.33066 0.666061 7.39141 0.607561L7.45891 0.555061C7.49416 0.516061 7.53466 0.483811 7.57966 0.457561L7.66141 0.427561L7.78891 0.375061H8.10466C8.38666 0.404311 8.63491 0.573061 8.76466 0.825061L10.4289 4.17756C10.5489 4.42281 10.7822 4.59306 11.0514 4.63431L14.7789 5.17506C15.0939 5.22006 15.3572 5.43756 15.4614 5.73756C15.5597 6.03831 15.4749 6.36831 15.2439 6.58506L12.4389 9.24006Z" fill="#FF9421"/>
</svg>
