<svg width="16" height="17" viewBox="0 0 16 17" fill="none" xmlns="http://www.w3.org/2000/svg">
<path d="M10.8802 1.68555C11.1343 1.68555 11.3787 1.79179 11.5586 1.98059C11.7384 2.16939 11.8395 2.42603 11.8395 2.69355V4.71019H12.7989C13.3288 4.71019 13.7583 5.16139 13.7583 5.71883V13.45C13.7583 14.0068 13.3288 14.4587 12.7989 14.4587H3.20594C2.67602 14.4587 2.24658 14.0068 2.24658 13.45V2.69419C2.24658 2.13739 2.67602 1.68555 3.20594 1.68555H10.8802ZM11.8389 11.7694V12.9457C11.8389 13.2055 12.0264 13.4225 12.2722 13.4475L12.3183 13.45C12.5653 13.45 12.772 13.2529 12.7957 12.9943L12.7976 12.9457V6.05547C12.7976 5.96651 12.7637 5.88075 12.7042 5.81803C12.644 5.75531 12.5627 5.71947 12.4783 5.71947H11.8389V11.7694ZM10.5602 2.69419H3.5253C3.36338 2.69419 3.22706 2.82155 3.20786 2.99115L3.2053 3.03019V13.114C3.2053 13.2843 3.3269 13.4276 3.48754 13.4481L3.52466 13.4507H10.8802V3.03019C10.8802 2.94123 10.8463 2.85547 10.7867 2.79275C10.7259 2.72939 10.6447 2.69419 10.5602 2.69419ZM9.44082 10.7607C9.70578 10.7607 9.92018 10.9867 9.92018 11.2651C9.92018 11.5435 9.70514 11.7694 9.44082 11.7694H4.64466C4.3797 11.7694 4.1653 11.5435 4.1653 11.2651C4.1653 10.9867 4.38034 10.7607 4.64466 10.7607H9.44082ZM9.44082 8.07211C9.70578 8.07211 9.92018 8.29803 9.92018 8.57643C9.92018 8.85483 9.70514 9.08075 9.44082 9.08075H4.64466C4.3797 9.08075 4.1653 8.85483 4.1653 8.57643C4.1653 8.29803 4.38034 8.07211 4.64466 8.07211H9.44082ZM7.36274 4.37483C7.44786 4.37483 7.52914 4.41003 7.58866 4.47339C7.64907 4.53765 7.68251 4.62263 7.6821 4.71083V6.05547C7.6821 6.14443 7.64818 6.23019 7.58866 6.29291C7.5285 6.35627 7.44722 6.39147 7.36274 6.39147H4.48466C4.30802 6.39147 4.16466 6.24107 4.16466 6.05547V4.71083C4.16466 4.62187 4.19858 4.53611 4.2581 4.47339C4.31826 4.41067 4.39954 4.37483 4.48402 4.37483H7.36274Z" fill="black"/>
</svg>
