<svg width="12" height="12" viewBox="0 0 12 12" fill="none" xmlns="http://www.w3.org/2000/svg">
<g clip-path="url(#clip0_15213_20400)">
<path d="M5.358 8.784C5.358 6.726 7.026 5.052 9.09 5.052C10.2 5.052 11.196 5.538 11.88 6.306V3.12H0V10.182C0 11.004 0.666 11.664 1.482 11.664H6.72C5.886 10.98 5.358 9.942 5.358 8.784Z" fill="white"/>
<path d="M9.09 5.838C7.476 5.838 6.18 7.146 6.18 8.748C6.18 10.362 7.488 11.658 9.09 11.658C10.698 11.658 12 10.35 12 8.748C12 7.14 10.692 5.838 9.09 5.838ZM10.5 8.508L9.174 9.942C8.976 10.152 8.652 10.164 8.436 9.972C8.424 9.966 8.418 9.954 8.412 9.948L8.286 9.81L7.752 9.246C7.572 9.054 7.578 8.76 7.77 8.58C7.938 8.43 8.196 8.436 8.346 8.598L8.874 9.162L9.984 7.962C10.116 7.824 10.332 7.812 10.47 7.944L10.488 7.962C10.644 8.118 10.644 8.358 10.5 8.508ZM10.464 0.869999C10.182 0.533998 9.762 0.335999 9.324 0.335999H2.55C2.112 0.335999 1.692 0.533998 1.41 0.869999L0 2.562H11.874L10.464 0.869999Z" fill="white"/>
</g>
<defs>
<clipPath id="clip0_15213_20400">
<rect width="12" height="12" fill="white"/>
</clipPath>
</defs>
</svg>
