<svg width="14" height="14" viewBox="0 0 14 14" fill="none" xmlns="http://www.w3.org/2000/svg">
<path fill-rule="evenodd" clip-rule="evenodd" d="M1.16675 7.00876C1.16675 3.93582 3.62258 1.16667 7.01175 1.16667C10.3251 1.16667 12.8334 3.88324 12.8334 6.99124C12.8334 10.5958 9.89341 12.8333 7.00008 12.8333C6.04341 12.8333 4.98175 12.5763 4.13008 12.0739C3.83258 11.8928 3.58175 11.7584 3.26091 11.8635L2.08258 12.2141C1.78508 12.3075 1.51675 12.0739 1.60425 11.7584L1.99508 10.4498C2.05925 10.2687 2.04758 10.0759 1.95425 9.92397C1.45258 9.00092 1.16675 7.99024 1.16675 7.00876ZM6.24175 7.00876C6.24175 7.42355 6.57425 7.75655 6.98841 7.76239C7.40258 7.76239 7.73508 7.42355 7.73508 7.01461C7.73508 6.59982 7.40258 6.26682 6.98841 6.26682C6.58008 6.26098 6.24175 6.59982 6.24175 7.00876ZM8.93092 7.01461C8.93092 7.42355 9.26342 7.76239 9.67758 7.76239C10.0917 7.76239 10.4242 7.42355 10.4242 7.01461C10.4242 6.59982 10.0917 6.26682 9.67758 6.26682C9.26342 6.26682 8.93092 6.59982 8.93092 7.01461ZM4.29925 7.76239C3.89091 7.76239 3.55258 7.42355 3.55258 7.01461C3.55258 6.59982 3.88508 6.26682 4.29925 6.26682C4.71341 6.26682 5.04591 6.59982 5.04591 7.01461C5.04591 7.42355 4.71341 7.75655 4.29925 7.76239Z" fill="black"/>
</svg>
