<svg width="20" height="20" viewBox="0 0 20 20" fill="none" xmlns="http://www.w3.org/2000/svg">
<path d="M2.20004 4.39998C2.20004 4.19998 2.40004 4.09998 2.50004 4.29998L3.60004 5.39998C4.20004 4.59998 4.90004 3.89998 5.70004 3.39998C7.30004 2.39998 9.30004 1.89998 11.1 2.09998C13 2.29998 14.7 3.19998 16 4.49998C17 5.49998 17.7 6.89998 18 8.19998C18.1 8.59998 17.8 8.89998 17.5 8.89998H16.4C16.2 8.89998 16 8.79998 15.9 8.49998C15.6 7.59998 15.1 6.69998 14.4 6.09998C13.4 5.19998 12.2 4.59998 10.9 4.59998C9.60004 4.49998 8.30004 4.89998 7.30004 5.69998C6.60004 6.19998 6.10004 6.79998 5.70004 7.49998L6.80004 8.69998C6.90004 8.79998 6.80004 8.99998 6.70004 8.99998H2.40004C2.30004 8.99998 2.20004 8.89998 2.20004 8.79998V4.39998ZM15.8 12.3C15.9 12.1 16.1 12 16.3 12H17.4C17.8 12 18 12.4 17.9 12.7C17.6 13.4 17.3 14 16.9 14.6C16.7 14.8 16.4 14.9 16.2 14.7L15.3 14C15.1 13.8 15.1 13.5 15.2 13.3C15.5 13 15.7 12.6 15.8 12.3ZM11.7 15.7C12.2 15.6 12.7 15.4 13.2 15.1C13.5 15 13.8 15 13.9 15.2L14.5 16C14.7 16.2 14.6 16.6 14.4 16.7C13.7 17.1 13 17.4 12.2 17.6C11.9 17.7 11.6 17.5 11.6 17.2L11.4 16.2C11.3 16 11.5 15.8 11.7 15.7ZM6.90004 15.5C7.00004 15.3 7.30004 15.2 7.60004 15.3C8.10004 15.5 8.60004 15.7 9.20004 15.8C9.50004 15.8 9.70004 16.1 9.60004 16.3L9.50004 17.3C9.50004 17.6 9.20004 17.8 8.90004 17.8C8.10004 17.7 7.40004 17.4 6.60004 17.1C6.30004 17 6.30004 16.7 6.40004 16.4L6.90004 15.5ZM3.10004 12H4.10004C4.30004 12 4.50004 12.1 4.60004 12.3C4.80004 12.8 5.20004 13.4 5.50004 13.8C5.70004 14 5.70004 14.3 5.50004 14.5L4.80004 15.2C4.60004 15.4 4.30004 15.4 4.10004 15.2C3.50004 14.5 3.00004 13.7 2.70004 12.7C2.50004 12.3 2.70004 12 3.10004 12Z" fill="black"/>
</svg>
