<svg width="20" height="20" viewBox="0 0 20 20" fill="none" xmlns="http://www.w3.org/2000/svg">
<path d="M17.5 5C17.6105 5 17.7165 5.0439 17.7947 5.12204C17.8728 5.20018 17.9167 5.30616 17.9167 5.41667V6.25C17.9167 6.36051 17.8728 6.46649 17.7947 6.54463C17.7165 6.62277 17.6105 6.66667 17.5 6.66667H15.8334V15.8333C15.8334 16.7617 15.0334 17.4567 14.0888 17.4979L14 17.5H6.00004C5.04754 17.5 4.21837 16.8333 4.16921 15.9196L4.16671 15.8333V6.66667H2.50004C2.38953 6.66667 2.28355 6.62277 2.20541 6.54463C2.12727 6.46649 2.08337 6.36051 2.08337 6.25V5.41667C2.08337 5.30616 2.12727 5.20018 2.20541 5.12204C2.28355 5.0439 2.38953 5 2.50004 5H17.5ZM14.1667 6.66667H5.83337V15.7871L5.85004 15.7987C5.88289 15.8163 5.91884 15.8272 5.95587 15.8308L6.00004 15.8333H14C14.0522 15.8346 14.1037 15.8227 14.15 15.7987L14.1667 15.7867V6.66667ZM8.75004 8.75C8.86055 8.75 8.96653 8.7939 9.04467 8.87204C9.12281 8.95018 9.16671 9.05616 9.16671 9.16667V13.3333C9.16671 13.4438 9.12281 13.5498 9.04467 13.628C8.96653 13.7061 8.86055 13.75 8.75004 13.75H7.91671C7.8062 13.75 7.70022 13.7061 7.62208 13.628C7.54394 13.5498 7.50004 13.4438 7.50004 13.3333V9.16667C7.50004 9.05616 7.54394 8.95018 7.62208 8.87204C7.70022 8.7939 7.8062 8.75 7.91671 8.75H8.75004ZM12.0834 8.75C12.1939 8.75 12.2999 8.7939 12.378 8.87204C12.4561 8.95018 12.5 9.05616 12.5 9.16667V13.3333C12.5 13.4438 12.4561 13.5498 12.378 13.628C12.2999 13.7061 12.1939 13.75 12.0834 13.75H11.25C11.1395 13.75 11.0336 13.7061 10.9554 13.628C10.8773 13.5498 10.8334 13.4438 10.8334 13.3333V9.16667C10.8334 9.05616 10.8773 8.95018 10.9554 8.87204C11.0336 8.7939 11.1395 8.75 11.25 8.75H12.0834ZM12.0834 2.5C12.1381 2.5 12.1923 2.51078 12.2428 2.53172C12.2934 2.55266 12.3393 2.58335 12.378 2.62204C12.4167 2.66073 12.4474 2.70666 12.4683 2.75722C12.4893 2.80777 12.5 2.86195 12.5 2.91667V3.75C12.5 3.86051 12.4561 3.96649 12.378 4.04463C12.2999 4.12277 12.1939 4.16667 12.0834 4.16667H7.91671C7.8062 4.16667 7.70022 4.12277 7.62208 4.04463C7.54394 3.96649 7.50004 3.86051 7.50004 3.75V2.91667C7.50004 2.86195 7.51082 2.80777 7.53176 2.75722C7.5527 2.70666 7.58339 2.66073 7.62208 2.62204C7.66077 2.58335 7.7067 2.55266 7.75726 2.53172C7.80781 2.51078 7.86199 2.5 7.91671 2.5H12.0834Z" fill="#D2C5B7"/>
</svg>
