<svg width="14" height="14" viewBox="0 0 14 14" fill="none" xmlns="http://www.w3.org/2000/svg">
<path d="M12.0112 3.09729H11.4545V12.0041C11.4545 12.619 10.956 13.1174 10.3411 13.1174H3.66104C3.04613 13.1174 2.54768 12.619 2.54768 12.0041V3.09729H1.991C1.68355 3.09729 1.43433 2.84806 1.43433 2.54061C1.43433 2.23316 1.68355 1.98393 1.991 1.98393H5.33106C5.33106 1.36902 5.82951 0.870575 6.44441 0.870575H7.55777C8.17267 0.870575 8.67112 1.36902 8.67112 1.98393H12.0112C12.3186 1.98393 12.5679 2.23316 12.5679 2.54061C12.5679 2.84806 12.3186 3.09729 12.0112 3.09729ZM10.3411 3.09729H3.66104V12.0041H10.3411V3.09729ZM5.88775 4.21064C6.1952 4.21064 6.44443 4.45987 6.44443 4.76732V10.3341C6.44443 10.6415 6.1952 10.8907 5.88775 10.8907C5.58029 10.8907 5.33107 10.6415 5.33107 10.3341V4.76732C5.33107 4.45987 5.58029 4.21064 5.88775 4.21064ZM8.11444 4.21064C8.4219 4.21064 8.67112 4.45987 8.67112 4.76732V10.3341C8.67112 10.6415 8.4219 10.8907 8.11444 10.8907C7.80699 10.8907 7.55777 10.6415 7.55777 10.3341V4.76732C7.55777 4.45987 7.80699 4.21064 8.11444 4.21064Z" fill="#FF0000" fill-opacity="0.3"/>
</svg>
