<svg width="20" height="20" viewBox="0 0 20 20" fill="none" xmlns="http://www.w3.org/2000/svg">
<path d="M19.1432 8.73137L15.6628 2.82018C15.4419 2.44492 15.1269 2.13384 14.7489 1.91771C14.3709 1.70159 13.943 1.58791 13.5075 1.58792H6.49958C6.06414 1.58791 5.63624 1.70159 5.25822 1.91771C4.8802 2.13384 4.56516 2.44492 4.34427 2.82018L0.864854 8.73137C0.63854 9.11584 0.519196 9.55386 0.519196 10C0.519196 10.4461 0.63854 10.8842 0.864854 11.2686L4.34427 17.1798C4.56516 17.5551 4.8802 17.8662 5.25822 18.0823C5.63624 18.2984 6.06414 18.4121 6.49958 18.4121H13.5075C13.943 18.4121 14.3709 18.2984 14.7489 18.0823C15.1269 17.8662 15.4419 17.5551 15.6628 17.1798L19.1422 11.2686C19.3686 10.8842 19.4879 10.4461 19.4879 10C19.4879 9.55386 19.3686 9.11584 19.1422 8.73137H19.1432ZM17.9664 10.5775L14.487 16.4887C14.3865 16.659 14.2433 16.8003 14.0715 16.8983C13.8997 16.9964 13.7053 17.048 13.5075 17.048H6.49958C6.30169 17.0479 6.10723 16.9962 5.93545 16.898C5.76367 16.7997 5.62051 16.6583 5.52014 16.4878L2.04073 10.5766C1.93789 10.4018 1.88366 10.2028 1.88366 10C1.88366 9.79724 1.93789 9.59817 2.04073 9.42343L5.52014 3.51224C5.62051 3.34169 5.76367 3.2003 5.93545 3.10204C6.10723 3.00379 6.30169 2.95209 6.49958 2.95204H13.5075C13.9104 2.95204 14.2833 3.16484 14.487 3.51224L17.9664 9.42343C18.1755 9.77901 18.1755 10.221 17.9664 10.5766V10.5775Z" fill="#1F1722"/>
<path d="M10.0036 6.58969C9.09909 6.58969 8.23166 6.94899 7.59211 7.58855C6.95255 8.2281 6.59325 9.09552 6.59325 9.99999C6.59325 10.9045 6.95255 11.7719 7.59211 12.4114C8.23166 13.051 9.09909 13.4103 10.0036 13.4103C10.908 13.4103 11.7754 13.051 12.415 12.4114C13.0546 11.7719 13.4139 10.9045 13.4139 9.99999C13.4139 9.09552 13.0546 8.2281 12.415 7.58855C11.7754 6.94899 10.908 6.58969 10.0036 6.58969ZM10.0036 7.95381C10.2723 7.95381 10.5383 8.00674 10.7866 8.10957C11.0348 8.2124 11.2604 8.36312 11.4504 8.55312C11.6404 8.74313 11.7912 8.9687 11.894 9.21695C11.9968 9.46521 12.0497 9.73128 12.0497 9.99999C12.0497 10.2687 11.9968 10.5348 11.894 10.783C11.7912 11.0313 11.6404 11.2569 11.4504 11.4469C11.2604 11.6369 11.0348 11.7876 10.7866 11.8904C10.5383 11.9932 10.2723 12.0462 10.0036 12.0462C9.46088 12.0462 8.94042 11.8306 8.55669 11.4469C8.17295 11.0631 7.95737 10.5427 7.95737 9.99999C7.95737 9.45731 8.17295 8.93686 8.55669 8.55312C8.94042 8.16939 9.46088 7.95381 10.0036 7.95381Z" fill="#1F1722"/>
</svg>
