<svg width="12" height="12" viewBox="0 0 12 12" fill="none" xmlns="http://www.w3.org/2000/svg">
<path d="M1.40479 8.38125V10.1272H3.15079L8.20579 5.0265L6.45979 3.2805L1.40479 8.38125ZM9.53854 3.69375C9.58223 3.65239 9.61703 3.60257 9.64081 3.54731C9.66459 3.49205 9.67686 3.43253 9.67686 3.37237C9.67686 3.31221 9.66459 3.25269 9.64081 3.19743C9.61703 3.14218 9.58223 3.09235 9.53854 3.051L8.48254 1.9935C8.44087 1.94994 8.39082 1.91527 8.33539 1.89158C8.27996 1.86789 8.22031 1.85568 8.16004 1.85568C8.09976 1.85568 8.04011 1.86789 7.98468 1.89158C7.92925 1.91527 7.8792 1.94994 7.83754 1.9935L7.01179 2.82075L8.75854 4.5675L9.53854 3.69375ZM5.54104 9.2085L4.62154 10.1272H10.5953V9.2085H5.54029H5.54104Z" fill="#1F1722" fill-opacity="0.3"/>
</svg>
