<svg width="19" height="19" viewBox="0 0 19 19" fill="none" xmlns="http://www.w3.org/2000/svg"><path d="M15.71 9.00H16.99C17.17 9.00 17.32 8.94 17.44 8.82C17.50 8.76 17.55 8.69 17.58 8.61C17.61 8.54 17.63 8.45 17.63 8.37V2.01C17.63 1.83 17.56 1.68 17.44 1.56C17.38 1.50 17.31 1.45 17.24 1.42C17.16 1.39 17.08 1.37 16.99 1.38H10.63C10.46 1.38 10.30 1.44 10.18 1.56C10.12 1.62 10.07 1.69 10.04 1.77C10.01 1.84 9.99 1.93 9.99 2.01V3.52C9.99 3.69 9.93 3.85 9.81 3.97C9.69 4.08 9.54 4.15 9.37 4.15C9.20 4.15 9.05 4.08 8.93 3.97C8.81 3.85 8.74 3.69 8.74 3.52V2.01C8.74 1.49 8.93 1.04 9.30 0.68C9.66 0.31 10.11 0.13 10.63 0.13H16.99C17.51 0.13 17.96 0.31 18.32 0.68C18.69 1.04 18.88 1.49 18.88 2.01V8.37C18.88 8.89 18.69 9.33 18.32 9.70C17.96 10.07 17.51 10.25 16.99 10.25H15.71C15.55 10.25 15.39 10.19 15.27 10.07C15.15 9.95 15.09 9.79 15.09 9.63C15.09 9.46 15.15 9.30 15.27 9.19C15.39 9.07 15.55 9.00 15.71 9.00ZM6.37 17.52H12.64C13.06 17.52 13.28 17.31 13.28 16.89V6.36C13.28 5.93 13.06 5.72 12.64 5.72H2.11C1.69 5.72 1.48 5.94 1.48 6.36V12.87C1.48 13.03 1.41 13.19 1.29 13.31C1.18 13.42 1.02 13.49 0.85 13.49C0.69 13.49 0.53 13.42 0.41 13.31C0.29 13.19 0.23 13.03 0.23 12.87V6.36C0.23 5.84 0.41 5.39 0.78 5.03C1.15 4.66 1.59 4.47 2.11 4.47H12.64C13.16 4.47 13.61 4.66 13.97 5.03C14.34 5.39 14.53 5.84 14.53 6.36V16.89C14.53 17.41 14.34 17.85 13.97 18.22C13.61 18.59 13.16 18.77 12.64 18.77H6.37C6.21 18.77 6.05 18.71 5.93 18.59C5.82 18.47 5.75 18.31 5.75 18.15C5.75 17.98 5.82 17.82 5.93 17.70C6.05 17.59 6.21 17.52 6.37 17.52ZM9.99 7.09V8.37C9.99 8.55 10.06 8.70 10.18 8.82C10.24 8.88 10.31 8.93 10.39 8.96C10.46 8.99 10.55 9.01 10.63 9.00H12.54C12.71 9.00 12.87 9.07 12.98 9.19C13.10 9.30 13.17 9.46 13.17 9.63C13.17 9.79 13.10 9.95 12.98 10.07C12.87 10.19 12.71 10.25 12.54 10.25H10.63C10.11 10.25 9.66 10.07 9.30 9.70C9.12 9.53 8.98 9.32 8.88 9.09C8.79 8.87 8.74 8.62 8.74 8.37V7.09C8.74 6.93 8.81 6.77 8.93 6.65C9.05 6.53 9.20 6.47 9.37 6.47C9.54 6.47 9.69 6.53 9.81 6.65C9.93 6.77 9.99 6.93 9.99 7.09ZM0.75 14.21C1.28 14.21 1.81 14.11 2.30 13.90C2.79 13.70 3.23 13.40 3.61 13.03C3.98 12.65 4.28 12.21 4.48 11.72C4.68 11.23 4.79 10.70 4.79 10.17C4.79 11.24 5.21 12.27 5.97 13.03C6.73 13.79 7.76 14.21 8.83 14.21C8.30 14.21 7.77 14.32 7.28 14.52C6.79 14.72 6.35 15.02 5.97 15.39C5.60 15.77 5.30 16.21 5.10 16.70C4.89 17.19 4.79 17.72 4.79 18.25C4.79 17.72 4.69 17.19 4.48 16.70C4.28 16.21 3.98 15.77 3.61 15.39C3.23 15.02 2.79 14.72 2.30 14.52C1.81 14.32 1.28 14.21 0.75 14.21V14.21ZM1.58 17.52H3.25C3.42 17.52 3.57 17.59 3.69 17.70C3.81 17.82 3.87 17.98 3.87 18.15C3.87 18.31 3.81 18.47 3.69 18.59C3.57 18.71 3.42 18.77 3.25 18.77H1.58C1.40 18.77 1.22 18.74 1.06 18.67C0.89 18.60 0.75 18.50 0.62 18.38C0.49 18.25 0.39 18.10 0.33 17.94C0.26 17.78 0.22 17.60 0.23 17.42V15.97C0.23 15.81 0.29 15.65 0.41 15.53C0.53 15.41 0.69 15.35 0.85 15.35C1.02 15.35 1.18 15.41 1.29 15.53C1.41 15.65 1.48 15.81 1.48 15.97V17.42C1.48 17.49 1.51 17.52 1.58 17.52Z" fill="#D2C5B7"/></svg>