<svg width="19" height="19" viewBox="0 0 19 19" fill="none" xmlns="http://www.w3.org/2000/svg">
<path d="M15.7125 9.00375H16.9925C17.1675 9.00375 17.3175 8.94125 17.44 8.81875C17.4997 8.76074 17.547 8.6911 17.5788 8.61414C17.6106 8.53718 17.6263 8.45452 17.625 8.37125V2.00875C17.625 1.83375 17.5625 1.68375 17.44 1.56C17.382 1.50025 17.3123 1.45301 17.2354 1.42119C17.1584 1.38938 17.0757 1.37366 16.9925 1.375H10.63C10.455 1.375 10.305 1.4375 10.18 1.56C10.1201 1.61816 10.0727 1.68799 10.0409 1.76518C10.0091 1.84237 9.99346 1.92527 9.99497 2.00875V3.525C9.99497 3.69076 9.92913 3.84973 9.81192 3.96694C9.69471 4.08415 9.53573 4.15 9.36997 4.15C9.20421 4.15 9.04524 4.08415 8.92803 3.96694C8.81082 3.84973 8.74497 3.69076 8.74497 3.525V2.00875C8.74497 1.4875 8.92997 1.04375 9.29747 0.67625C9.66497 0.30875 10.11 0.125 10.6287 0.125H16.9912C17.5125 0.125 17.9562 0.30875 18.3237 0.67625C18.6912 1.04375 18.875 1.48875 18.875 2.00875V8.37125C18.875 8.89125 18.6912 9.33375 18.325 9.7025C17.9562 10.07 17.5125 10.2537 16.9925 10.2537H15.7125C15.5467 10.2537 15.3877 10.1879 15.2705 10.0707C15.1533 9.95348 15.0875 9.79451 15.0875 9.62875C15.0875 9.46299 15.1533 9.30402 15.2705 9.18681C15.3877 9.0696 15.5467 9.00375 15.7125 9.00375ZM6.37497 17.5212H12.6425C13.065 17.5212 13.2762 17.31 13.2762 16.8875V6.3575C13.2762 5.935 13.0637 5.72375 12.6425 5.72375H2.11122C1.68872 5.72375 1.47747 5.93625 1.47747 6.3575V12.865C1.47747 13.0308 1.41163 13.1897 1.29442 13.3069C1.17721 13.4242 1.01823 13.49 0.852474 13.49C0.686713 13.49 0.527742 13.4242 0.410532 13.3069C0.293322 13.1897 0.227474 13.0308 0.227474 12.865V6.3575C0.227474 5.8375 0.411224 5.39375 0.778724 5.02625C1.14747 4.6575 1.59122 4.47375 2.11122 4.47375H12.6425C13.1625 4.47375 13.605 4.6575 13.9737 5.02625C14.3412 5.39375 14.5262 5.8375 14.5262 6.3575V16.8875C14.5262 17.4075 14.3412 17.8525 13.9737 18.22C13.6062 18.5875 13.1612 18.7712 12.6425 18.7712H6.37497C6.20921 18.7712 6.05024 18.7054 5.93303 18.5882C5.81582 18.471 5.74997 18.312 5.74997 18.1462C5.74997 17.9805 5.81582 17.8215 5.93303 17.7043C6.05024 17.5871 6.20921 17.5212 6.37497 17.5212ZM9.99497 7.0925V8.37125C9.99497 8.54625 10.0575 8.695 10.1812 8.81875C10.2392 8.8785 10.3089 8.92574 10.3858 8.95756C10.4628 8.98937 10.5455 9.00509 10.6287 9.00375H12.5412C12.707 9.00375 12.866 9.0696 12.9832 9.18681C13.1004 9.30402 13.1662 9.46299 13.1662 9.62875C13.1662 9.79451 13.1004 9.95348 12.9832 10.0707C12.866 10.1879 12.707 10.2537 12.5412 10.2537H10.6287C10.1087 10.2537 9.66497 10.07 9.29747 9.7025C9.11935 9.53009 8.97843 9.32303 8.88341 9.09407C8.78839 8.86511 8.74127 8.61911 8.74497 8.37125V7.0925C8.74497 6.92674 8.81082 6.76777 8.92803 6.65056C9.04524 6.53335 9.20421 6.4675 9.36997 6.4675C9.53573 6.4675 9.69471 6.53335 9.81192 6.65056C9.92913 6.76777 9.99497 6.92674 9.99497 7.0925ZM0.749974 14.2112C1.28029 14.2114 1.80545 14.1071 2.29544 13.9043C2.78544 13.7014 3.23068 13.4041 3.60573 13.0291C3.98077 12.6542 4.27829 12.2091 4.48127 11.7191C4.68425 11.2292 4.78872 10.7041 4.78872 10.1737C4.78872 11.2446 5.2141 12.2715 5.97128 13.0287C6.72846 13.7859 7.75541 14.2112 8.82622 14.2112C8.29601 14.2114 7.77102 14.316 7.28123 14.5191C6.79145 14.7221 6.34645 15.0197 5.97165 15.3947C5.59685 15.7697 5.29958 16.2149 5.09683 16.7048C4.89408 17.1947 4.78981 17.7198 4.78997 18.25C4.78997 17.7196 4.68546 17.1944 4.4824 16.7043C4.27934 16.2143 3.98171 15.7691 3.60653 15.3942C3.23135 15.0192 2.78597 14.7219 2.29583 14.5191C1.80569 14.3164 1.2804 14.2122 0.749974 14.2125V14.2112ZM1.57747 17.5212H3.24997C3.41573 17.5212 3.57471 17.5871 3.69192 17.7043C3.80913 17.8215 3.87497 17.9805 3.87497 18.1462C3.87497 18.312 3.80913 18.471 3.69192 18.5882C3.57471 18.7054 3.41573 18.7712 3.24997 18.7712H1.57747C1.39974 18.7742 1.2233 18.7407 1.05904 18.6727C0.894776 18.6048 0.746195 18.5039 0.622474 18.3762C0.494841 18.2525 0.393936 18.1039 0.325996 17.9397C0.258057 17.7754 0.224525 17.599 0.227474 17.4212V15.9712C0.227474 15.8055 0.293322 15.6465 0.410532 15.5293C0.527742 15.4121 0.686713 15.3462 0.852474 15.3462C1.01823 15.3462 1.17721 15.4121 1.29442 15.5293C1.41163 15.6465 1.47747 15.8055 1.47747 15.9712V17.4212C1.47747 17.4875 1.51122 17.5212 1.57747 17.5212Z" fill="#D2C5B7"/>
</svg>
