<svg width="69" height="22" viewBox="0 0 69 22" fill="none" xmlns="http://www.w3.org/2000/svg"><path d="M13.50 4.83L7.77 10.72C8.02 10.46 8.45 10.42 8.70 10.24C8.94 10.06 9.11 9.42 9.36 9.47L11.17 10.91C11.27 10.01 12.13 9.06 11.66 8.21L14.09 7.82C14.17 7.89 13.72 8.56 14.04 8.69L16.55 7.44L17.00 5.99L11.70 7.82C11.50 7.85 11.58 7.81 11.56 7.68C11.53 7.44 11.56 7.19 11.46 6.95L12.22 6.89L17.23 4.83L17.63 3.87L20.99 5.36L17.58 10.76C17.27 11.17 16.10 11.65 15.59 11.77C15.21 11.86 15.73 11.38 15.64 11.30L13.60 11.87L13.70 10.81C14.44 10.98 15.20 10.53 15.88 10.23L16.32 8.55C16.28 8.42 16.13 8.53 16.05 8.56C15.40 8.81 14.78 9.14 14.13 9.37L13.80 9.08L12.82 14.77L14.47 13.95L11.95 18.01C11.84 18.12 11.79 18.02 11.70 17.96C11.52 17.83 11.08 17.42 10.88 17.23C10.65 17.03 9.53 15.96 9.52 15.78L11.03 11.10C9.39 13.01 7.70 14.88 5.68 16.41L5.25 19.21C5.32 19.29 6.28 18.70 6.48 18.65C6.62 18.61 6.74 18.58 6.70 18.78L4.11 21.42L1.74 20.42L4.76 7.63L0.29 9.46L0 5.21L0.92 5.80L9.28 3.96C9.49 3.74 9.49 2.90 9.86 2.90L13.50 4.83ZM8.65 5.70L7.38 6.25C7.12 7.69 6.83 9.15 6.70 10.62L8.65 5.70V5.70ZM6.61 11.78L6.60 11.30C6.48 11.27 6.45 11.47 6.44 11.56C6.25 12.69 6.16 13.84 5.93 14.96L7.96 11.63C7.98 11.48 7.98 11.47 7.82 11.49C7.62 11.52 6.67 11.85 6.61 11.78H6.61Z" fill="white"/><path d="M33.71 3.09L33.33 5.70L34.78 5.21L35.17 6.56L32.94 7.51L31.00 17.82L28.59 17.93L25.85 13.95L25.89 13.81L28.37 15.02L29.15 10.81C28.94 10.77 28.93 10.92 28.84 11.04C28.34 11.72 27.91 12.66 27.49 13.42C27.35 13.46 27.33 13.38 27.25 13.32C27.02 13.17 25.87 11.78 25.75 11.87L24.97 15.11C24.88 15.27 22.85 16.34 22.58 16.40C22.43 16.44 22.43 16.42 22.46 16.28C22.59 15.59 22.73 14.89 22.83 14.19L20.16 15.54L19.33 13.80L18.07 14.29L18.09 14.56L24.23 19.00C24.67 18.86 25.81 18.63 25.30 19.39L21.41 22.00L15.93 15.29L14.57 15.83C14.60 15.56 14.51 15.22 14.62 14.96C14.73 14.73 15.26 14.61 15.24 14.35L13.70 12.31L14.62 11.68C14.73 11.73 14.62 11.92 14.69 12.04C14.78 12.20 16.22 13.10 16.47 13.32C16.59 13.32 17.71 12.41 17.83 12.26C18.08 11.98 17.98 11.65 18.22 11.39L19.39 13.60C19.47 13.72 19.65 13.87 19.79 13.88C19.92 13.89 22.00 13.15 22.30 13.03C22.54 12.93 22.83 12.87 23.02 12.69C23.10 12.56 23.32 11.07 23.35 10.79C23.36 10.67 23.47 10.65 23.27 10.52L21.98 11.22L21.65 13.01L20.30 13.42C20.06 13.16 21.04 7.21 20.69 6.37L22.73 6.56C22.84 6.66 22.46 7.24 22.78 7.14C22.88 7.11 23.94 6.60 23.98 6.55C24.00 6.52 24.07 6.01 24.07 5.95C24.03 5.62 23.45 5.45 23.75 5.22L27.10 5.99C27.14 6.82 26.54 7.36 27.12 8.10C27.19 8.15 27.33 8.11 27.42 8.09C27.70 8.03 29.32 7.37 29.56 7.22C29.65 7.16 29.71 7.13 29.76 7.03C29.82 6.88 30.24 4.48 30.22 4.30C30.19 3.85 29.68 3.83 29.73 3.38L33.71 3.09L33.71 3.09ZM23.90 7.63L22.50 8.31C22.38 8.46 22.24 9.42 22.22 9.67C22.20 9.79 22.10 9.81 22.30 9.94L23.59 9.25L23.90 7.63H23.90ZM26.72 10.04L26.82 8.84L26.72 7.82L25.85 11.67C25.96 11.69 26.09 11.77 26.19 11.77C26.79 11.78 28.23 10.46 28.82 10.14L29.15 10.42L29.44 8.88L26.72 10.04H26.72Z" fill="white"/><path d="M53.24 6.85L47.84 8.01C47.42 8.00 47.67 6.89 47.61 6.56C47.95 6.58 48.13 6.97 48.50 6.83L53.29 5.22C53.21 3.89 53.59 2.29 53.44 1.01C53.39 0.58 53.07 0.41 53.05 0L57.70 1.65L57.23 3.86L63.39 1.84L64.61 4.30L56.74 6.15L56.45 7.43L58.37 6.93L58.54 6.27L61.69 7.38L59.56 10.52L63.72 12.85C63.83 13.18 63.60 13.11 63.44 13.27C62.84 13.87 62.25 14.46 61.64 15.06C61.62 14.74 61.76 14.54 61.65 14.19C61.58 13.96 61.05 13.21 60.77 13.22C57.92 13.60 55.06 14.00 52.21 14.37C51.49 14.46 50.77 14.57 50.07 14.66C49.09 14.79 48.09 14.82 47.12 15.06L46.93 13.52C47.21 13.52 47.21 13.80 47.55 13.81C47.78 13.82 48.09 13.66 48.34 13.62C48.98 13.54 49.65 13.52 50.28 13.42C50.44 13.39 50.60 13.45 50.71 13.27C50.42 13.06 49.28 13.20 49.17 12.87C48.98 11.73 49.44 9.68 49.04 8.66C48.96 8.48 48.74 8.42 48.77 8.21L51.69 8.11L51.74 8.79L53.24 8.25V6.85L53.24 6.85ZM58.10 7.72C57.42 7.95 56.09 7.96 56.16 8.88C56.58 8.87 56.94 8.66 57.32 8.54C57.56 8.47 57.25 9.21 57.20 9.25C56.84 9.55 55.64 9.26 55.87 10.43L57.37 9.84L58.10 7.72L58.10 7.72ZM53.24 9.27C52.58 9.43 51.15 9.49 51.40 10.43L53.13 9.92L53.24 9.27V9.27ZM53.15 10.52C53.08 10.46 51.40 10.97 51.32 11.03C51.25 11.09 51.07 11.84 51.11 11.87L53.13 11.28L53.15 10.52V10.52ZM60.04 11.97L59.31 10.91C58.73 11.77 58.77 11.99 57.66 12.07C57.32 12.09 56.98 12.05 56.64 12.07L56.94 11.15L55.59 11.41L55.38 12.65L60.04 11.97V11.97ZM53.05 13.03L53.11 12.26L53.00 12.07C52.34 12.51 50.85 12.20 50.91 13.22L53.05 13.03Z" fill="white"/><path d="M48.68 5.02L48.58 5.36L45.96 8.06L46.34 8.11L46.50 9.47L42.46 10.47L45.08 11.63L41.97 16.60L43.52 16.99L45.87 12.28L46.25 12.26L45.57 18.53L39.64 16.65L42.32 11.49L42.22 10.62C42.08 10.46 41.75 10.49 41.58 10.57C41.37 10.67 39.85 13.45 39.52 13.93C38.47 15.51 36.84 17.48 35.31 18.63C35.12 18.77 34.82 19.05 34.63 18.73C34.57 18.62 35.46 17.49 35.60 17.27C36.43 15.94 37.31 14.35 37.91 12.90C38.02 12.63 38.45 11.64 38.47 11.44C38.51 11.08 37.75 11.48 37.70 11.63L34.15 16.71C34.03 16.85 33.15 16.56 33.13 16.45L35.24 11.53L34.83 11.10L32.96 12.63L32.36 12.23L36.01 5.89L35.85 4.92L39.54 7.29L35.56 10.57L37.21 11.25C37.42 11.28 37.65 11.43 37.70 11.15C37.79 10.59 37.54 10.02 37.60 9.46C37.99 9.36 37.93 9.76 38.15 9.95C38.48 9.89 39.03 9.84 39.17 9.52L40.32 5.25L39.84 4.25L43.62 5.50C43.81 5.72 42.41 8.52 42.26 8.97L44.69 8.49L44.42 8.08L45.83 4.76L45.57 3.86L48.68 5.02L48.68 5.02Z" fill="white"/><path d="M68.20 17.76L65.19 21.82L64.96 20.85L58.59 14.44C58.72 14.21 58.92 14.13 59.17 14.23L68.20 17.76Z" fill="white"/><path d="M52.93 15.17C53.13 15.31 52.72 16.30 52.68 16.58C52.50 18.04 53.20 18.88 54.65 19.02C55.25 19.07 57.23 19.01 57.64 18.64C58.06 18.26 57.93 16.38 57.91 15.78C57.90 15.46 57.76 15.17 57.81 14.82C57.83 14.68 57.86 14.54 58.00 14.67C58.23 15.29 58.65 15.86 59.03 16.40C59.79 17.47 60.86 18.56 61.54 19.60C61.62 19.72 61.72 19.82 61.70 19.98C58.92 19.63 55.92 20.10 53.22 19.28C51.95 18.89 50.74 18.08 50.62 16.65C50.56 15.97 50.81 15.29 50.52 14.67L52.93 15.17H52.93Z" fill="white"/><path d="M49.06 21.62L45.35 20.54L45.18 20.27L46.25 19.84L49.38 15.37L50.09 15.44L49.06 21.62Z" fill="white"/><path d="M57.42 16.99L54.65 18.15L54.51 17.91L54.23 14.69L54.80 14.52L56.59 16.80L57.42 16.99Z" fill="white"/></svg>