<svg width="69" height="22" viewBox="0 0 69 22" fill="none" xmlns="http://www.w3.org/2000/svg">
<path d="M13.5047 4.82894L7.77297 10.7161C8.02107 10.4621 8.45015 10.4155 8.69728 10.2362C8.94441 10.0568 9.11468 9.42464 9.36181 9.46827L11.1705 10.909C11.2708 10.0073 12.126 9.05718 11.658 8.20688L14.0865 7.82099C14.1702 7.89371 13.7207 8.5598 14.0378 8.68681L16.5471 7.44093L17.0015 5.98659L11.7037 7.81905C11.4984 7.84523 11.5831 7.80548 11.5626 7.67556C11.5257 7.43996 11.5626 7.18593 11.4634 6.9513L12.2213 6.88828L17.2272 4.83476L17.631 3.87296L20.9877 5.36317L17.5833 10.7636C17.2739 11.166 16.0976 11.6527 15.5858 11.7729C15.2064 11.8621 15.7308 11.3754 15.6403 11.2959L13.601 11.8737L13.6983 10.8121C14.4445 10.9817 15.2035 10.529 15.8797 10.2294L16.3224 8.54525C16.2825 8.42018 16.1278 8.53071 16.047 8.56174C15.4029 8.81188 14.7822 9.13862 14.1274 9.36841L13.7956 9.0756L12.8226 14.7698L14.4737 13.9496L11.9508 18.0081C11.836 18.1235 11.7874 18.0178 11.7027 17.9597C11.5159 17.8307 11.0849 17.4186 10.8786 17.2335C10.6519 17.0308 9.53402 15.9565 9.51651 15.7801L11.0265 11.102C9.38516 13.0072 7.6961 14.8832 5.68402 16.4132L5.24522 19.2104C5.31819 19.2909 6.28434 18.7043 6.47796 18.65C6.62098 18.6102 6.73968 18.5763 6.70077 18.7751L4.1127 21.4161L1.74257 20.4194L4.75777 7.62708L0.291888 9.46051L0 5.21385L0.9175 5.79753L9.27716 3.95731C9.49024 3.73722 9.49218 2.90243 9.85704 2.89661L13.5047 4.82894ZM8.64668 5.69669L7.38184 6.24643C7.12011 7.69495 6.82822 9.15316 6.70466 10.6191L8.64668 5.69766V5.69669ZM6.60639 11.7778L6.60444 11.2959C6.47698 11.2707 6.44974 11.4733 6.43515 11.5606C6.24931 12.6901 6.16175 13.8419 5.92629 14.9637L7.96367 11.6314C7.9841 11.4753 7.97631 11.4723 7.82356 11.4908C7.62216 11.515 6.66963 11.8456 6.60542 11.7778H6.60639Z" fill="white"/>
<path d="M33.7141 3.089L33.3258 5.69517L34.7804 5.21427L35.1706 6.56002L32.9376 7.50534L31.0005 17.8175L28.5856 17.9349L25.8457 13.948L25.8924 13.8055L28.3735 15.0155L29.147 10.8125C28.9398 10.7679 28.9261 10.9172 28.8386 11.0365C28.3375 11.7229 27.9055 12.6644 27.4939 13.4187C27.347 13.4584 27.3334 13.3799 27.2507 13.3237C27.022 13.1666 25.8749 11.7791 25.7475 11.8742L24.9749 15.1135C24.8786 15.2666 22.8451 16.3409 22.5815 16.4049C22.4268 16.4417 22.4316 16.4214 22.4579 16.2827C22.5873 15.5866 22.7284 14.8914 22.8305 14.1904L20.1627 15.5439L19.3328 13.8036L18.0747 14.2922L18.0883 14.5608L24.2345 19.0033C24.6724 18.8569 25.8078 18.631 25.296 19.3902L21.4071 22.0002L15.9332 15.2938L14.573 15.83C14.5964 15.5575 14.5069 15.2153 14.6227 14.9622C14.7297 14.7285 15.2629 14.6054 15.2395 14.3504L13.6974 12.3076L14.6217 11.6793C14.7307 11.7345 14.6236 11.9246 14.6908 12.0448C14.7783 12.1999 16.2154 13.1007 16.4655 13.3217C16.5939 13.3217 17.7099 12.4103 17.8334 12.2649C18.0757 11.9808 17.9813 11.6492 18.2158 11.3913L19.3872 13.6039C19.467 13.7202 19.647 13.8676 19.7852 13.8792C19.9233 13.8908 21.9996 13.153 22.2974 13.0328C22.5387 12.9349 22.8305 12.8709 23.0174 12.6867C23.103 12.5625 23.3199 11.0694 23.3482 10.7921C23.3598 10.6729 23.4659 10.6545 23.2674 10.5236L21.9782 11.2197L21.6474 13.0144L20.3047 13.4177C20.0557 13.1579 21.0403 7.21253 20.693 6.37193L22.7332 6.56487C22.8374 6.66279 22.4598 7.24259 22.779 7.14272C22.8772 7.1117 23.9397 6.60268 23.9767 6.54645C23.9961 6.51639 24.073 6.01028 24.0652 5.94823C24.0263 5.61955 23.4474 5.44891 23.751 5.21718L27.097 5.9938C27.1417 6.81986 26.5356 7.35603 27.1164 8.09871C27.1933 8.14815 27.3276 8.10937 27.419 8.08901C27.7041 8.02502 29.3211 7.37057 29.5615 7.22126C29.6539 7.16308 29.7055 7.13303 29.7551 7.02735C29.8232 6.88094 30.2386 4.48032 30.2231 4.29707C30.1861 3.84914 29.6802 3.82878 29.7288 3.38181L33.7121 3.09191L33.7141 3.089ZM23.9008 7.6275L22.4968 8.30716C22.381 8.45841 22.2429 9.4173 22.2166 9.67327C22.2049 9.79252 22.0989 9.81094 22.2964 9.94087L23.5924 9.25151L23.8998 7.6275H23.9008ZM26.7195 10.0398L26.8206 8.83751L26.7204 7.81947L25.8487 11.6744C25.9615 11.6929 26.0851 11.7714 26.1941 11.7724C26.7885 11.7791 28.2314 10.4576 28.8191 10.1445L29.147 10.4247L29.4389 8.88114L26.7204 10.0398H26.7195Z" fill="white"/>
<path d="M53.2427 6.8538L47.8438 8.01048C47.4186 8.00369 47.6725 6.89258 47.6073 6.5639C47.9518 6.57941 48.125 6.97402 48.5034 6.83441L53.2943 5.21622C53.2116 3.89277 53.594 2.29106 53.4383 1.01125C53.3857 0.577856 53.0744 0.405275 53.0481 0L57.7028 1.65019L57.225 3.85981L63.3868 1.84216L64.6069 4.29611L56.7376 6.15184L56.4476 7.43165L58.3663 6.92748L58.5376 6.274L61.6919 7.38415L59.5562 10.5197L63.7244 12.8476C63.8285 13.1763 63.596 13.1123 63.4413 13.2674C62.8439 13.8666 62.2465 14.4639 61.6442 15.0582C61.6199 14.7363 61.758 14.5424 61.6481 14.1856C61.579 13.9607 61.0478 13.2131 60.7724 13.2151C57.9188 13.6009 55.0641 14.0014 52.2085 14.3708C51.4933 14.4629 50.7743 14.5715 50.0738 14.6636C49.0892 14.7925 48.088 14.8177 47.1199 15.0592L46.9253 13.5156C47.2143 13.5205 47.2123 13.8007 47.5509 13.8104C47.7825 13.8162 48.089 13.6572 48.3448 13.6232C48.9821 13.5399 49.6457 13.5224 50.2781 13.4206C50.4387 13.3944 50.5972 13.4507 50.713 13.2732C50.4192 13.0551 49.2828 13.1995 49.1719 12.8747C48.9812 11.7336 49.4375 9.67715 49.0366 8.66493C48.9627 8.47781 48.7428 8.42254 48.771 8.20536L51.686 8.10744L51.7356 8.78516L53.2408 8.25287V6.85283L53.2427 6.8538ZM58.1007 7.72349C57.4245 7.94746 56.0906 7.95618 56.1587 8.88114C56.578 8.87339 56.939 8.66493 57.3243 8.54277C57.5636 8.46714 57.2513 9.20594 57.2036 9.2457C56.8407 9.5482 55.6362 9.25733 55.8668 10.4266L57.369 9.84488L58.0997 7.72446L58.1007 7.72349ZM53.2427 9.268C52.5801 9.42991 51.147 9.48615 51.398 10.4256L53.126 9.92439L53.2427 9.26896V9.268ZM53.1454 10.5226C53.0773 10.4567 51.3951 10.9667 51.3221 11.0268C51.2491 11.0869 51.0711 11.8412 51.1061 11.8732L53.1347 11.2837L53.1454 10.5216V10.5226ZM60.0437 11.9692L59.315 10.9104C58.7322 11.7675 58.7682 11.9857 57.6619 12.0661C57.3243 12.0904 56.9798 12.0526 56.6432 12.0661L56.9361 11.1509L55.5934 11.4107L55.3803 12.6459L60.0437 11.9702V11.9692ZM53.0491 13.0328L53.1075 12.2649L52.9975 12.0661C52.3388 12.5053 50.8473 12.1999 50.9115 13.2248L53.0491 13.0328Z" fill="white"/>
<path d="M48.6762 5.02108L48.5838 5.36236L45.9558 8.06064L46.3441 8.10912L46.4978 9.46747L42.46 10.4739L45.0821 11.6344L41.9726 16.6034L43.5225 16.9893L45.8731 12.2763L46.2468 12.2588L45.5667 18.5338L39.6413 16.647L42.317 11.4909L42.2158 10.6174C42.0757 10.4554 41.7546 10.4942 41.5843 10.5718C41.3654 10.6707 39.8466 13.4475 39.5246 13.9303C38.468 15.5146 36.8392 17.4828 35.3146 18.6278C35.121 18.7733 34.8194 19.0486 34.6316 18.7296C34.5693 18.624 35.4635 17.4896 35.6006 17.2714C36.4335 15.9431 37.3062 14.3482 37.9095 12.9045C38.0243 12.6292 38.4504 11.6432 38.4738 11.4357C38.5127 11.0847 37.7499 11.4803 37.6974 11.6315L34.1548 16.7091C34.0332 16.8545 33.1537 16.5578 33.1323 16.4541L35.2426 11.5336L34.834 11.1021L32.9649 12.634L32.3626 12.2259L36.0054 5.8898L35.8526 4.92218L39.5421 7.28693L35.5608 10.5708L37.2109 11.2456C37.4191 11.2757 37.6546 11.4328 37.6983 11.1516C37.7869 10.5863 37.5388 10.023 37.6011 9.45874C37.9893 9.35984 37.9348 9.76124 38.1537 9.94837C38.4806 9.88825 39.0255 9.84268 39.1656 9.51691L40.3214 5.24892L39.8369 4.24543L43.6217 5.50392C43.8076 5.71819 42.4133 8.51536 42.2644 8.97493L44.6929 8.49209L44.4166 8.07615L45.8342 4.7622L45.5686 3.85955L48.6772 5.01817L48.6762 5.02108Z" fill="white"/>
<path d="M68.2039 17.7635L65.1926 21.8163L64.9552 20.8458L58.5911 14.4438C58.7215 14.215 58.9219 14.1316 59.172 14.2295L68.2039 17.7635Z" fill="white"/>
<path d="M52.9317 15.1731C53.1311 15.3098 52.7196 16.3007 52.6845 16.58C52.4997 18.0353 53.2002 18.8768 54.6528 19.0155C55.2493 19.0717 57.2253 19.0068 57.6408 18.6354C58.0562 18.2641 57.9278 16.3831 57.9103 15.7791C57.9006 15.4572 57.7614 15.1693 57.8081 14.8163C57.8257 14.6835 57.8607 14.5352 58.0018 14.6728C58.2285 15.2934 58.6497 15.8615 59.0321 16.4016C59.7871 17.47 60.8642 18.5617 61.5414 19.604C61.6182 19.7223 61.7233 19.8231 61.6951 19.9812C58.9163 19.6312 55.9225 20.0985 53.2216 19.2782C51.9451 18.8904 50.7415 18.0847 50.616 16.6546C50.5557 15.973 50.8097 15.2943 50.5226 14.6728L52.9326 15.1731H52.9317Z" fill="white"/>
<path d="M49.0646 21.6235L45.347 20.5385L45.1786 20.2729L46.2479 19.8376L49.377 15.3708L50.0921 15.4387L49.0646 21.6235Z" fill="white"/>
<path d="M57.4202 16.9916L54.654 18.1492L54.5052 17.9078L54.2308 14.6889L54.7971 14.5212L56.5883 16.8035L57.4202 16.9916Z" fill="white"/>
</svg>
