<svg width="22" height="22" viewBox="0 0 22 22" fill="none" xmlns="http://www.w3.org/2000/svg">
<path d="M0.707107 10.2929L10.2929 0.707107C10.6834 0.316583 11.3166 0.316583 11.7071 0.707107L21.2929 10.2929C21.6834 10.6834 21.6834 11.3166 21.2929 11.7071L11.7071 21.2929C11.3166 21.6834 10.6834 21.6834 10.2929 21.2929L0.707107 11.7071C0.316583 11.3166 0.316583 10.6834 0.707107 10.2929Z" fill="#6A5632"/>
<path d="M10.8232 1.2373C10.9087 1.15196 11.0407 1.14107 11.1377 1.20508L11.1768 1.2373L20.7627 10.8232C20.848 10.9087 20.8589 11.0407 20.7949 11.1377L20.7627 11.1768L11.1768 20.7627C11.0913 20.848 10.9593 20.8589 10.8623 20.7949L10.8232 20.7627L1.2373 11.1768C1.15196 11.0913 1.14107 10.9593 1.20508 10.8623L1.2373 10.8232L10.8232 1.2373Z" stroke="white" stroke-width="1.5"/>
<path d="M10.4697 0.883789C10.7443 0.609281 11.1791 0.591808 11.4736 0.832031L11.5303 0.883789L21.1162 10.4697C21.3907 10.7443 21.4082 11.1791 21.168 11.4736L21.1162 11.5303L11.5303 21.1162C11.2557 21.3907 10.8209 21.4082 10.5264 21.168L10.4697 21.1162L0.883789 11.5303C0.609281 11.2557 0.591807 10.8209 0.832031 10.5264L0.883789 10.4697L10.4697 0.883789Z" stroke="#342C36" stroke-width="0.5"/>
<path d="M8.24995 14.239C8.24995 14.3444 8.3669 14.407 8.4542 14.3494L13.5208 10.9727V13.959H14.575V7.63399H13.5208V10.6203L8.4542 7.24362C8.3669 7.18597 8.24995 7.24856 8.24995 7.35398V14.239Z" fill="white"/>
</svg>
