<svg width="20" height="20" viewBox="0 0 20 20" fill="none" xmlns="http://www.w3.org/2000/svg">
<path d="M9.9801 15.8498C6.7501 15.8498 4.1201 13.2198 4.1201 9.9898C4.1201 6.7598 6.7501 4.1298 9.9801 4.1298C11.0101 4.1298 12.0001 4.3998 12.8701 4.8898L11.7701 6.1198L17.4501 7.3198L15.6501 1.7998L14.4101 3.1798C13.1001 2.3298 11.5801 1.8698 9.9801 1.8698C5.5001 1.8698 1.8501 5.5098 1.8501 9.9998C1.8501 14.4898 5.4901 18.1298 9.9801 18.1298C12.4601 18.1298 14.7701 17.0198 16.3301 15.0798L14.5601 13.6598C13.4401 15.0498 11.7701 15.8498 9.9801 15.8498Z" fill="#574A3A"/>
<path d="M8 10C8 10.2626 8.05173 10.5227 8.15224 10.7654C8.25275 11.008 8.40007 11.2285 8.58579 11.4142C8.7715 11.5999 8.99198 11.7473 9.23463 11.8478C9.47728 11.9483 9.73736 12 10 12C10.2626 12 10.5227 11.9483 10.7654 11.8478C11.008 11.7473 11.2285 11.5999 11.4142 11.4142C11.5999 11.2285 11.7473 11.008 11.8478 10.7654C11.9483 10.5227 12 10.2626 12 10C12 9.73736 11.9483 9.47728 11.8478 9.23463C11.7473 8.99198 11.5999 8.7715 11.4142 8.58579C11.2285 8.40007 11.008 8.25275 10.7654 8.15224C10.5227 8.05173 10.2626 8 10 8C9.73736 8 9.47728 8.05173 9.23463 8.15224C8.99198 8.25275 8.7715 8.40007 8.58579 8.58579C8.40007 8.7715 8.25275 8.99198 8.15224 9.23463C8.05173 9.47728 8 9.73736 8 10Z" fill="#574A3A"/>
</svg>
