<svg width="20" height="20" viewBox="0 0 20 20" fill="none" xmlns="http://www.w3.org/2000/svg">
<path d="M18.0875 4.13376L16.2063 2.34376C16.1556 2.29289 16.0954 2.25253 16.0291 2.22498C15.9629 2.19744 15.8918 2.18326 15.82 2.18326C15.7482 2.18326 15.6771 2.19744 15.6109 2.22498C15.5446 2.25253 15.4844 2.29289 15.4338 2.34376L2.6175 15.4188C2.44841 15.5912 2.31512 15.7953 2.2253 16.0195C2.13549 16.2436 2.09092 16.4833 2.09417 16.7248C2.09743 16.9663 2.14844 17.2047 2.24426 17.4263C2.34009 17.648 2.47883 17.8485 2.6525 18.0163C3.00501 18.3569 3.47795 18.5443 3.9681 18.5375C4.45825 18.5307 4.92581 18.3303 5.26875 17.98L18.085 4.90501C18.136 4.85465 18.1765 4.79469 18.2043 4.7286C18.232 4.66251 18.2464 4.59159 18.2467 4.51991C18.2469 4.44823 18.2329 4.37722 18.2056 4.31095C18.1783 4.24468 18.1382 4.18446 18.0875 4.13376ZM14.815 6.64251L13.7975 5.62501L15.865 3.55251C15.8713 3.54593 15.8789 3.5407 15.8872 3.53712C15.8956 3.53354 15.9046 3.5317 15.9137 3.5317C15.9229 3.5317 15.9319 3.53354 15.9403 3.53712C15.9486 3.5407 15.9562 3.54593 15.9625 3.55251L16.8837 4.47376C16.9087 4.50001 16.9087 4.54251 16.8837 4.56876L14.815 6.64251ZM13.1088 14.3913L14.7463 13.9125L14.2663 15.5525L14.7463 17.1938L13.1088 16.7113L11.4713 17.1925L11.9537 15.5513L11.4725 13.9113L13.11 14.3925L13.1088 14.3913Z" fill="black"/>
<path d="M18.0875 4.13376L16.2063 2.34376C16.1556 2.29289 16.0954 2.25253 16.0291 2.22498C15.9629 2.19744 15.8918 2.18326 15.82 2.18326C15.7482 2.18326 15.6771 2.19744 15.6109 2.22498C15.5446 2.25253 15.4844 2.29289 15.4338 2.34376L2.6175 15.4188C2.44841 15.5912 2.31512 15.7953 2.2253 16.0195C2.13549 16.2436 2.09092 16.4833 2.09417 16.7248C2.09743 16.9663 2.14844 17.2047 2.24426 17.4263C2.34009 17.648 2.47883 17.8485 2.6525 18.0163C3.00501 18.3569 3.47795 18.5443 3.9681 18.5375C4.45825 18.5307 4.92581 18.3303 5.26875 17.98L18.085 4.90501C18.136 4.85465 18.1765 4.79469 18.2043 4.7286C18.232 4.66251 18.2464 4.59159 18.2467 4.51991C18.2469 4.44823 18.2329 4.37722 18.2056 4.31095C18.1783 4.24468 18.1382 4.18446 18.0875 4.13376ZM14.815 6.64251L13.7975 5.62501L15.865 3.55251C15.8713 3.54593 15.8789 3.5407 15.8872 3.53712C15.8956 3.53354 15.9046 3.5317 15.9137 3.5317C15.9229 3.5317 15.9319 3.53354 15.9403 3.53712C15.9486 3.5407 15.9562 3.54593 15.9625 3.55251L16.8837 4.47376C16.9087 4.50001 16.9087 4.54251 16.8837 4.56876L14.815 6.64251ZM13.1088 14.3913L14.7463 13.9125L14.2663 15.5525L14.7463 17.1938L13.1088 16.7113L11.4713 17.1925L11.9537 15.5513L11.4725 13.9113L13.11 14.3925L13.1088 14.3913Z" fill="url(#paint0_linear_16807_4288)"/>
<path d="M18.75 9.44751L17.1138 9.92626L15.4762 9.44751L15.9587 11.0888L15.4762 12.7288L17.1125 12.245L18.75 12.7288L18.2725 11.0888L18.75 9.44751Z" fill="black"/>
<path d="M18.75 9.44751L17.1138 9.92626L15.4762 9.44751L15.9587 11.0888L15.4762 12.7288L17.1125 12.245L18.75 12.7288L18.2725 11.0888L18.75 9.44751Z" fill="url(#paint1_linear_16807_4288)"/>
<path d="M8.88636 5.07812L8.8875 5.0775V5.07875L8.88636 5.07812L6.4175 6.4325L5.06875 8.90625L3.71875 6.43125L1.25 5.08L3.7175 3.725L5.06875 1.25L6.41875 3.72625L8.88636 5.07812Z" fill="black"/>
<path d="M8.88636 5.07812L8.8875 5.0775V5.07875L8.88636 5.07812L6.4175 6.4325L5.06875 8.90625L3.71875 6.43125L1.25 5.08L3.7175 3.725L5.06875 1.25L6.41875 3.72625L8.88636 5.07812Z" fill="url(#paint2_linear_16807_4288)"/>
<defs>
<linearGradient id="paint0_linear_16807_4288" x1="4" y1="21.5" x2="29.5001" y2="-14.8516" gradientUnits="userSpaceOnUse">
<stop stop-color="#FABC20"/>
<stop offset="0.187574" stop-color="#FA9420"/>
<stop offset="0.387061" stop-color="#FF8340"/>
<stop offset="0.585103" stop-color="#FF36E8"/>
</linearGradient>
<linearGradient id="paint1_linear_16807_4288" x1="4.26511" y1="21.5648" x2="29.4985" y2="-14.8439" gradientUnits="userSpaceOnUse">
<stop stop-color="#FA9420"/>
<stop offset="0.236292" stop-color="#FF6640"/>
<stop offset="0.503982" stop-color="#F536FF"/>
</linearGradient>
<linearGradient id="paint2_linear_16807_4288" x1="4.26511" y1="21.5648" x2="29.4985" y2="-14.8439" gradientUnits="userSpaceOnUse">
<stop offset="0.15006" stop-color="#FFDD1D"/>
<stop offset="0.411291" stop-color="#FF6640"/>
<stop offset="0.823258" stop-color="#F536FF"/>
</linearGradient>
</defs>
</svg>
