<svg width="20" height="20" viewBox="0 0 20 20" fill="none" xmlns="http://www.w3.org/2000/svg"><path d="M18.09 4.13L16.21 2.34C16.16 2.29 16.10 2.25 16.03 2.22C15.96 2.20 15.89 2.18 15.82 2.18C15.75 2.18 15.68 2.20 15.61 2.22C15.54 2.25 15.48 2.29 15.43 2.34L2.62 15.42C2.45 15.59 2.32 15.80 2.23 16.02C2.14 16.24 2.09 16.48 2.09 16.72C2.10 16.97 2.15 17.20 2.24 17.43C2.34 17.65 2.48 17.85 2.65 18.02C3.01 18.36 3.48 18.54 3.97 18.54C4.46 18.53 4.93 18.33 5.27 17.98L18.09 4.91C18.14 4.85 18.18 4.79 18.20 4.73C18.23 4.66 18.25 4.59 18.25 4.52C18.25 4.45 18.23 4.38 18.21 4.31C18.18 4.24 18.14 4.18 18.09 4.13ZM14.81 6.64L13.80 5.63L15.87 3.55C15.87 3.55 15.88 3.54 15.89 3.54C15.90 3.53 15.90 3.53 15.91 3.53C15.92 3.53 15.93 3.53 15.94 3.54C15.95 3.54 15.96 3.55 15.96 3.55L16.88 4.47C16.91 4.50 16.91 4.54 16.88 4.57L14.81 6.64ZM13.11 14.39L14.75 13.91L14.27 15.55L14.75 17.19L13.11 16.71L11.47 17.19L11.95 15.55L11.47 13.91L13.11 14.39L13.11 14.39Z" fill="black"/><path d="M18.09 4.13L16.21 2.34C16.16 2.29 16.10 2.25 16.03 2.22C15.96 2.20 15.89 2.18 15.82 2.18C15.75 2.18 15.68 2.20 15.61 2.22C15.54 2.25 15.48 2.29 15.43 2.34L2.62 15.42C2.45 15.59 2.32 15.80 2.23 16.02C2.14 16.24 2.09 16.48 2.09 16.72C2.10 16.97 2.15 17.20 2.24 17.43C2.34 17.65 2.48 17.85 2.65 18.02C3.01 18.36 3.48 18.54 3.97 18.54C4.46 18.53 4.93 18.33 5.27 17.98L18.09 4.91C18.14 4.85 18.18 4.79 18.20 4.73C18.23 4.66 18.25 4.59 18.25 4.52C18.25 4.45 18.23 4.38 18.21 4.31C18.18 4.24 18.14 4.18 18.09 4.13ZM14.81 6.64L13.80 5.63L15.87 3.55C15.87 3.55 15.88 3.54 15.89 3.54C15.90 3.53 15.90 3.53 15.91 3.53C15.92 3.53 15.93 3.53 15.94 3.54C15.95 3.54 15.96 3.55 15.96 3.55L16.88 4.47C16.91 4.50 16.91 4.54 16.88 4.57L14.81 6.64ZM13.11 14.39L14.75 13.91L14.27 15.55L14.75 17.19L13.11 16.71L11.47 17.19L11.95 15.55L11.47 13.91L13.11 14.39L13.11 14.39Z" fill="url(#paint0_linear_16807_4288)"/><path d="M18.75 9.45L17.11 9.93L15.48 9.45L15.96 11.09L15.48 12.73L17.11 12.24L18.75 12.73L18.27 11.09L18.75 9.45Z" fill="black"/><path d="M18.75 9.45L17.11 9.93L15.48 9.45L15.96 11.09L15.48 12.73L17.11 12.24L18.75 12.73L18.27 11.09L18.75 9.45Z" fill="url(#paint1_linear_16807_4288)"/><path d="M8.89 5.08L8.89 5.08V5.08L8.89 5.08L6.42 6.43L5.07 8.91L3.72 6.43L1.25 5.08L3.72 3.73L5.07 1.25L6.42 3.73L8.89 5.08Z" fill="black"/><path d="M8.89 5.08L8.89 5.08V5.08L8.89 5.08L6.42 6.43L5.07 8.91L3.72 6.43L1.25 5.08L3.72 3.73L5.07 1.25L6.42 3.73L8.89 5.08Z" fill="url(#paint2_linear_16807_4288)"/><defs><linearGradient id="paint0_linear_16807_4288" x1="4" y1="21.5" x2="29.50" y2="-14.85" gradientUnits="userSpaceOnUse"><stop stop-color="#FABC20"/><stop offset="0.19" stop-color="#FA9420"/><stop offset="0.39" stop-color="#FF8340"/><stop offset="0.59" stop-color="#FF36E8"/></linearGradient><linearGradient id="paint1_linear_16807_4288" x1="4.27" y1="21.56" x2="29.50" y2="-14.84" gradientUnits="userSpaceOnUse"><stop stop-color="#FA9420"/><stop offset="0.24" stop-color="#FF6640"/><stop offset="0.50" stop-color="#F536FF"/></linearGradient><linearGradient id="paint2_linear_16807_4288" x1="4.27" y1="21.56" x2="29.50" y2="-14.84" gradientUnits="userSpaceOnUse"><stop offset="0.15" stop-color="#FFDD1D"/><stop offset="0.41" stop-color="#FF6640"/><stop offset="0.82" stop-color="#F536FF"/></linearGradient></defs></svg>