<svg width="20" height="20" viewBox="0 0 20 20" fill="none" xmlns="http://www.w3.org/2000/svg">
<rect x="1.66663" y="5.83334" width="16.6667" height="4.16667" rx="1.66667" stroke="#FF9421" stroke-width="1.66667" stroke-linecap="round" stroke-linejoin="round"/>
<path d="M3.33337 10H16.6667V15.8333C16.6667 16.7538 15.9205 17.5 15 17.5H5.00004C4.07957 17.5 3.33337 16.7538 3.33337 15.8333V10Z" stroke="#FF9421" stroke-width="1.66667" stroke-linecap="round" stroke-linejoin="round"/>
<path d="M10 5.83334V17.5" stroke="#FF9421" stroke-width="1.66667" stroke-linecap="round" stroke-linejoin="round"/>
<path d="M4.16663 4.36198C4.16663 3.33691 4.99761 2.5 6.02269 2.5H6.77415C8.55572 2.5 9.99996 3.94424 9.99996 5.72581V5.72581C9.99996 5.78519 9.95182 5.83333 9.89243 5.83333H5.63329C4.82328 5.83333 4.16663 5.172 4.16663 4.36198V4.36198Z" stroke="#FF9421" stroke-width="1.66667" stroke-linecap="round" stroke-linejoin="round"/>
<path d="M15.8334 4.36198C15.8334 3.33691 15.0024 2.5 13.9773 2.5H13.2258C11.4443 2.5 10 3.94424 10 5.72581V5.72581C10 5.78519 10.0482 5.83333 10.1076 5.83333H14.3667C15.1767 5.83333 15.8334 5.172 15.8334 4.36198V4.36198Z" stroke="#FF9421" stroke-width="1.66667" stroke-linecap="round" stroke-linejoin="round"/>
</svg>
