<svg width="14" height="14" viewBox="0 0 14 14" fill="none" xmlns="http://www.w3.org/2000/svg">
<g clip-path="url(#clip0_15093_4659)">
<path d="M7 0C5.61553 0 4.26216 0.410543 3.11101 1.17971C1.95987 1.94888 1.06266 3.04213 0.532846 4.32122C0.00303297 5.6003 -0.13559 7.00776 0.134506 8.36563C0.404603 9.7235 1.07129 10.9708 2.05026 11.9497C3.02922 12.9287 4.2765 13.5954 5.63437 13.8655C6.99224 14.1356 8.3997 13.997 9.67879 13.4672C10.9579 12.9373 12.0511 12.0401 12.8203 10.889C13.5895 9.73785 14 8.38447 14 7C14 5.14348 13.2625 3.36301 11.9498 2.05025C10.637 0.737498 8.85652 0 7 0ZM7 12.8333C6.09441 12.8333 5.20125 12.6225 4.39126 12.2175C3.58127 11.8125 2.87669 11.2245 2.33334 10.5V5.83333H8.16667L8.75 3.5L9.33334 5.83333H11.6667V10.5C11.1233 11.2245 10.4187 11.8125 9.60875 12.2175C8.79876 12.6225 7.9056 12.8333 7 12.8333Z" fill="#FF6B97"/>
<path d="M4.66671 7C4.512 7 4.36362 7.06146 4.25423 7.17085C4.14483 7.28025 4.08337 7.42862 4.08337 7.58333V8.75C4.0834 8.90469 4.14487 9.05304 4.25426 9.16242C4.36365 9.2718 4.51201 9.33324 4.66671 9.33324C4.8214 9.33324 4.96976 9.2718 5.07915 9.16242C5.18855 9.05304 5.25002 8.90469 5.25004 8.75V7.58333C5.25004 7.50673 5.23495 7.43087 5.20564 7.3601C5.17632 7.28933 5.13335 7.22502 5.07919 7.17085C5.02502 7.11669 4.96071 7.07372 4.88994 7.0444C4.81917 7.01509 4.74331 7 4.66671 7ZM9.33337 7C9.17866 7 9.03029 7.06146 8.92089 7.17085C8.8115 7.28025 8.75004 7.42862 8.75004 7.58333V8.75C8.75006 8.90469 8.81153 9.05304 8.92093 9.16242C9.03032 9.2718 9.17868 9.33324 9.33337 9.33324C9.48807 9.33324 9.63643 9.2718 9.74582 9.16242C9.85521 9.05304 9.91668 8.90469 9.91671 8.75V7.58333C9.91671 7.42862 9.85525 7.28025 9.74585 7.17085C9.63646 7.06146 9.48808 7 9.33337 7Z" fill="#FF6B97"/>
</g>
<defs>
<clipPath id="clip0_15093_4659">
<rect width="14" height="14" fill="white"/>
</clipPath>
</defs>
</svg>
