<svg t="1751101561529" class="icon" viewBox="0 0 1024 1024" version="1.1" xmlns="http://www.w3.org/2000/svg" p-id="5549" width="200" height="200"><path d="M269.64 504.72c12.38 8.37 29.37 5.10 37.74-7.28 8.37-12.38 5.10-29.37-7.28-37.74-59.83-40.29-95.76-107.77-95.63-179.98 0-119.79 97.33-217.12 217.12-217.12 66.51 0.12 129.25 30.58 170.39 82.77 41.14 52.19 56.19 120.39 40.78 184.96-3.52 14.56 5.46 29.25 20.02 32.77 14.56 3.52 29.25-5.46 32.77-20.02 19.30-80.83 0.49-166.02-50.97-231.32-51.58-65.17-130.10-103.28-213.11-103.40-149.76 0.12-271.25 121.61-271.37 271.37 0 90.29 44.66 174.40 119.54 225.01z m0 0" p-id="5550"></path><path d="M886.16 738.83V539.67c0-43.21-35.07-78.28-78.28-78.28-14.08 0-26.82 4.61-38.23 11.17V629.72c0 5.95-4.85 10.80-10.80 10.80s-10.80-4.85-10.80-10.80V454.35c-14.44-21.60-38.84-34.59-64.81-34.59-13.59 0-25.85 4.37-37.02 10.44V629.72c0 5.95-4.85 10.80-10.80 10.80s-10.80-4.85-10.80-10.80V409.08c-14.32-22.69-39.20-36.53-66.02-36.65-11.89 0-22.82 3.40-32.89 8.25V629.72c0 5.95-4.85 10.80-10.80 10.80s-10.80-4.85-10.80-10.80V249.25c-18.33-31.80-55.71-47.21-91.14-37.74-35.44 9.59-59.95 41.75-59.83 78.40v338.36s-51.09-39.81-75.49-64.32c-24.52-24.52-73.30-27.55-113.23 12.38s-31.43 88.96 0 120.39c31.43 31.43 217.48 218.82 254.50 255.83s89.44 62.99 192.97 62.99 160.08-16.02 222.34-78.28c61.90-62.14 51.94-128.52 51.94-198.43z m0 0" p-id="5551"></path></svg>