<svg width="20" height="20" viewBox="0 0 20 20" fill="none" xmlns="http://www.w3.org/2000/svg">
<path d="M2.49988 15.8333V15C2.49988 13.159 3.99226 11.6667 5.83321 11.6667H9.16654C11.0075 11.6667 12.4999 13.159 12.4999 15V15.8333M12.4999 9.16666C13.8806 9.16666 14.9999 8.04737 14.9999 6.66666C14.9999 5.28594 13.8806 4.16666 12.4999 4.16666M17.4999 15.8333V15C17.4999 13.159 16.0075 11.6667 14.1665 11.6667H13.7499M9.99988 6.66666C9.99988 8.04737 8.88059 9.16666 7.49988 9.16666C6.11917 9.16666 4.99988 8.04737 4.99988 6.66666C4.99988 5.28594 6.11917 4.16666 7.49988 4.16666C8.88059 4.16666 9.99988 5.28594 9.99988 6.66666Z" stroke="#FF9421" stroke-width="1.66667" stroke-linecap="round" stroke-linejoin="round"/>
</svg>
