<svg width="10" height="10" viewBox="0 0 10 10" fill="none" xmlns="http://www.w3.org/2000/svg">
<path d="M5 0C7.76142 0 10 2.23858 10 5C10 7.76142 7.76142 10 5 10C2.23858 10 0 7.76142 0 5C0 2.23858 2.23858 0 5 0ZM5 0.599609C2.56995 0.599609 0.599609 2.56995 0.599609 5C0.599609 7.43005 2.56995 9.40039 5 9.40039C7.43005 9.40039 9.40039 7.43005 9.40039 5C9.40039 2.56995 7.43005 0.599609 5 0.599609ZM4.89844 6.81152C5.12508 6.81152 5.29672 6.9824 5.29688 7.20898C5.29688 7.43224 5.12518 7.60742 4.89844 7.60742C4.67537 7.60721 4.50098 7.43211 4.50098 7.20898C4.50114 6.98253 4.67548 6.81173 4.89844 6.81152ZM5.02051 2.5C5.89954 2.5 6.49995 3.04414 6.5 3.7627C6.5 4.31037 6.21702 4.69722 5.77051 4.96582C5.32777 5.2273 5.20226 5.42312 5.20215 5.78906V6.0166H4.5918V5.69531C4.58832 5.23496 4.81137 4.92076 5.28906 4.63477C5.69371 4.38709 5.85156 4.1672 5.85156 3.79395C5.85144 3.36151 5.51576 3.04395 4.99609 3.04395C4.46959 3.04411 4.13504 3.35481 4.09668 3.85352H3.5C3.53837 3.10014 4.04055 2.50017 5.02051 2.5Z" fill="black" fill-opacity="0.5"/>
</svg>
