<svg width="24" height="24" viewBox="0 0 24 24" fill="none" xmlns="http://www.w3.org/2000/svg">
<path d="M9.95312 4.31836C11.0183 3.42161 12.5745 3.42155 13.6396 4.31836L19.2227 9.02051C19.7054 9.42703 19.9687 10.038 19.9316 10.668L19.458 18.7197C19.369 20.2323 18.1158 21.4141 16.6006 21.4141H6.99219C5.47695 21.4141 4.22374 20.2323 4.13477 18.7197L3.66113 10.668C3.62408 10.0381 3.88656 9.42703 4.36914 9.02051L9.95312 4.31836Z" stroke="black" stroke-width="1.17241"/>
<path d="M14.9276 11.7752C15.1575 11.5257 15.5156 11.5166 15.755 11.7656C16.0102 12.0314 16.0337 12.4904 15.8078 12.7907C13.7428 15.5366 10.1498 15.6226 7.98918 13.0484L7.78437 12.7907L7.74504 12.7325C7.5626 12.4336 7.59861 12.0147 7.83795 11.7656C8.07735 11.5166 8.43544 11.5256 8.66532 11.7752L8.7094 11.8287L8.86674 12.0265C10.5293 14.0075 13.2944 13.9418 14.8835 11.8287L14.9276 11.7752Z" fill="black"/>
</svg>
