<svg width="14" height="14" viewBox="0 0 14 14" fill="none" xmlns="http://www.w3.org/2000/svg"><g clip-path="url(#clip0_3_968)"><path d="M5.62 1.51C5.52 1.55 5.45 1.62 5.40 1.72C5.31 1.90 5.37 2.61 5.52 3.10C5.63 3.46 5.75 3.69 6.16 4.32C6.51 4.87 6.69 5.25 6.78 5.64C6.85 5.92 6.83 6.25 6.75 6.43C6.64 6.66 6.47 6.78 6.26 6.79C6.09 6.79 5.95 6.73 5.85 6.62C5.73 6.50 5.70 6.40 5.71 6.21C5.73 6.02 5.83 5.81 6.05 5.52C6.31 5.18 6.35 5.07 6.29 4.87C6.24 4.70 6.13 4.59 5.94 4.55C5.81 4.52 5.57 4.57 5.22 4.71C4.76 4.89 4.43 5.07 4.06 5.35C2.85 6.27 2.27 7.74 2.56 9.16C2.91 10.91 4.27 12.19 6.09 12.51C6.37 12.56 6.54 12.50 6.67 12.31C6.75 12.19 6.74 11.99 6.66 11.73C6.50 11.26 6.59 10.72 6.87 10.44C7.00 10.31 7.12 10.24 7.42 10.08C7.57 10.00 7.77 9.88 7.88 9.81C7.99 9.74 8.08 9.68 8.08 9.69C8.10 9.70 8.02 10.17 7.98 10.30C7.86 10.71 7.66 11.05 7.24 11.57C7.09 11.76 7.03 11.87 7.01 11.99C6.98 12.18 7.09 12.39 7.27 12.48C7.38 12.54 7.60 12.54 7.93 12.49C9.62 12.22 10.98 10.99 11.39 9.38C11.50 8.95 11.52 8.68 11.51 8.17C11.50 7.79 11.49 7.68 11.43 7.41C11.35 7.03 11.29 6.81 11.16 6.50C10.74 5.51 10.00 4.66 8.93 3.93C8.58 3.70 8.28 3.52 7.58 3.11C6.94 2.74 6.79 2.64 6.58 2.43C6.39 2.24 6.32 2.11 6.27 1.88C6.23 1.69 6.15 1.59 6.01 1.52C5.90 1.46 5.73 1.46 5.62 1.51ZM6.93 3.75C7.00 3.79 7.26 3.95 7.52 4.09C8.42 4.60 8.90 4.94 9.37 5.41C9.70 5.74 9.86 5.95 10.06 6.28C10.37 6.78 10.53 7.23 10.61 7.79C10.66 8.09 10.65 8.73 10.59 8.98C10.50 9.40 10.33 9.82 10.11 10.14C9.78 10.64 9.33 11.04 8.79 11.31C8.51 11.45 8.36 11.49 8.44 11.42C8.51 11.34 8.76 10.78 8.83 10.51C8.94 10.11 8.95 9.99 8.95 9.54C8.95 8.92 8.88 8.57 8.73 8.41C8.64 8.32 8.51 8.26 8.38 8.26C8.19 8.26 8.07 8.34 7.93 8.56C7.84 8.69 7.58 8.95 7.43 9.06C7.35 9.11 7.14 9.24 6.95 9.34C6.55 9.55 6.47 9.61 6.27 9.81C5.88 10.19 5.70 10.67 5.71 11.26C5.72 11.4 5.71 11.52 5.71 11.52C5.66 11.52 5.35 11.39 5.19 11.31C4.85 11.14 4.60 10.96 4.31 10.67C3.84 10.19 3.55 9.66 3.41 9.02C3.36 8.73 3.35 8.24 3.40 7.93C3.54 7.17 3.99 6.49 4.67 6.00C4.76 5.93 4.84 5.88 4.85 5.88C4.85 5.89 4.85 5.97 4.83 6.07C4.81 6.19 4.81 6.29 4.83 6.42C4.88 6.77 5.00 7.00 5.25 7.26C5.77 7.78 6.61 7.81 7.17 7.32C7.39 7.13 7.59 6.77 7.66 6.46C7.71 6.22 7.71 5.83 7.66 5.57C7.59 5.13 7.31 4.50 6.98 3.99C6.77 3.67 6.78 3.68 6.79 3.68C6.80 3.68 6.86 3.71 6.93 3.75Z" fill="black"/></g><defs><clipPath id="clip0_3_968"><rect width="14" height="14" fill="white"/></clipPath></defs></svg>