<svg width="14" height="14" viewBox="0 0 14 14" fill="none" xmlns="http://www.w3.org/2000/svg">
<g clip-path="url(#clip0_3_968)">
<path d="M5.62237 1.50655C5.52411 1.55022 5.45424 1.61572 5.40183 1.71617C5.30794 1.90176 5.3669 2.61359 5.51538 3.09833C5.62674 3.45642 5.74683 3.68569 6.15733 4.3211C6.51106 4.87134 6.69229 5.25127 6.78181 5.63775C6.84732 5.92379 6.83422 6.2535 6.74906 6.43255C6.64207 6.65964 6.46739 6.7841 6.25559 6.78628C6.09182 6.78846 5.94989 6.72951 5.84509 6.61597C5.73373 6.49587 5.70097 6.39543 5.71408 6.20983C5.72936 6.01768 5.82762 5.81462 6.05034 5.52203C6.30799 5.17921 6.34948 5.07222 6.29052 4.87134C6.23812 4.69666 6.12676 4.59185 5.94334 4.55036C5.80797 4.52198 5.57433 4.57438 5.2206 4.71194C4.76425 4.89099 4.43235 5.07441 4.06334 5.3539C2.85149 6.27097 2.27068 7.73829 2.5589 9.15757C2.91263 10.9066 4.26641 12.1948 6.08527 12.5093C6.37131 12.5595 6.53944 12.5005 6.67045 12.3084C6.74688 12.1948 6.74469 11.9874 6.66172 11.7341C6.50451 11.2581 6.59403 10.7188 6.87352 10.4371C6.99798 10.3126 7.11589 10.2362 7.42376 10.0768C7.56788 10.0004 7.77313 9.8825 7.88012 9.81044C7.98711 9.74057 8.07663 9.6838 8.081 9.68817C8.09629 9.70345 8.01768 10.1729 7.97838 10.3039C7.8561 10.7122 7.6574 11.055 7.24472 11.566C7.0875 11.7603 7.02637 11.8695 7.00671 11.994C6.97614 12.1796 7.0875 12.387 7.26655 12.4809C7.37791 12.5376 7.60063 12.5398 7.93034 12.4874C9.61601 12.2167 10.9807 10.9895 11.389 9.37592C11.496 8.94795 11.5244 8.68157 11.5113 8.17499C11.5004 7.78851 11.4895 7.6837 11.4327 7.40858C11.3541 7.03302 11.2886 6.81466 11.1554 6.50024C10.7427 5.51111 10.0025 4.65954 8.9282 3.93243C8.57884 3.69661 8.28407 3.51538 7.57661 3.10925C6.94339 2.7446 6.78618 2.63761 6.58311 2.43236C6.39096 2.24021 6.31891 2.11138 6.26869 1.8843C6.2272 1.69215 6.15078 1.58734 6.00885 1.51747C5.89749 1.46288 5.73373 1.45851 5.62237 1.50655ZM6.92811 3.7512C6.99798 3.7905 7.26437 3.94553 7.52202 4.09183C8.42381 4.60495 8.89763 4.9434 9.36927 5.41285C9.69898 5.74038 9.86493 5.94781 10.0636 6.27534C10.3671 6.77536 10.5331 7.2339 10.6139 7.79069C10.6575 8.0942 10.6466 8.73179 10.5899 8.98289C10.4981 9.40431 10.3257 9.81699 10.1117 10.138C9.77759 10.6402 9.3256 11.0376 8.79283 11.3061C8.50679 11.4503 8.36267 11.4939 8.43691 11.4175C8.51334 11.3367 8.75571 10.7777 8.82776 10.5113C8.93694 10.1118 8.95222 9.99386 8.95222 9.53969C8.95004 8.9152 8.88235 8.57239 8.72732 8.40644C8.64216 8.31692 8.51334 8.26233 8.37796 8.26233C8.19454 8.26233 8.07008 8.34312 7.92816 8.55711C7.843 8.68593 7.57879 8.95014 7.42595 9.05931C7.35171 9.11172 7.13772 9.23618 6.94994 9.3388C6.55036 9.55497 6.47394 9.60738 6.27087 9.80826C5.88002 10.1926 5.69661 10.6707 5.71408 11.2581C5.71626 11.4 5.71408 11.5158 5.70534 11.5158C5.66385 11.5158 5.34943 11.3891 5.18567 11.3083C4.85159 11.1402 4.60267 10.959 4.31226 10.6664C3.83626 10.1882 3.54585 9.6576 3.41484 9.02001C3.35588 8.7296 3.35152 8.23613 3.40392 7.93481C3.54148 7.17494 3.9891 6.48714 4.66599 6.00022C4.75988 5.93253 4.84285 5.88012 4.84722 5.88449C4.85159 5.89104 4.84504 5.97183 4.83194 6.06572C4.81447 6.19018 4.81447 6.28626 4.83194 6.41508C4.87779 6.76663 4.9957 7.00245 5.25117 7.25792C5.77085 7.77978 6.60931 7.80598 7.17266 7.31687C7.39101 7.12691 7.59189 6.77099 7.65522 6.46094C7.70544 6.21857 7.7098 5.8299 7.66395 5.57006C7.58753 5.13336 7.31459 4.50451 6.98051 3.99357C6.76871 3.66604 6.77526 3.67696 6.79055 3.67696C6.79928 3.67696 6.86042 3.70971 6.92811 3.7512Z" fill="black"/>
</g>
<defs>
<clipPath id="clip0_3_968">
<rect width="14" height="14" fill="white"/>
</clipPath>
</defs>
</svg>
