<svg width="29" height="29" viewBox="0 0 29 29" fill="none" xmlns="http://www.w3.org/2000/svg">
<path d="M14.1501 3.03479C16.9548 3.03492 19.5207 4.07753 21.4704 5.78772C23.9755 5.53984 25.8653 6.03643 26.6266 7.34436C27.4134 8.71267 26.8064 10.7144 25.1901 12.861C25.2414 13.2886 25.2672 13.7168 25.2672 14.153C25.2669 20.2929 20.29 25.2699 14.1501 25.2701C11.6615 25.2701 9.36032 24.4485 7.50455 23.0631C4.83655 23.3965 2.8099 22.9176 2.02311 21.5494C1.31782 20.3228 1.72463 18.5931 2.98307 16.7047L3.24576 16.3248C3.10895 15.6236 3.03191 14.8959 3.0319 14.152C3.03202 8.01172 8.00978 3.03479 14.1501 3.03479ZM23.0944 15.1891C21.5225 16.6947 19.5298 18.1826 17.2448 19.5055C14.799 20.9165 12.3447 21.9428 10.1383 22.5328C11.3527 23.1144 12.7133 23.4401 14.1501 23.4401C19.0329 23.4398 23.035 19.6771 23.403 14.8883L23.0944 15.1891ZM3.97233 18.6256C3.81 18.9589 3.69086 19.2581 3.61393 19.5231C3.42579 20.1816 3.51962 20.4985 3.60514 20.6354C3.68235 20.7723 3.90504 21.0192 4.57096 21.1901C4.87876 21.267 5.23821 21.3106 5.66569 21.3278C6.17859 21.3534 6.76875 21.328 7.44401 21.234C6.76879 21.3194 6.17858 21.3534 5.66569 21.3278C4.97307 20.5154 4.39991 19.6089 3.97233 18.6256ZM14.1501 4.86389C9.01892 4.86389 4.8621 9.02086 4.86198 14.152V14.3834L4.87565 14.6862C4.91878 15.3914 5.03556 16.0764 5.23014 16.735C5.72615 18.4624 6.70912 19.9762 8.02604 21.1393L8.47721 21.0543C10.7633 20.5913 13.5247 19.5429 16.3307 17.9235C19.315 16.1961 21.7182 14.1953 23.2575 12.3483C23.3258 12.2714 23.3926 12.1937 23.4567 12.1168H23.4557C23.3917 12.1937 23.3258 12.2714 23.2575 12.3483C22.9287 10.6725 22.1562 9.16093 21.0602 7.94983L20.8376 7.71252L20.6286 7.50159C20.1348 7.0172 19.5889 6.59318 18.9977 6.23401C17.5869 5.3705 15.9285 4.86399 14.1501 4.86389ZM14.2135 7.74084C15.569 7.80969 16.6471 8.93072 16.6471 10.3033C16.6469 11.72 15.4984 12.8685 14.0817 12.8688C12.709 12.8688 11.587 11.7908 11.5182 10.4352L11.5163 10.3033L11.5182 10.1705C11.5871 8.81509 12.7091 7.73792 14.0817 7.73792L14.2135 7.74084ZM23.1042 7.56799C23.7367 8.42295 24.2502 9.38077 24.6178 10.3981L24.7536 10.1217C24.8791 9.8503 24.9726 9.59621 25.0368 9.3717C25.2246 8.71403 25.1215 8.39737 25.0446 8.26038C24.959 8.12351 24.7365 7.87468 24.07 7.70374C23.7966 7.6354 23.4715 7.59365 23.1042 7.56799Z" fill="#1F1722" fill-opacity="0.3"/>
</svg>
