<svg width="26" height="23" viewBox="0 0 26 23" fill="none" xmlns="http://www.w3.org/2000/svg">
<path d="M24.1842 12.5093C23.5146 18.0091 18.8307 22.269 13.15 22.269C11.6078 22.269 10.138 21.9529 8.80139 21.3833C9.06288 21.3212 9.32743 21.2543 9.59338 21.1812L9.5924 21.1802C11.9586 20.546 14.5471 19.4597 17.1002 17.9868L17.1031 17.9849C19.6499 16.5104 21.8758 14.8241 23.61 13.0991L23.609 13.0981C23.8058 12.9037 23.9977 12.707 24.1842 12.5093ZM13.15 0.034668C15.9548 0.0347197 18.5206 1.07747 20.4703 2.7876C22.9759 2.53961 24.8663 3.03597 25.6276 4.34424C26.4143 5.71254 25.8073 7.71432 24.191 9.86084C23.6951 10.5278 23.087 11.2117 22.4029 11.8872C20.7868 13.4947 18.6836 15.0945 16.2467 16.5054C13.801 17.9164 11.3456 18.9426 9.13928 19.5327C8.2072 19.7892 7.32543 19.9689 6.50451 20.063C3.83669 20.3963 1.8098 19.9175 1.02307 18.5493C0.317857 17.3228 0.724889 15.5928 1.98303 13.7046L2.2467 13.3237C2.10991 12.6226 2.03283 11.8958 2.03283 11.1519C2.03283 5.01165 7.00987 0.0349166 13.15 0.034668ZM2.97326 15.6245C2.81087 15.9579 2.69082 16.2579 2.61389 16.5229C2.42605 17.1806 2.51965 17.4973 2.6051 17.6343C2.68209 17.7711 2.90509 18.0199 3.57189 18.1909C3.87963 18.2678 4.23928 18.3096 4.66662 18.3267C4.77383 18.332 4.88468 18.335 4.99865 18.3354C5.34193 18.3368 5.71675 18.3156 6.12463 18.27L6.12365 18.2681C5.71662 18.3112 5.34239 18.3345 4.99963 18.3345C4.88549 18.334 4.77398 18.332 4.66662 18.3267C3.97406 17.5144 3.40081 16.6078 2.97326 15.6245ZM22.1041 4.56689C22.7366 5.42165 23.2501 6.37892 23.6178 7.396C23.814 7.02041 23.9513 6.67043 24.0367 6.37158C24.2248 5.71336 24.1215 5.39718 24.0445 5.26025C23.959 5.1234 23.7368 4.87461 23.0699 4.70361C22.7964 4.6353 22.4715 4.59253 22.1041 4.56689Z" fill="url(#paint0_linear_14490_2396)"/>
<path d="M13.0817 4.7384C14.4988 4.7384 15.6471 5.8867 15.6471 7.30383C15.6471 8.72097 14.4988 9.86926 13.0817 9.86926C11.6646 9.86924 10.5163 8.72095 10.5163 7.30383C10.5163 5.88672 11.6646 4.73843 13.0817 4.7384ZM12.6481 8.69641C12.1917 8.55441 11.8311 8.19388 11.6891 7.73743C11.7175 7.8288 11.7546 7.91646 11.7995 7.99915C11.8668 8.123 11.9516 8.23621 12.0505 8.33508C12.1164 8.40099 12.1888 8.46044 12.2663 8.51282C12.3051 8.53902 12.3451 8.56361 12.3864 8.58606C12.4691 8.631 12.5567 8.66799 12.6481 8.69641ZM13.5153 8.69641C13.4241 8.72476 13.329 8.74407 13.2311 8.75403C13.329 8.74407 13.4241 8.72477 13.5153 8.69641ZM11.738 6.73645C11.6827 6.86709 11.6465 7.00761 11.6315 7.15442C11.6464 7.00761 11.6828 6.86709 11.738 6.73645ZM12.3864 6.02161C12.2625 6.08892 12.1493 6.1737 12.0505 6.27258C12.1493 6.17368 12.2625 6.08894 12.3864 6.02161Z" fill="white"/>
<defs>
<linearGradient id="paint0_linear_14490_2396" x1="13.5934" y1="26.7983" x2="-16.7987" y2="-23.3729" gradientUnits="userSpaceOnUse">
<stop offset="0.196785" stop-color="#FF9114"/>
<stop offset="0.59787" stop-color="#FFCA40"/>
<stop offset="1" stop-color="#FFE0F9"/>
</linearGradient>
</defs>
</svg>
