<svg width="29" height="29" viewBox="0 0 29 29" fill="none" xmlns="http://www.w3.org/2000/svg">
<path d="M25.1842 15.5093C24.5146 21.0091 19.8307 25.269 14.15 25.269C12.6078 25.269 11.138 24.9529 9.80139 24.3833C10.0629 24.3212 10.3274 24.2543 10.5934 24.1812L10.5924 24.1802C12.9586 23.546 15.5471 22.4597 18.1002 20.9868L18.1031 20.9849C20.6499 19.5104 22.8758 17.8241 24.61 16.0991L24.609 16.0981C24.8058 15.9037 24.9977 15.707 25.1842 15.5093ZM14.15 3.03467C16.9548 3.03472 19.5206 4.07747 21.4703 5.7876C23.9759 5.53961 25.8663 6.03597 26.6276 7.34424C27.4143 8.71254 26.8073 10.7143 25.191 12.8608C24.6951 13.5278 24.087 14.2117 23.4029 14.8872C21.7868 16.4947 19.6836 18.0945 17.2467 19.5054C14.801 20.9164 12.3456 21.9426 10.1393 22.5327C9.2072 22.7892 8.32543 22.9689 7.50451 23.063C4.83669 23.3963 2.8098 22.9175 2.02307 21.5493C1.31786 20.3228 1.72489 18.5928 2.98303 16.7046L3.2467 16.3237C3.10991 15.6226 3.03283 14.8958 3.03283 14.1519C3.03283 8.01165 8.00987 3.03492 14.15 3.03467ZM3.97326 18.6245C3.81087 18.9579 3.69082 19.2579 3.61389 19.5229C3.42605 20.1806 3.51965 20.4973 3.6051 20.6343C3.68209 20.7711 3.90509 21.0199 4.57189 21.1909C4.87963 21.2678 5.23928 21.3096 5.66662 21.3267C5.77383 21.332 5.88468 21.335 5.99865 21.3354C6.34193 21.3368 6.71675 21.3156 7.12463 21.27L7.12365 21.2681C6.71662 21.3112 6.34239 21.3345 5.99963 21.3345C5.88549 21.334 5.77398 21.332 5.66662 21.3267C4.97406 20.5144 4.40081 19.6078 3.97326 18.6245ZM23.1041 7.56689C23.7366 8.42165 24.2501 9.37892 24.6178 10.396C24.814 10.0204 24.9513 9.67043 25.0367 9.37158C25.2248 8.71336 25.1215 8.39718 25.0445 8.26025C24.959 8.1234 24.7368 7.87461 24.0699 7.70361C23.7964 7.6353 23.4715 7.59253 23.1041 7.56689Z" fill="url(#paint0_linear_14458_7627)"/>
<path d="M14.0817 7.7384C15.4988 7.7384 16.6471 8.8867 16.6471 10.3038C16.6471 11.721 15.4988 12.8693 14.0817 12.8693C12.6646 12.8692 11.5163 11.721 11.5163 10.3038C11.5163 8.88672 12.6646 7.73843 14.0817 7.7384ZM13.6481 11.6964C13.1917 11.5544 12.8311 11.1939 12.6891 10.7374C12.7175 10.8288 12.7546 10.9165 12.7995 10.9991C12.8668 11.123 12.9516 11.2362 13.0505 11.3351C13.1164 11.401 13.1888 11.4604 13.2663 11.5128C13.3051 11.539 13.3451 11.5636 13.3864 11.5861C13.4691 11.631 13.5567 11.668 13.6481 11.6964ZM14.5153 11.6964C14.4241 11.7248 14.329 11.7441 14.2311 11.754C14.329 11.7441 14.4241 11.7248 14.5153 11.6964ZM12.738 9.73645C12.6827 9.86709 12.6465 10.0076 12.6315 10.1544C12.6464 10.0076 12.6828 9.86709 12.738 9.73645ZM13.3864 9.02161C13.2625 9.08892 13.1493 9.1737 13.0505 9.27258C13.1493 9.17368 13.2625 9.08894 13.3864 9.02161Z" fill="white"/>
<defs>
<linearGradient id="paint0_linear_14458_7627" x1="14.5934" y1="29.7983" x2="-15.7987" y2="-20.3729" gradientUnits="userSpaceOnUse">
<stop offset="0.196785" stop-color="#FF9114"/>
<stop offset="0.59787" stop-color="#FFCA40"/>
<stop offset="1" stop-color="#FFE0F9"/>
</linearGradient>
</defs>
</svg>
