<svg width="15" height="15" viewBox="0 0 15 15" fill="none" xmlns="http://www.w3.org/2000/svg">
<path d="M11.4648 5.24592C11.4648 3.15722 9.57549 1.46387 7.4756 1.46387C5.37569 1.46387 3.53821 3.15721 3.53821 5.24592C3.53821 7.18265 7.43162 11.82 7.43162 11.82C7.43162 11.82 11.4648 7.24737 11.4648 5.24592ZM6.22066 5.37967C6.22066 4.66507 6.81276 4.08509 7.54204 4.08509C8.27222 4.08509 8.86342 4.66417 8.86342 5.37967C8.86342 6.09516 8.27136 6.67431 7.54204 6.67431C6.81276 6.67345 6.22066 6.09433 6.22066 5.37967ZM8.80731 11.9331C8.81859 11.9668 8.82463 12.0021 8.82463 12.0367C8.82463 12.394 8.23253 12.684 7.5032 12.684C6.77393 12.684 6.18183 12.394 6.18183 12.0367C6.18183 12.0013 6.18789 11.9668 6.19908 11.9331C5.39902 12.0816 4.86046 12.3621 4.86046 12.684C4.86046 13.1613 6.04376 13.5471 7.50322 13.5471C8.96276 13.5471 10.146 13.1613 10.146 12.684C10.1452 12.3621 9.60658 12.0816 8.80731 11.9331Z" fill="#FF9421"/>
</svg>
