<svg width="16" height="16" viewBox="0 0 16 16" fill="none" xmlns="http://www.w3.org/2000/svg">
<g clip-path="url(#clip0_15209_19993)">
<path d="M16.0075 12.0513H14.7723V11.1676H15.1236V8.36416L13.25 6.19792H10.8589V3.70773H4.45959V4.788H3.57593V2.82501H11.7421V5.31521H13.6555L16.0075 8.03664V12.0513Z" fill="#FF9421"/>
<path d="M7.51731 5.04769C7.51731 5.29363 7.30624 5.49213 7.0456 5.49213H2.68752C2.42664 5.49213 2.2158 5.29363 2.2158 5.04769C2.2158 4.80175 2.42687 4.60349 2.68752 4.60349H7.04488C7.30529 4.6042 7.51731 4.80318 7.51731 5.04769ZM7.51731 7.06143C7.51731 7.30689 7.30624 7.50563 7.0456 7.50563H1.55293C1.29206 7.50563 1.08122 7.30689 1.08122 7.06143C1.08122 6.81597 1.29229 6.61699 1.55293 6.61699H7.04488C7.30529 6.61699 7.51731 6.81549 7.51731 7.06143ZM7.51731 9.09058C7.51731 9.33652 7.27066 9.53479 6.9671 9.53479H0.550215C0.246648 9.53479 0 9.33628 0 9.09058C0 8.84488 0.246648 8.64614 0.550215 8.64614H6.9652C7.27019 8.64614 7.51636 8.84512 7.51636 9.09058H7.51731ZM11.7421 12.0513H8.65331V11.1676H10.8589V5.75704H11.7426V12.0513H11.7421Z" fill="#FF9421"/>
<path d="M13.2943 13.175C12.9683 13.1749 12.6496 13.0782 12.3786 12.897C12.1075 12.7159 11.8963 12.4584 11.7716 12.1572C11.6469 11.856 11.6143 11.5246 11.678 11.2048C11.7417 10.8851 11.8987 10.5914 12.1293 10.361C12.3599 10.1305 12.6536 9.97356 12.9733 9.91003C13.2931 9.8465 13.6245 9.87923 13.9257 10.0041C14.2268 10.1289 14.4842 10.3402 14.6653 10.6113C14.8463 10.8825 14.9429 11.2012 14.9428 11.5272C14.9422 11.9641 14.7683 12.383 14.4592 12.6919C14.1502 13.0008 13.7312 13.1745 13.2943 13.175ZM13.2943 10.7011C13.1311 10.7012 12.9715 10.7497 12.8358 10.8405C12.7001 10.9312 12.5944 11.0602 12.532 11.211C12.4695 11.3618 12.4532 11.5278 12.4851 11.6879C12.517 11.848 12.5956 11.995 12.711 12.1105C12.8264 12.2259 12.9735 12.3045 13.1336 12.3364C13.2937 12.3682 13.4596 12.3519 13.6105 12.2895C13.7613 12.2271 13.8903 12.1213 13.981 11.9857C14.0717 11.85 14.1202 11.6904 14.1203 11.5272C14.1202 11.3081 14.0331 11.0981 13.8783 10.9432C13.7234 10.7883 13.5133 10.7013 13.2943 10.7011ZM7.16391 13.175C6.8379 13.1749 6.51923 13.0782 6.24819 12.897C5.97715 12.7159 5.76593 12.4584 5.64122 12.1572C5.51652 11.856 5.48394 11.5246 5.5476 11.2048C5.61127 10.8851 5.76832 10.5914 5.99889 10.361C6.22946 10.1305 6.5232 9.97356 6.84296 9.91003C7.16272 9.8465 7.49413 9.87923 7.79529 10.0041C8.09645 10.1289 8.35383 10.3402 8.53488 10.6113C8.71593 10.8825 8.81251 11.2012 8.81242 11.5272C8.81173 11.9641 8.6378 12.3829 8.32877 12.6918C8.01975 13.0007 7.60084 13.1745 7.16391 13.175ZM7.16391 10.7011C7.00063 10.7011 6.84098 10.7494 6.70517 10.84C6.56936 10.9307 6.46347 11.0595 6.4009 11.2103C6.33832 11.3612 6.32188 11.5271 6.35364 11.6873C6.38541 11.8475 6.46395 11.9946 6.57934 12.1101C6.69473 12.2257 6.84178 12.3044 7.00191 12.3363C7.16203 12.3683 7.32803 12.352 7.47892 12.2896C7.62981 12.2272 7.7588 12.1215 7.8496 11.9858C7.94039 11.85 7.9889 11.6905 7.98899 11.5272C7.98893 11.3083 7.90201 11.0984 7.74732 10.9435C7.59262 10.7886 7.3828 10.7015 7.16391 10.7011Z" fill="#FF9421"/>
<path d="M3.32361 11.0851H5.5949V11.9688H3.32361V11.0851Z" fill="#FF9421"/>
<path d="M4.22458 11.2941C4.22456 11.4136 4.17708 11.5282 4.09257 11.6126C4.00807 11.6971 3.89347 11.7446 3.77397 11.7446C3.65447 11.7446 3.53987 11.6971 3.45537 11.6126C3.37086 11.5282 3.32338 11.4136 3.32336 11.2941V10.7462C3.32338 10.6267 3.37086 10.5121 3.45537 10.4276C3.53987 10.3431 3.65447 10.2957 3.77397 10.2957C3.89347 10.2957 4.00807 10.3431 4.09257 10.4276C4.17708 10.5121 4.22456 10.6267 4.22458 10.7462V11.2941ZM12.4152 7.70604V8.68338H14.1726L13.388 7.70604H12.4152Z" fill="#FF9421"/>
</g>
<defs>
<clipPath id="clip0_15209_19993">
<rect width="16" height="16" fill="white"/>
</clipPath>
</defs>
</svg>
