<svg width="16" height="16" viewBox="0 0 16 16" fill="none" xmlns="http://www.w3.org/2000/svg"><g clip-path="url(#clip0_15209_19993)"><path d="M16.01 12.05H14.77V11.17H15.12V8.36L13.25 6.20H10.86V3.71H4.46V4.79H3.58V2.83H11.74V5.32H13.66L16.01 8.04V12.05Z" fill="#FF9421"/><path d="M7.52 5.05C7.52 5.29 7.31 5.49 7.05 5.49H2.69C2.43 5.49 2.22 5.29 2.22 5.05C2.22 4.80 2.43 4.60 2.69 4.60H7.04C7.31 4.60 7.52 4.80 7.52 5.05ZM7.52 7.06C7.52 7.31 7.31 7.51 7.05 7.51H1.55C1.29 7.51 1.08 7.31 1.08 7.06C1.08 6.82 1.29 6.62 1.55 6.62H7.04C7.31 6.62 7.52 6.82 7.52 7.06ZM7.52 9.09C7.52 9.34 7.27 9.53 6.97 9.53H0.55C0.25 9.53 0 9.34 0 9.09C0 8.84 0.25 8.65 0.55 8.65H6.97C7.27 8.65 7.52 8.85 7.52 9.09H7.52ZM11.74 12.05H8.65V11.17H10.86V5.76H11.74V12.05H11.74Z" fill="#FF9421"/><path d="M13.29 13.18C12.97 13.17 12.65 13.08 12.38 12.90C12.11 12.72 11.90 12.46 11.77 12.16C11.65 11.86 11.61 11.52 11.68 11.20C11.74 10.89 11.90 10.59 12.13 10.36C12.36 10.13 12.65 9.97 12.97 9.91C13.29 9.85 13.62 9.88 13.93 10.00C14.23 10.13 14.48 10.34 14.67 10.61C14.85 10.88 14.94 11.20 14.94 11.53C14.94 11.96 14.77 12.38 14.46 12.69C14.15 13.00 13.73 13.17 13.29 13.18ZM13.29 10.70C13.13 10.70 12.97 10.75 12.84 10.84C12.70 10.93 12.59 11.06 12.53 11.21C12.47 11.36 12.45 11.53 12.49 11.69C12.52 11.85 12.60 11.99 12.71 12.11C12.83 12.23 12.97 12.30 13.13 12.34C13.29 12.37 13.46 12.35 13.61 12.29C13.76 12.23 13.89 12.12 13.98 11.99C14.07 11.85 14.12 11.69 14.12 11.53C14.12 11.31 14.03 11.10 13.88 10.94C13.72 10.79 13.51 10.70 13.29 10.70ZM7.16 13.18C6.84 13.17 6.52 13.08 6.25 12.90C5.98 12.72 5.77 12.46 5.64 12.16C5.52 11.86 5.48 11.52 5.55 11.20C5.61 10.89 5.77 10.59 6.00 10.36C6.23 10.13 6.52 9.97 6.84 9.91C7.16 9.85 7.49 9.88 7.80 10.00C8.10 10.13 8.35 10.34 8.53 10.61C8.72 10.88 8.81 11.20 8.81 11.53C8.81 11.96 8.64 12.38 8.33 12.69C8.02 13.00 7.60 13.17 7.16 13.18ZM7.16 10.70C7.00 10.70 6.84 10.75 6.71 10.84C6.57 10.93 6.46 11.06 6.40 11.21C6.34 11.36 6.32 11.53 6.35 11.69C6.39 11.85 6.46 11.99 6.58 12.11C6.69 12.23 6.84 12.30 7.00 12.34C7.16 12.37 7.33 12.35 7.48 12.29C7.63 12.23 7.76 12.12 7.85 11.99C7.94 11.85 7.99 11.69 7.99 11.53C7.99 11.31 7.90 11.10 7.75 10.94C7.59 10.79 7.38 10.70 7.16 10.70Z" fill="#FF9421"/><path d="M3.32 11.09H5.59V11.97H3.32V11.09Z" fill="#FF9421"/><path d="M4.22 11.29C4.22 11.41 4.18 11.53 4.09 11.61C4.01 11.70 3.89 11.74 3.77 11.74C3.65 11.74 3.54 11.70 3.46 11.61C3.37 11.53 3.32 11.41 3.32 11.29V10.75C3.32 10.63 3.37 10.51 3.46 10.43C3.54 10.34 3.65 10.30 3.77 10.30C3.89 10.30 4.01 10.34 4.09 10.43C4.18 10.51 4.22 10.63 4.22 10.75V11.29ZM12.42 7.71V8.68H14.17L13.39 7.71H12.42Z" fill="#FF9421"/></g><defs><clipPath id="clip0_15209_19993"><rect width="16" height="16" fill="white"/></clipPath></defs></svg>