<svg width="16" height="17" viewBox="0 0 16 17" fill="none" xmlns="http://www.w3.org/2000/svg"><path d="M9.17 14.54C9.02 14.70 8.84 14.82 8.64 14.91C8.44 14.99 8.22 15.04 8.00 15.04C7.53 15.04 7.12 14.87 6.79 14.53C6.52 14.26 6.35 13.89 6.32 13.50C5.99 13.40 5.66 13.27 5.36 13.10C5.05 13.38 4.68 13.50 4.26 13.48C3.83 13.48 3.43 13.32 3.09 13.01C2.78 12.68 2.60 12.26 2.59 11.81C2.59 11.40 2.73 11.03 3.00 10.72C2.84 10.42 2.71 10.10 2.62 9.77C2.21 9.75 1.83 9.57 1.54 9.28C1.39 9.13 1.26 8.94 1.18 8.74C1.10 8.54 1.06 8.32 1.06 8.10C1.06 7.66 1.22 7.26 1.53 6.92C1.82 6.63 2.21 6.45 2.62 6.42C2.71 6.09 2.84 5.78 3.01 5.48C2.75 5.17 2.61 4.78 2.61 4.38C2.60 4.16 2.63 3.95 2.72 3.74C2.80 3.54 2.92 3.36 3.09 3.22C3.40 2.89 3.81 2.71 4.29 2.71C4.70 2.71 5.07 2.85 5.39 3.11C5.69 2.95 6.00 2.82 6.32 2.72C6.35 2.33 6.50 1.98 6.79 1.67C7.12 1.33 7.53 1.16 8.00 1.16C8.45 1.16 8.85 1.33 9.18 1.66C9.48 1.97 9.65 2.32 9.68 2.72C9.99 2.82 10.30 2.95 10.60 3.11C10.91 2.85 11.30 2.70 11.70 2.71C12.16 2.71 12.57 2.87 12.91 3.19C13.23 3.53 13.39 3.93 13.39 4.40C13.39 4.82 13.25 5.19 12.98 5.48C13.14 5.78 13.27 6.10 13.37 6.42C13.76 6.44 14.13 6.61 14.43 6.92C14.77 7.25 14.94 7.65 14.94 8.10C14.94 8.57 14.76 8.97 14.43 9.28C14.15 9.57 13.78 9.75 13.38 9.78C13.28 10.11 13.14 10.43 12.98 10.73C13.25 11.04 13.38 11.40 13.38 11.80C13.38 12.29 13.21 12.70 12.88 13.01C12.57 13.34 12.16 13.51 11.70 13.49C11.28 13.49 10.92 13.36 10.62 13.10C10.32 13.26 10.00 13.40 9.68 13.50C9.64 13.91 9.47 14.26 9.17 14.54ZM7.05 13.35C7.05 13.63 7.14 13.84 7.31 14.01C7.40 14.11 7.51 14.18 7.63 14.23C7.75 14.28 7.87 14.30 8.00 14.30C8.25 14.30 8.46 14.21 8.66 14.01C8.75 13.93 8.83 13.83 8.88 13.71C8.92 13.60 8.95 13.48 8.94 13.36L8.95 13.26C8.92 13.04 8.82 12.84 8.66 12.70C8.58 12.61 8.47 12.53 8.36 12.48C8.25 12.43 8.12 12.41 8.00 12.41C7.73 12.41 7.51 12.50 7.32 12.69C7.18 12.84 7.08 13.04 7.06 13.25V13.35H7.05ZM6.42 12.76C6.50 12.55 6.62 12.36 6.79 12.18C6.95 12.02 7.13 11.89 7.34 11.80C7.55 11.71 7.77 11.67 8.00 11.67C8.45 11.67 8.85 11.84 9.18 12.17C9.36 12.35 9.49 12.54 9.57 12.76C9.78 12.69 9.97 12.60 10.17 12.51C10.07 12.29 10.02 12.05 10.02 11.80C10.02 11.35 10.19 10.95 10.52 10.62C10.68 10.47 10.86 10.35 11.07 10.26C11.27 10.18 11.49 10.14 11.70 10.15C11.95 10.15 12.17 10.19 12.38 10.29C12.48 10.09 12.57 9.88 12.64 9.67C12.42 9.58 12.22 9.45 12.05 9.28C11.89 9.12 11.77 8.94 11.69 8.74C11.61 8.53 11.57 8.32 11.57 8.10C11.57 7.66 11.73 7.26 12.04 6.92C12.22 6.75 12.42 6.62 12.63 6.54C12.56 6.33 12.48 6.13 12.38 5.94C12.17 6.03 11.94 6.07 11.71 6.05C11.49 6.07 11.27 6.03 11.06 5.95C10.86 5.87 10.67 5.74 10.53 5.58C10.19 5.27 10.02 4.86 10.02 4.37C10.02 4.14 10.07 3.92 10.16 3.72C9.97 3.62 9.77 3.54 9.57 3.47C9.48 3.68 9.35 3.87 9.18 4.03C9.02 4.19 8.84 4.31 8.64 4.40C8.44 4.48 8.22 4.53 8.00 4.53C7.53 4.53 7.12 4.36 6.79 4.03C6.63 3.87 6.51 3.68 6.42 3.46C6.21 3.53 6.01 3.62 5.82 3.72C5.91 3.93 5.95 4.15 5.95 4.39C5.95 4.86 5.78 5.27 5.45 5.57C5.14 5.91 4.73 6.07 4.26 6.05C4.03 6.05 3.81 6.01 3.61 5.92C3.51 6.12 3.42 6.32 3.36 6.54C3.56 6.62 3.75 6.75 3.93 6.92C4.26 7.25 4.43 7.65 4.43 8.10C4.43 8.57 4.26 8.97 3.92 9.28C3.76 9.45 3.57 9.58 3.35 9.67C3.42 9.88 3.50 10.08 3.59 10.27C3.80 10.18 4.02 10.13 4.27 10.12C4.74 10.14 5.14 10.31 5.48 10.62C5.79 10.96 5.95 11.36 5.95 11.80C5.95 12.05 5.90 12.29 5.81 12.51C6.01 12.61 6.21 12.69 6.42 12.76ZM11.04 12.49C11.22 12.67 11.43 12.75 11.71 12.75C11.84 12.76 11.96 12.74 12.07 12.70C12.18 12.65 12.28 12.58 12.36 12.49C12.46 12.40 12.53 12.30 12.58 12.18C12.63 12.06 12.65 11.93 12.65 11.81C12.65 11.68 12.62 11.55 12.57 11.44C12.52 11.32 12.45 11.22 12.35 11.14L12.34 11.13C12.31 11.11 12.31 11.11 12.28 11.09C12.12 10.95 11.92 10.88 11.71 10.89C11.58 10.88 11.46 10.90 11.35 10.95C11.24 10.99 11.13 11.06 11.05 11.15C10.96 11.23 10.88 11.33 10.83 11.45C10.79 11.56 10.76 11.68 10.76 11.81C10.76 12.02 10.83 12.23 10.96 12.40L11.04 12.49ZM3.61 11.15C3.52 11.23 3.45 11.33 3.40 11.44C3.35 11.55 3.32 11.67 3.32 11.80C3.34 12.07 3.43 12.30 3.61 12.49C3.80 12.66 4.01 12.75 4.28 12.75C4.40 12.76 4.52 12.74 4.63 12.70C4.74 12.65 4.84 12.58 4.92 12.49L5.01 12.41C5.14 12.24 5.22 12.02 5.21 11.81C5.22 11.56 5.12 11.32 4.95 11.15C4.77 10.97 4.53 10.87 4.27 10.86C4.06 10.87 3.86 10.94 3.70 11.06L3.61 11.15ZM13.26 9.04C13.51 9.04 13.72 8.95 13.92 8.75C14.01 8.67 14.08 8.57 14.13 8.46C14.18 8.34 14.20 8.22 14.2 8.10C14.20 7.98 14.18 7.85 14.13 7.74C14.08 7.63 14.00 7.52 13.91 7.44C13.83 7.35 13.73 7.28 13.61 7.23C13.50 7.18 13.38 7.15 13.26 7.16C13.25 7.16 13.23 7.16 13.22 7.16C13.20 7.17 13.20 7.17 13.21 7.16C13.15 7.18 13.15 7.18 13.12 7.18C12.91 7.19 12.72 7.29 12.58 7.44C12.49 7.53 12.42 7.63 12.38 7.74C12.33 7.86 12.31 7.98 12.31 8.10C12.31 8.37 12.39 8.58 12.57 8.76C12.72 8.91 12.91 9.01 13.12 9.04H13.26H13.26ZM2.74 7.16C2.62 7.15 2.50 7.18 2.38 7.22C2.27 7.27 2.16 7.34 2.07 7.43C1.98 7.52 1.92 7.62 1.87 7.74C1.82 7.85 1.80 7.97 1.80 8.10C1.80 8.37 1.88 8.58 2.06 8.76C2.15 8.85 2.26 8.92 2.37 8.97C2.49 9.02 2.62 9.05 2.74 9.04L2.86 9.05C3.06 9.02 3.24 8.93 3.41 8.75C3.50 8.67 3.57 8.57 3.62 8.46C3.67 8.34 3.69 8.22 3.69 8.10C3.69 7.98 3.66 7.85 3.62 7.74C3.57 7.63 3.49 7.52 3.40 7.44C3.24 7.28 3.07 7.19 2.90 7.18C2.84 7.18 2.84 7.18 2.81 7.17L2.85 7.17C2.79 7.17 2.79 7.17 2.79 7.16L2.78 7.16C2.77 7.16 2.76 7.16 2.74 7.16ZM10.96 3.82L10.99 3.78L10.98 3.79L10.96 3.82C10.83 3.97 10.76 4.17 10.76 4.37C10.76 4.65 10.85 4.87 11.05 5.05C11.13 5.14 11.23 5.22 11.34 5.26C11.45 5.31 11.57 5.32 11.69 5.31H11.71C11.94 5.33 12.12 5.27 12.26 5.15L12.37 5.05C12.46 4.97 12.53 4.86 12.58 4.75C12.63 4.64 12.65 4.52 12.65 4.39C12.65 4.27 12.63 4.14 12.59 4.03C12.54 3.91 12.48 3.80 12.39 3.71C12.30 3.62 12.19 3.56 12.07 3.51C11.96 3.47 11.83 3.45 11.70 3.45C11.58 3.44 11.46 3.46 11.35 3.51C11.24 3.55 11.13 3.62 11.05 3.71C11.03 3.73 11.01 3.75 10.99 3.77C11.01 3.74 11.01 3.74 11.02 3.68L10.99 3.78L10.96 3.81V3.82ZM5.02 3.80C5.01 3.77 4.98 3.74 4.96 3.72C4.87 3.63 4.77 3.56 4.65 3.52C4.54 3.47 4.42 3.45 4.30 3.45C4.17 3.45 4.04 3.47 3.92 3.52C3.80 3.57 3.70 3.64 3.61 3.74C3.52 3.81 3.45 3.91 3.41 4.02C3.36 4.13 3.34 4.24 3.35 4.36C3.35 4.64 3.44 4.87 3.62 5.06C3.63 5.07 3.66 5.09 3.72 5.14L3.73 5.14L3.71 5.13C3.87 5.25 4.07 5.32 4.28 5.31C4.40 5.32 4.52 5.31 4.64 5.26C4.75 5.21 4.85 5.14 4.93 5.05C5.02 4.97 5.10 4.87 5.15 4.76C5.20 4.64 5.22 4.52 5.21 4.39C5.22 4.18 5.15 3.96 5.02 3.79C5.02 3.80 5.02 3.80 5.02 3.80H5.02ZM7.32 3.50C7.40 3.60 7.51 3.67 7.63 3.72C7.75 3.77 7.87 3.79 8.00 3.79C8.25 3.79 8.46 3.70 8.66 3.50C8.82 3.37 8.91 3.19 8.94 2.99V2.84C8.94 2.72 8.92 2.60 8.87 2.49C8.82 2.37 8.75 2.27 8.66 2.19C8.58 2.10 8.47 2.02 8.36 1.97C8.25 1.92 8.12 1.90 8.00 1.90C7.88 1.90 7.75 1.92 7.64 1.97C7.52 2.01 7.42 2.08 7.33 2.17C7.24 2.26 7.17 2.36 7.12 2.48C7.08 2.60 7.05 2.72 7.06 2.84V2.98C7.08 3.18 7.17 3.36 7.32 3.50Z" fill="#0F0D31"/></svg>