<svg width="16" height="17" viewBox="0 0 16 17" fill="none" xmlns="http://www.w3.org/2000/svg">
<path d="M9.17497 14.5404C9.02288 14.6983 8.84034 14.8238 8.63838 14.9092C8.43643 14.9947 8.21925 15.0382 7.99997 15.0374C7.53397 15.0374 7.12397 14.8664 6.79397 14.5344C6.51664 14.2599 6.34913 13.8936 6.32297 13.5044C5.98853 13.402 5.6647 13.2677 5.35597 13.1034C5.05497 13.3754 4.68297 13.5044 4.26297 13.4844C3.82597 13.4844 3.42897 13.3244 3.08997 13.0084C2.78047 12.6844 2.60199 12.2572 2.58897 11.8094C2.58897 11.3984 2.72697 11.0324 2.99897 10.7204C2.83697 10.4214 2.70897 10.1044 2.61597 9.77435C2.20906 9.74708 1.82658 9.57044 1.54197 9.27835C1.38535 9.12528 1.26191 8.94161 1.17933 8.73878C1.09676 8.53595 1.0568 8.31829 1.06197 8.09935C1.06197 7.65635 1.22197 7.25935 1.53497 6.92335C1.82166 6.62741 2.20786 6.4482 2.61897 6.42035C2.71101 6.09402 2.8416 5.7798 3.00797 5.48435C2.74873 5.17485 2.60832 4.78307 2.61197 4.37935C2.5986 4.16235 2.63426 3.94512 2.71632 3.74379C2.79838 3.54246 2.92472 3.36219 3.08597 3.21635C3.39597 2.88535 3.80897 2.71435 4.29397 2.71435C4.70297 2.71435 5.07197 2.84935 5.38997 3.11435C5.68697 2.95435 5.99797 2.82335 6.31997 2.72435C6.34697 2.33035 6.50397 1.97535 6.78697 1.67235C7.12197 1.33335 7.53197 1.16235 7.99997 1.16235C8.44997 1.16235 8.84897 1.33235 9.17997 1.66435C9.48197 1.96535 9.64997 2.32335 9.67897 2.72335C9.99297 2.82335 10.302 2.95335 10.603 3.11335C10.9072 2.84716 11.2998 2.70416 11.704 2.71235C12.164 2.71235 12.569 2.87035 12.912 3.18935C13.228 3.52735 13.387 3.93235 13.387 4.39535C13.387 4.81735 13.247 5.18535 12.977 5.48235C13.137 5.78235 13.267 6.09535 13.368 6.41835C13.763 6.43835 14.125 6.61135 14.434 6.91835C14.765 7.25035 14.936 7.65035 14.936 8.09935C14.936 8.56935 14.763 8.97335 14.429 9.28435C14.151 9.57263 13.7764 9.74818 13.377 9.77735C13.276 10.1074 13.144 10.4264 12.983 10.7304C13.249 11.0404 13.385 11.4014 13.385 11.8034C13.385 12.2894 13.213 12.7024 12.884 13.0084C12.573 13.3444 12.158 13.5084 11.695 13.4864C11.282 13.4864 10.918 13.3564 10.621 13.1024C10.3191 13.2647 10.0027 13.3986 9.67597 13.5024C9.64297 13.9104 9.47297 14.2624 9.17497 14.5404ZM7.05497 13.3544C7.05497 13.6254 7.13897 13.8364 7.31497 14.0124C7.40285 14.1053 7.50919 14.1788 7.62715 14.2282C7.74511 14.2776 7.8721 14.3019 7.99997 14.2994C8.25297 14.2994 8.46397 14.2094 8.66297 14.0094C8.75483 13.9276 8.82761 13.8266 8.87617 13.7136C8.92472 13.6006 8.94787 13.4783 8.94397 13.3554L8.94597 13.2574C8.91858 13.0426 8.81707 12.8442 8.65897 12.6964C8.57512 12.6053 8.4732 12.5328 8.35973 12.4834C8.24626 12.4339 8.12373 12.4087 7.99997 12.4094C7.72997 12.4094 7.50997 12.5014 7.32097 12.6894C7.17622 12.8421 7.08347 13.0367 7.05597 13.2454V13.3544H7.05497ZM6.42197 12.7614C6.50197 12.5514 6.62497 12.3574 6.78897 12.1784C6.94582 12.016 7.13408 11.8874 7.34228 11.8002C7.55049 11.713 7.77426 11.6692 7.99997 11.6714C8.44997 11.6714 8.84897 11.8414 9.17997 12.1734C9.35597 12.3484 9.48797 12.5444 9.57397 12.7584C9.77597 12.6884 9.97397 12.6034 10.167 12.5064C10.0691 12.285 10.0193 12.0454 10.021 11.8034C10.021 11.3534 10.191 10.9544 10.524 10.6234C10.6782 10.4682 10.8623 10.3459 11.0651 10.264C11.2679 10.182 11.4852 10.142 11.704 10.1464C11.948 10.1464 12.174 10.1934 12.383 10.2864C12.483 10.0864 12.567 9.88135 12.637 9.67335C12.4157 9.58327 12.2153 9.44884 12.048 9.27835C11.8931 9.12416 11.7711 8.9402 11.6893 8.73757C11.6075 8.53494 11.5676 8.31783 11.572 8.09935C11.572 7.65535 11.731 7.25835 12.044 6.92235C12.221 6.74535 12.417 6.61635 12.632 6.53635C12.5619 6.33079 12.4777 6.13031 12.38 5.93635C12.167 6.02635 11.937 6.06635 11.706 6.05135C11.4862 6.06682 11.2658 6.0322 11.0614 5.95009C10.857 5.86798 10.6739 5.74053 10.526 5.57735C10.194 5.26835 10.023 4.85535 10.023 4.36935C10.023 4.13735 10.069 3.91835 10.161 3.71635C9.97102 3.62019 9.77492 3.53667 9.57397 3.46635C9.48449 3.68139 9.34858 3.87399 9.17597 4.03035C9.02373 4.18839 8.84102 4.31392 8.63889 4.39934C8.43676 4.48477 8.2194 4.52832 7.99997 4.52735C7.53397 4.52735 7.12397 4.35735 6.79397 4.02535C6.63296 3.86612 6.50694 3.67505 6.42397 3.46435C6.21497 3.53435 6.01497 3.61935 5.82397 3.71835C5.90997 3.92535 5.95397 4.15135 5.95397 4.39335C5.95397 4.86335 5.77997 5.26735 5.45197 5.57335C5.13897 5.91035 4.72997 6.07335 4.26197 6.05135C4.03197 6.05135 3.81497 6.00735 3.61197 5.92135C3.50797 6.11635 3.42197 6.32235 3.35597 6.53735C3.56197 6.61735 3.75397 6.74535 3.92697 6.91835C4.25897 7.25035 4.42997 7.65035 4.42997 8.09935C4.42997 8.56935 4.25697 8.97335 3.92297 9.28435C3.76052 9.45039 3.56679 9.58259 3.35297 9.67335C3.41697 9.87935 3.49697 10.0794 3.59297 10.2714C3.79597 10.1844 4.01997 10.1334 4.27097 10.1214C4.73997 10.1424 5.14097 10.3074 5.47797 10.6234C5.79397 10.9604 5.95297 11.3574 5.95297 11.8044C5.95197 12.0544 5.90297 12.2894 5.80697 12.5064C6.00697 12.6064 6.21197 12.6914 6.42197 12.7614ZM11.045 12.4894C11.221 12.6654 11.432 12.7494 11.715 12.7494C11.8358 12.7601 11.9575 12.7422 12.0701 12.697C12.1827 12.6518 12.2831 12.5807 12.363 12.4894C12.458 12.4034 12.5328 12.2975 12.5823 12.1793C12.6317 12.061 12.6545 11.9334 12.649 11.8054C12.6497 11.6794 12.6237 11.5547 12.5727 11.4396C12.5216 11.3244 12.4468 11.2214 12.353 11.1374L12.339 11.1294C12.307 11.1094 12.307 11.1094 12.279 11.0874C12.1191 10.9524 11.9151 10.8812 11.706 10.8874C11.5841 10.8824 11.4625 10.903 11.349 10.9478C11.2355 10.9925 11.1327 11.0605 11.047 11.1474C10.956 11.2314 10.8836 11.3335 10.8343 11.4472C10.7851 11.5608 10.7601 11.6835 10.761 11.8074C10.7567 12.0219 10.8259 12.2315 10.957 12.4014L11.045 12.4894ZM3.60997 11.1464C3.52 11.2291 3.44813 11.3295 3.39891 11.4414C3.34969 11.5533 3.32417 11.6741 3.32397 11.7964C3.33697 12.0704 3.43297 12.2994 3.60797 12.4894C3.79597 12.6644 4.01097 12.7494 4.27797 12.7494C4.39771 12.7601 4.51829 12.7425 4.62998 12.698C4.74168 12.6535 4.84135 12.5834 4.92097 12.4934L5.00697 12.4104C5.1436 12.2387 5.2161 12.0247 5.21197 11.8054C5.21602 11.5606 5.1233 11.3241 4.95397 11.1474C4.76827 10.972 4.52521 10.87 4.26997 10.8604C4.05597 10.8714 3.85997 10.9404 3.69797 11.0584L3.60997 11.1464ZM13.255 9.04335C13.507 9.04335 13.717 8.95335 13.918 8.75335C14.01 8.67166 14.083 8.57073 14.1317 8.45772C14.1804 8.34471 14.2037 8.22237 14.2 8.09935C14.2007 7.97567 14.1757 7.85318 14.1264 7.73972C14.0772 7.62625 14.0048 7.52429 13.914 7.44035C13.8301 7.34981 13.7282 7.27772 13.6149 7.22865C13.5017 7.17959 13.3794 7.15463 13.256 7.15535C13.2453 7.15678 13.2346 7.15845 13.224 7.16035C13.198 7.16935 13.199 7.16935 13.209 7.16435C13.155 7.17835 13.155 7.17835 13.119 7.18135C12.912 7.19449 12.7178 7.28604 12.576 7.43735C12.4901 7.52501 12.4224 7.62883 12.377 7.74281C12.3315 7.85679 12.309 7.97865 12.311 8.10135C12.311 8.37235 12.395 8.58335 12.571 8.75935C12.717 8.9134 12.9108 9.0135 13.121 9.04335H13.256H13.255ZM2.74497 7.15535C2.6204 7.15319 2.49668 7.17612 2.38117 7.2228C2.26566 7.26947 2.16073 7.33892 2.07263 7.42702C1.98454 7.51511 1.91508 7.62004 1.86841 7.73555C1.82174 7.85106 1.7988 7.97479 1.80097 8.09935C1.80097 8.37135 1.88497 8.58135 2.06097 8.75835C2.14891 8.85078 2.25516 8.92386 2.37293 8.97293C2.4907 9.022 2.61741 9.04599 2.74497 9.04335L2.86497 9.04535C3.06197 9.01835 3.23597 8.92735 3.40897 8.75335C3.50065 8.67147 3.57324 8.57046 3.62162 8.45746C3.67 8.34446 3.69299 8.22221 3.68897 8.09935C3.68983 7.97574 3.66494 7.8533 3.61587 7.73984C3.5668 7.62638 3.49463 7.52438 3.40397 7.44035C3.23897 7.27535 3.07097 7.19335 2.89597 7.18035C2.83897 7.17635 2.83897 7.17635 2.81197 7.17035L2.85497 7.17435C2.79497 7.16635 2.79497 7.16635 2.78897 7.16435L2.78297 7.16135C2.77073 7.15723 2.75788 7.15521 2.74497 7.15535ZM10.963 3.81535L10.986 3.78435L10.985 3.78835L10.96 3.82035C10.8276 3.97179 10.7566 4.16725 10.761 4.36835C10.761 4.65335 10.851 4.86835 11.048 5.05335C11.1264 5.1443 11.2254 5.21529 11.3366 5.2605C11.4479 5.3057 11.5683 5.32382 11.688 5.31335H11.708C11.944 5.32535 12.122 5.27035 12.264 5.15335L12.369 5.04735C12.4608 4.96556 12.5336 4.8646 12.5822 4.75159C12.6307 4.63858 12.6539 4.51629 12.65 4.39335C12.6537 4.26785 12.6327 4.14283 12.5881 4.02546C12.5435 3.90809 12.4761 3.80068 12.39 3.70935C12.2983 3.62303 12.1906 3.55562 12.0729 3.51101C11.9552 3.46639 11.8298 3.44544 11.704 3.44935C11.583 3.44434 11.4623 3.4645 11.3496 3.50857C11.2368 3.55264 11.1345 3.61965 11.049 3.70535C11.0293 3.72658 11.011 3.74895 10.994 3.77235C11.011 3.73835 11.011 3.73835 11.018 3.67835L10.987 3.78235L10.963 3.81435V3.81535ZM5.02297 3.79935C5.00503 3.76949 4.9839 3.74166 4.95997 3.71635C4.87243 3.63059 4.76877 3.56302 4.65497 3.51754C4.54118 3.47205 4.4195 3.44956 4.29697 3.45135C4.16865 3.44582 4.04068 3.46857 3.92213 3.51799C3.80358 3.56742 3.69735 3.64231 3.61097 3.73735C3.52175 3.8137 3.45173 3.90996 3.40657 4.01835C3.3614 4.12675 3.34236 4.24424 3.35097 4.36135C3.35097 4.64435 3.43797 4.86735 3.61597 5.05735C3.62997 5.07135 3.65597 5.09135 3.71997 5.13835L3.72697 5.14435L3.70697 5.12735C3.87081 5.25356 4.07324 5.31926 4.27997 5.31335C4.40118 5.32377 4.52315 5.30559 4.63605 5.26025C4.74894 5.21492 4.84962 5.14371 4.92997 5.05235C5.02298 4.97042 5.09675 4.86895 5.14601 4.75521C5.19528 4.64147 5.21882 4.51825 5.21497 4.39435C5.2203 4.1769 5.15193 3.96403 5.02097 3.79035C5.02097 3.79635 5.02297 3.79835 5.02397 3.79935H5.02297ZM7.31597 3.50235C7.40374 3.59514 7.50991 3.6686 7.62769 3.71802C7.74547 3.76743 7.87226 3.79173 7.99997 3.78935C8.25297 3.78935 8.46397 3.69835 8.66397 3.49835C8.81501 3.36876 8.9144 3.18916 8.94397 2.99235V2.84435C8.94469 2.72091 8.91973 2.59866 8.87067 2.48538C8.8216 2.3721 8.74951 2.27027 8.65897 2.18635C8.57512 2.09532 8.4732 2.02278 8.35973 1.97337C8.24626 1.92395 8.12373 1.89874 7.99997 1.89935C7.8754 1.89719 7.75168 1.92012 7.63617 1.9668C7.52066 2.01347 7.41573 2.08292 7.32763 2.17102C7.23954 2.25911 7.17008 2.36404 7.12341 2.47955C7.07674 2.59506 7.0538 2.71879 7.05597 2.84335V2.97835C7.08011 3.17763 7.17189 3.36259 7.31597 3.50235Z" fill="#0F0D31"/>
</svg>
