<svg width="14" height="14" viewBox="0 0 14 14" fill="none" xmlns="http://www.w3.org/2000/svg">
<path d="M3.03461 0.5625L3.54633 0.879883L3.5473 0.880859C3.80956 1.04553 4.08642 1.18657 4.37347 1.30273L4.53851 1.36816C4.82391 1.46564 5.11527 1.54971 5.40863 1.61914L5.70355 1.68359C6.3314 1.81529 6.9478 1.99766 7.54633 2.22852C9.40681 2.95411 10.7209 4.16375 11.2787 5.67578L11.3793 5.9834H11.3803C11.5959 6.761 11.6291 7.57862 11.477 8.37109C11.3252 9.16202 10.9919 9.90713 10.5053 10.5488C10.4421 10.6426 10.4048 10.7515 10.3969 10.8643C10.5651 11.6043 10.5392 12.3758 10.3198 13.1025C10.2891 13.1997 10.2286 13.2865 10.1479 13.3486C10.0674 13.4104 9.96991 13.4453 9.86859 13.4502H9.86664C9.80398 13.4538 9.74095 13.4466 9.68109 13.4277H9.68011C9.5552 13.3863 9.45155 13.2975 9.39105 13.1807C9.33059 13.0634 9.31795 12.9259 9.35687 12.7998L9.41156 12.6074C9.51937 12.1745 9.53681 11.7237 9.46625 11.2822L9.20062 11.1973C8.60866 11.01 7.99629 10.8949 7.37738 10.8545L7.11176 10.8428H6.94672C6.63815 10.8112 6.33381 10.7454 6.03949 10.6494L5.74847 10.543C5.08687 10.2689 4.02007 9.6458 3.27484 8.28418C2.52958 6.9222 2.11205 4.83199 2.72406 1.6377L2.72504 1.63379L2.74066 1.56934C2.76265 1.46868 2.78809 1.34658 2.80707 1.25488L2.92035 0.492188L3.03461 0.5625ZM3.65863 2.08105C3.16739 4.82616 3.51572 6.59106 4.11469 7.72363C4.7215 8.87095 5.59139 9.38084 6.13031 9.60449C6.41898 9.72442 6.72363 9.80144 7.03461 9.83301H7.18793C7.84789 9.86101 8.50289 9.96166 9.14105 10.1309C8.7669 9.18376 8.23694 8.30558 7.56976 7.53516C7.18546 7.11752 6.76395 6.73452 6.31097 6.39258L6.30902 6.39062L6.0766 6.20215C5.64902 5.85705 5.28884 5.4354 5.01508 4.95898L5.01215 4.9541C4.95611 4.83882 4.94623 4.70622 4.9848 4.58398C5.02341 4.46177 5.10808 4.35908 5.22015 4.29688C5.33212 4.23484 5.46335 4.21818 5.58734 4.25C5.68044 4.27394 5.76479 4.32329 5.82953 4.39258L5.88715 4.46875L5.88812 4.4707C6.07961 4.79395 6.32368 5.08285 6.6098 5.3252L6.7348 5.42578L6.73676 5.42676L6.96722 5.61328L7.33051 5.90234C7.56826 6.10069 7.79703 6.31044 8.01605 6.5293L8.33734 6.86523L8.33929 6.86719L8.60004 7.18945C9.15872 7.90779 9.6233 8.69541 9.9848 9.53125C10.2594 9.06909 10.4439 8.55792 10.5248 8.02539C10.6139 7.43848 10.5772 6.83903 10.4164 6.26758L10.3578 6.08594C10.0344 5.15953 9.22214 3.95482 7.19476 3.1709C6.77924 3.01222 6.35458 2.87912 5.92328 2.77148L5.48969 2.67285C4.98585 2.57046 4.49139 2.42444 4.01215 2.23828L4.01117 2.2373L3.84125 2.16895L3.84027 2.16699C3.78209 2.14092 3.72124 2.11089 3.65863 2.08105Z" fill="black"/>
</svg>
