<svg width="14" height="15" viewBox="0 0 14 15" fill="none" xmlns="http://www.w3.org/2000/svg">
<path d="M5.81226 11.7165C6.1047 11.6549 7.87898 11.6549 8.17163 11.7165C8.42083 11.774 8.69097 11.9083 8.69116 12.2018C8.67667 12.4815 8.51255 12.7299 8.28589 12.8874C7.99195 13.1165 7.64649 13.2618 7.28589 13.3141C7.08658 13.3399 6.89036 13.3406 6.698 13.3141C6.33691 13.2618 5.99226 13.1161 5.69897 12.8864C5.47171 12.7295 5.30722 12.4815 5.29272 12.2018C5.29292 11.9083 5.56305 11.774 5.81226 11.7165ZM7.02612 1.66667C8.23955 1.66667 9.47929 2.24263 10.2156 3.19792C10.6932 3.81298 10.9128 4.42734 10.9128 5.38249V5.63152C10.9129 6.36395 11.1059 6.79607 11.532 7.29362C11.8549 7.66023 11.9587 8.13075 11.9587 8.64128C11.9587 9.15114 11.7905 9.63502 11.4548 10.028C11.0154 10.4991 10.3959 10.7999 9.76343 10.8522C8.84697 10.9303 7.92994 10.9967 7.00073 10.9967C6.07081 10.9967 5.15365 10.9568 4.23706 10.8522C3.60405 10.7999 2.98448 10.4991 2.54565 10.028C2.21005 9.63503 2.04181 9.15113 2.04175 8.64128C2.04175 8.13091 2.14544 7.66018 2.46753 7.29362C2.90692 6.79607 3.08857 6.36395 3.08862 5.63152V5.38249C3.08865 4.40145 3.3329 3.75952 3.83667 3.13152C4.58572 2.21573 5.78656 1.66667 6.97437 1.66667H7.02612Z" fill="#FF5121"/>
</svg>
