<svg t="1751101222688" class="icon" viewBox="0 0 1024 1024" version="1.1" xmlns="http://www.w3.org/2000/svg" p-id="1709" width="200" height="200"><path d="M797.27 350.63l-107.98-106.44c-4.52-4.46-10.73-7.21-17.59-7.21h-155.46c0.13-1.05 0.33-2.13 0.33-3.23-0.01-49.00-41.33-88.84-92.16-88.84-50.80 0-92.13 39.85-92.13 88.85v3.23h-87.99c-13.82 0-25.02 11.23-25.02 25.05v595.70c0 13.84 11.20 25.05 25.02 25.05h535.40c13.83-0.01 25.04-11.22 25.04-25.05 0-0.00 0-0.00 0-0.01v-489.29c0-6.69-2.69-13.12-7.46-17.81zM384.13 233.75c0-20.42 18.07-37.01 40.29-37.01 22.21 0 40.31 16.59 40.31 37.01 0 1.11 0.18 2.18 0.32 3.23h-80.92v-3.23zM754.64 832.71h-485.29v-545.62h62.94v180.61c0 48.97 41.33 88.83 92.14 88.83 50.82 0 92.16-39.86 92.16-88.83v-103.91c0-14.32-11.61-25.90-25.94-25.90-0.01 0-0.01 0-0.01 0-14.29 0-25.88 11.59-25.88 25.88 0 0.01 0 0.01 0 0.02v103.91c0 20.40-18.10 36.98-40.31 36.98s-40.28-16.58-40.28-36.98v-180.61h272.55v81.62c0.00 8.29 6.72 15.01 15.01 15.01h82.93l-0.01 449.00z" fill="#e8ad56" p-id="1710"></path></svg>