<svg width="14" height="15" viewBox="0 0 14 15" fill="none" xmlns="http://www.w3.org/2000/svg">
<path fill-rule="evenodd" clip-rule="evenodd" d="M9.70391 8.57974L7.98599 9.56849C7.68266 9.46349 6.81057 9.11174 6.01316 8.31432C5.26474 7.56591 4.95207 6.73932 4.86049 6.45057L5.85157 4.72916L3.69499 1.76582L3.46749 1.89999C2.54466 2.44132 1.86682 3.11799 1.33657 4.03032L1.30274 4.12307C1.00291 5.72316 1.91816 8.08216 3.58007 9.99316C5.38316 12.0663 7.72291 13.2342 10.0469 13.2342C10.1519 13.2342 10.2569 13.2324 10.3619 13.2272L10.4313 13.2242L10.4914 13.1904C11.4259 12.6666 12.1049 11.9876 12.6282 11.0531L12.7536 10.8285L9.70391 8.57974Z" fill="#FF9421"/>
</svg>
