<svg width="14" height="14" viewBox="0 0 14 14" fill="none" xmlns="http://www.w3.org/2000/svg">
<path fill-rule="evenodd" clip-rule="evenodd" d="M3.44152 10.5819H4.31652V9.65439H3.44152V10.5819ZM1.45819 12.5419H6.30569V7.69439H1.45819V12.5419Z" fill="#1F1722" fill-opacity="0.5"/>
<path fill-rule="evenodd" clip-rule="evenodd" d="M9.68319 10.5819H10.5582V9.65439H9.68319V10.5819ZM7.69403 12.5419H12.5415V7.69439H7.69403V12.5419Z" fill="#1F1722" fill-opacity="0.5"/>
<path fill-rule="evenodd" clip-rule="evenodd" d="M8.57153 2.33308H9.98962V1.45808H7.69653V4.73583H8.57153V2.33308Z" fill="#1F1722" fill-opacity="0.5"/>
<path fill-rule="evenodd" clip-rule="evenodd" d="M7.69694 6.30255H9.86694V5.42755H7.69694V6.30255Z" fill="#1F1722" fill-opacity="0.5"/>
<path fill-rule="evenodd" clip-rule="evenodd" d="M10.6739 1.45808V2.33308H11.6667V3.32533H12.5417V1.45808H10.6739Z" fill="#1F1722" fill-opacity="0.5"/>
<path fill-rule="evenodd" clip-rule="evenodd" d="M11.6665 5.42743H10.6737V6.30243H12.5415V4.00993H11.6665V5.42743Z" fill="#1F1722" fill-opacity="0.5"/>
<path fill-rule="evenodd" clip-rule="evenodd" d="M9.05179 2.83749V5.00691H10.9937V4.13191H9.92679V2.83749H9.05179Z" fill="#1F1722" fill-opacity="0.5"/>
<path fill-rule="evenodd" clip-rule="evenodd" d="M11.3418 2.83177L10.4668 2.8376V3.7126H11.3418V2.83177Z" fill="#1F1722" fill-opacity="0.5"/>
<path fill-rule="evenodd" clip-rule="evenodd" d="M3.44152 4.34605H4.31652V3.41271H3.44152V4.34605ZM1.45819 6.30021H6.30569V1.45855H1.45819V6.30021Z" fill="#1F1722" fill-opacity="0.5"/>
</svg>
