<svg width="14" height="15" viewBox="0 0 14 15" fill="none" xmlns="http://www.w3.org/2000/svg">
<path d="M9.52094 2.27286C9.73377 2.27277 9.9435 2.32382 10.1325 2.42171C10.3215 2.51959 10.4842 2.66146 10.6069 2.83535L10.6459 2.89005L12.5258 5.87411C12.8347 6.36688 12.7873 7.00317 12.4087 7.44445L12.3619 7.49636L7.45076 12.6654C7.33684 12.7851 7.18861 12.858 7.03565 12.884H7.03543C6.99639 12.8906 6.95713 12.8941 6.91809 12.8945V12.8823L6.91744 8.6651V8.33902C7.84077 8.33859 8.69566 7.85334 9.16933 7.06066C9.28303 6.86458 9.21824 6.61337 9.02367 6.49689C8.82931 6.3804 8.57702 6.44154 8.45775 6.6344C8.13403 7.17651 7.54901 7.50902 6.91744 7.50924H6.91444C6.60454 7.50895 6.29995 7.42871 6.03012 7.27629C5.76029 7.12386 5.53435 6.9044 5.37414 6.63912C5.25379 6.44754 5.00215 6.38791 4.80843 6.50482C4.61493 6.62195 4.55057 6.87231 4.66384 7.06796C5.13623 7.85269 6.00227 8.33388 6.91744 8.33881L6.91809 12.8945C6.87819 12.8932 6.81833 12.8881 6.77843 12.8803H6.778C6.64435 12.8544 6.51392 12.7924 6.40923 12.6939L4.04107 10.2015L1.46954 7.49636C1.06838 7.07418 0.989005 6.43939 1.27433 5.93139L1.30822 5.87669L3.18554 2.89262C3.2997 2.71262 3.45518 2.56248 3.63906 2.45468C3.82294 2.34688 4.0299 2.28455 4.24273 2.27286H9.52094ZM6.91744 8.67197L6.91809 12.8945H6.91744V8.67197Z" fill="#050842"/>
</svg>
