<svg width="14" height="15" viewBox="0 0 14 15" fill="none" xmlns="http://www.w3.org/2000/svg">
<path d="M10.178 6.96334C10.1015 6.4953 9.92182 6.05014 9.65204 5.6601C9.38226 5.27006 9.02911 4.9449 8.61817 4.70817C7.17238 3.87371 5.34684 4.29342 4.40154 5.62984L4.39863 5.62809C4.36438 5.70124 4.31531 5.76649 4.25454 5.8197C4.19377 5.87292 4.12261 5.91294 4.04557 5.93723C3.96853 5.96152 3.88729 5.96955 3.80698 5.96082C3.72668 5.95209 3.64906 5.92678 3.57904 5.8865C3.50792 5.84532 3.44629 5.78957 3.3982 5.72292C3.35011 5.65627 3.31664 5.58021 3.29999 5.49973C3.28333 5.41925 3.28386 5.33615 3.30154 5.25589C3.31922 5.17562 3.35365 5.1 3.40259 5.03396C4.68125 3.14834 7.21234 2.54079 9.20909 3.69375C10.7739 4.59704 11.5666 6.32575 11.3578 8.01771H11.354C11.3475 8.11658 11.316 8.21217 11.2623 8.29546C11.2086 8.37874 11.1346 8.44696 11.0472 8.49367C10.9598 8.54038 10.862 8.56404 10.7629 8.56241C10.6639 8.56079 10.5668 8.53393 10.481 8.48438L8.95825 7.60471C8.82818 7.5256 8.73423 7.39874 8.6965 7.25125C8.65876 7.10376 8.68024 6.94736 8.75635 6.81551C8.83245 6.68365 8.95713 6.58681 9.10371 6.54571C9.2503 6.5046 9.40715 6.52249 9.54071 6.59554L10.178 6.96363V6.96334ZM3.83163 8.00896C3.90677 8.47925 4.086 8.92683 4.35621 9.31901C4.62643 9.71119 4.98082 10.0381 5.3935 10.2758C6.839 11.1103 8.66454 10.6908 9.60984 9.35442L9.6215 9.36113L9.63288 9.34129C9.67106 9.27484 9.72197 9.21656 9.78268 9.16977C9.84339 9.12299 9.91272 9.08862 9.98671 9.06863C10.0607 9.04865 10.1379 9.04343 10.2139 9.05328C10.2899 9.06313 10.3633 9.08786 10.4297 9.12604C10.5109 9.17293 10.5797 9.23871 10.6301 9.3178C10.6805 9.39689 10.7111 9.48697 10.7193 9.58041C10.7276 9.67385 10.7131 9.76788 10.6773 9.85456C10.6414 9.94124 10.5852 10.018 10.5134 10.0783C9.20879 11.8607 6.75063 12.4149 4.80259 11.2902C3.25238 10.3954 2.46109 8.68854 2.65242 7.01C2.64911 6.90619 2.67361 6.80337 2.72338 6.7122C2.77314 6.62103 2.84638 6.54482 2.93549 6.49146C3.02461 6.4381 3.12637 6.40952 3.23023 6.40869C3.3341 6.40787 3.4363 6.43482 3.52625 6.48675L5.04904 7.36642C5.17912 7.44553 5.27307 7.57239 5.3108 7.71988C5.34853 7.86737 5.32705 8.02377 5.25095 8.15562C5.17485 8.28748 5.05017 8.38432 4.90359 8.42542C4.757 8.46653 4.60015 8.44864 4.46659 8.37559L3.83163 8.00896Z" fill="#746F75"/>
</svg>
