<svg width="15" height="15" viewBox="0 0 15 15" fill="none" xmlns="http://www.w3.org/2000/svg">
<path fill-rule="evenodd" clip-rule="evenodd" d="M1.33325 7.50877C1.33325 4.43583 3.78909 1.66667 7.17825 1.66667C10.4916 1.66667 12.9999 4.38325 12.9999 7.49124C12.9999 11.0958 10.0599 13.3333 7.16658 13.3333C6.20992 13.3333 5.14825 13.0763 4.29659 12.5739C3.99909 12.3928 3.74825 12.2584 3.42742 12.3635L2.24909 12.7141C1.95159 12.8075 1.68325 12.5739 1.77075 12.2584L2.16159 10.9498C2.22575 10.7687 2.21409 10.5759 2.12075 10.424C1.61909 9.50092 1.33325 8.49024 1.33325 7.50877ZM6.40825 7.50877C6.40825 7.92356 6.74075 8.25656 7.15492 8.2624C7.56909 8.2624 7.90159 7.92356 7.90159 7.51461C7.90159 7.09982 7.56909 6.76682 7.15492 6.76682C6.74659 6.76098 6.40825 7.09982 6.40825 7.50877ZM9.09742 7.51461C9.09742 7.92356 9.42992 8.2624 9.84409 8.2624C10.2583 8.2624 10.5908 7.92356 10.5908 7.51461C10.5908 7.09982 10.2583 6.76682 9.84409 6.76682C9.42992 6.76682 9.09742 7.09982 9.09742 7.51461ZM4.46575 8.2624C4.05742 8.2624 3.71909 7.92356 3.71909 7.51461C3.71909 7.09982 4.05159 6.76682 4.46575 6.76682C4.87992 6.76682 5.21242 7.09982 5.21242 7.51461C5.21242 7.92356 4.87992 8.25656 4.46575 8.2624Z" fill="#FF9421"/>
</svg>
