<svg width="20" height="20" viewBox="0 0 20 20" fill="none" xmlns="http://www.w3.org/2000/svg">
<path d="M11.6217 1.74499C11.1693 1.35944 10.5944 1.14767 10 1.14767C9.40567 1.14767 8.83074 1.35944 8.37838 1.74499L7.25504 2.70249C7.12162 2.81631 6.95569 2.88513 6.78088 2.89916L5.31005 3.01583C4.71757 3.06308 4.16131 3.31987 3.74103 3.74015C3.32076 4.16042 3.06396 4.71668 3.01671 5.30916L2.90004 6.78083C2.88578 6.95574 2.81666 7.12168 2.70254 7.25499L1.74588 8.37833C1.36033 8.83069 1.14856 9.40562 1.14856 9.99999C1.14856 10.5944 1.36033 11.1693 1.74588 11.6217L2.70254 12.745C2.81636 12.8784 2.88518 13.0443 2.89921 13.2192L3.01671 14.69C3.06396 15.2825 3.32076 15.8387 3.74103 16.259C4.16131 16.6793 4.71757 16.9361 5.31005 16.9833L6.78088 17.1C6.95608 17.1141 7.12233 17.1832 7.25588 17.2975L8.37838 18.2542C8.83074 18.6397 9.40567 18.8515 10 18.8515C10.5944 18.8515 11.1693 18.6397 11.6217 18.2542L12.745 17.2975C12.8787 17.1835 13.0449 17.1147 13.22 17.1008L14.6909 16.9833C15.2834 16.9361 15.8396 16.6793 16.2599 16.259C16.6802 15.8387 16.937 15.2825 16.9842 14.69L17.1009 13.2192C17.1147 13.0441 17.1836 12.8778 17.2975 12.7442L18.255 11.6217C18.6406 11.1693 18.8524 10.5944 18.8524 9.99999C18.8524 9.40562 18.6406 8.83069 18.255 8.37833L17.2975 7.25499C17.1836 7.12134 17.1147 6.9551 17.1009 6.77999L16.9842 5.30916C16.937 4.71668 16.6802 4.16042 16.2599 3.74015C15.8396 3.31987 15.2834 3.06308 14.6909 3.01583L13.2192 2.89916C13.0444 2.88513 12.8785 2.81631 12.745 2.70249L11.6217 1.74499ZM12.3567 6.46416L13.5359 7.64249L7.64338 13.5358L6.46421 12.3567L12.3567 6.46499V6.46416ZM8.52671 8.52666C8.4114 8.64605 8.27347 8.74128 8.12097 8.80679C7.96846 8.8723 7.80444 8.90678 7.63846 8.90822C7.47249 8.90966 7.30789 8.87804 7.15427 8.81519C7.00065 8.75234 6.86108 8.65952 6.74372 8.54215C6.62635 8.42479 6.53354 8.28522 6.47068 8.1316C6.40783 7.97798 6.37621 7.81338 6.37765 7.64741C6.37909 7.48143 6.41357 7.31741 6.47908 7.1649C6.5446 7.0124 6.63982 6.87447 6.75921 6.75916C6.99496 6.53146 7.31072 6.40547 7.63846 6.40832C7.96621 6.41117 8.27973 6.54263 8.51149 6.77439C8.74325 7.00615 8.87471 7.31966 8.87755 7.64741C8.8804 7.97515 8.75441 8.29091 8.52671 8.52666ZM11.4734 13.2408C11.352 13.126 11.2548 12.9881 11.1876 12.8351C11.1204 12.6821 11.0846 12.5172 11.0823 12.3502C11.0799 12.1831 11.111 12.0173 11.1739 11.8625C11.2367 11.7076 11.3299 11.567 11.448 11.4488C11.5661 11.3307 11.7068 11.2374 11.8615 11.1745C12.0163 11.1116 12.1822 11.0803 12.3492 11.0826C12.5163 11.0849 12.6812 11.1207 12.8342 11.1878C12.9872 11.2549 13.1252 11.352 13.24 11.4733C13.4608 11.7103 13.581 12.0237 13.5753 12.3475C13.5696 12.6714 13.4384 12.9803 13.2094 13.2094C12.9804 13.4384 12.6714 13.5696 12.3476 13.5753C12.0237 13.581 11.7103 13.4608 11.4734 13.24V13.2408Z" fill="url(#paint0_linear_15899_6082)"/>
<defs>
<linearGradient id="paint0_linear_15899_6082" x1="10.0005" y1="1.14767" x2="10.0005" y2="18.8515" gradientUnits="userSpaceOnUse">
<stop stop-color="#FFC58A"/>
<stop offset="1" stop-color="#FF6D19"/>
</linearGradient>
</defs>
</svg>
