<svg width="26" height="27" viewBox="0 0 26 27" fill="none" xmlns="http://www.w3.org/2000/svg">
<path opacity="0.2" d="M13 0.5C20.1797 0.5 26 6.3203 26 13.5C26 20.6797 20.1797 26.5 13 26.5C5.8203 26.5 0 20.6797 0 13.5C0 6.3203 5.8203 0.5 13 0.5ZM13.1953 7.65039C13.0653 7.58539 12.9351 7.58539 12.8701 7.65039C12.7401 7.65039 12.6749 7.71479 12.5449 7.84473L12.4805 7.91016L7.7998 12.5898C7.40984 12.9798 7.40987 13.5651 7.7998 13.9551C8.1898 14.3451 8.77504 14.3451 9.16504 13.9551L12.0898 11.0303V18.7002C12.025 19.2201 12.4801 19.6748 13 19.6748C13.5199 19.6748 13.9745 19.2201 13.9746 18.7002V11.0303L16.9004 13.9551C17.2903 14.3448 17.8747 14.3448 18.2646 13.9551C18.6546 13.5651 18.6546 12.9798 18.2646 12.5898L13.585 7.91016C13.3901 7.71531 13.3251 7.6505 13.1953 7.65039Z" fill="#2A2A2A"/>
</svg>
