<svg t="1767065034590" class="icon" viewBox="0 0 1024 1024" version="1.1" xmlns="http://www.w3.org/2000/svg" p-id="6965" width="200" height="200"><path d="M491.845818 46.545455a167.703273 167.703273 0 0 1 163.421091 205.451636l81.780364 59.298909a167.703273 167.703273 0 1 1 93.556363 314.088727l-27.136 83.409455a167.703273 167.703273 0 1 1-250.973091 191.767273H457.169455a167.749818 167.749818 0 1 1-271.825455-175.802182l-32.302545-99.560728A167.703273 167.703273 0 1 1 247.621818 310.690909l80.802909-58.693818A167.703273 167.703273 0 0 1 491.845818 46.545455z m220.439273 724.386909a78.661818 78.661818 0 1 0 0 157.323636 78.661818 78.661818 0 0 0 0-157.323636z m-414.906182 0a78.661818 78.661818 0 1 0 0 157.323636 78.661818 78.661818 0 0 0 0-157.323636z m194.466909-388.980364A167.191273 167.191273 0 0 1 371.432727 330.891636l-58.833454 42.728728a167.703273 167.703273 0 0 1-71.214546 235.240727l24.715637 75.915636a167.749818 167.749818 0 0 1 194.653091 126.743273h88.203636a167.749818 167.749818 0 0 1 163.374545-129.629091l6.237091 0.139636 24.110546-74.100363a167.703273 167.703273 0 0 1-70.004364-233.285818l-60.276364-43.752728a167.191273 167.191273 0 0 1-120.506181 51.060364z m-324.142545-2.466909a78.661818 78.661818 0 1 0 0 157.323636 78.661818 78.661818 0 0 0 0-157.323636z m650.379636 0a78.661818 78.661818 0 1 0 0 157.323636 78.661818 78.661818 0 0 0 0-157.323636z m-326.237091-243.898182a78.661818 78.661818 0 1 0 0 157.323636 78.661818 78.661818 0 0 0 0-157.323636z" fill="black" p-id="6966"></path></svg>