<svg width="14" height="14" viewBox="0 0 14 14" fill="none" xmlns="http://www.w3.org/2000/svg">
<path d="M10.468 8.47729C10.468 7.99338 10.206 7.22465 9.55887 6.12146C9.30992 5.69742 9.01864 5.24816 8.6907 4.78076V4.77991C8.28827 4.2083 7.86618 3.65078 7.42606 3.10767L7.4252 3.10681C7.36248 3.0292 7.30013 2.9559 7.24149 2.88464C7.18042 2.95877 7.11813 3.0321 7.05777 3.10681L7.05692 3.10767C6.61669 3.65091 6.19393 4.20816 5.79141 4.77991L5.79227 4.78076C5.46424 5.24829 5.17276 5.69766 4.9241 6.12146C4.27693 7.22466 4.01492 7.99338 4.01492 8.47729C4.01503 10.3296 5.4769 11.7996 7.24149 11.7996V12.6746L7.03043 12.6686C4.93128 12.5598 3.25111 10.8372 3.14505 8.69263L3.13992 8.47729C3.13992 7.83653 3.42275 7.03522 3.93546 6.09155L4.16959 5.67798C4.36664 5.34214 4.58748 4.99453 4.8284 4.63806L5.0762 4.27832C5.49033 3.69003 5.92378 3.11547 6.37674 2.55652C6.5569 2.33352 6.74075 2.11305 6.92703 1.89514L6.97061 1.84473L7.24149 1.5354L7.51236 1.84473L7.55594 1.89514C7.59071 1.93589 7.63181 1.98318 7.67728 2.03699C7.80675 2.19022 7.95111 2.36459 8.10623 2.55652C8.55919 3.11546 8.99264 3.69003 9.40677 4.27832C9.74553 4.76114 10.0504 5.23006 10.3134 5.67798C10.9732 6.80268 11.343 7.74496 11.343 8.47729L11.3379 8.69263C11.2283 10.9086 9.4379 12.6746 7.24149 12.6746V11.7996C9.00593 11.7996 10.4679 10.3295 10.468 8.47729Z" fill="black"/>
<path d="M7.24148 11.4248C5.66102 11.4248 4.37994 10.1391 4.37994 8.55314C4.37994 6.96733 5.86711 7.77031 7.24148 8.55314C8.62152 9.33929 10.103 6.96733 10.103 8.55314C10.103 10.1391 8.82179 11.4248 7.24133 11.4248H7.24148Z" fill="black"/>
</svg>
