<svg width="14" height="14" viewBox="0 0 14 14" fill="none" xmlns="http://www.w3.org/2000/svg">
<path d="M8.75317 8.80505C9.04781 8.8422 9.7044 8.83817 10.0012 8.79822C10.4421 8.73782 10.8392 8.64529 11.1301 8.53357L11.2502 8.48181C11.5153 8.35866 11.6902 8.19822 11.8079 7.96228H11.8088C11.9468 7.68493 11.9572 7.40726 11.8508 7.04919L11.7981 6.89001C11.4595 5.95411 10.8847 4.80412 10.4827 4.25623C10.2146 3.89224 9.96548 3.67762 9.6897 3.60583C9.4368 3.53983 9.18569 3.61584 8.92798 3.80896L8.927 3.80994C8.79766 3.90809 8.70852 4.00083 8.54517 4.20642V4.2074C8.53006 4.22627 8.5147 4.24373 8.50122 4.26013L8.37915 4.04041C7.71822 2.88867 7.08269 2.20223 6.43774 1.99353C6.20764 1.91934 5.94859 1.9059 5.71802 1.95349H5.71704C5.3529 2.0315 5.01178 2.2418 4.64282 2.62634C4.27466 3.01014 3.87349 3.57218 3.38892 4.36072C3.06985 4.88129 2.6021 5.74952 2.35278 6.28455C2.29612 6.40615 2.22358 6.56078 2.19263 6.6283L2.08813 6.86755C2.06044 6.93777 2.03921 7.00072 2.02368 7.06091C1.992 7.18404 1.98443 7.29305 1.9895 7.42419V7.42517C1.9953 7.56259 2.00577 7.63023 2.03833 7.72791L2.09399 7.8656C2.24146 8.17074 2.50542 8.36115 2.8772 8.44177L2.87817 8.44275C2.98876 8.46574 3.08261 8.46911 3.44556 8.46912H3.44653C3.80629 8.46806 3.93144 8.46436 4.22388 8.42126L4.58813 8.36365L5.07544 8.29041C5.5167 8.23153 5.82986 8.21639 6.11646 8.23669C6.53702 8.26684 6.93591 8.34177 7.35278 8.47205V8.47302C7.44842 8.50213 7.6079 8.5516 7.70728 8.5824C8.03147 8.68433 8.37945 8.75948 8.75317 8.80603V8.80505ZM9.45532 7.96228C8.86766 7.97591 8.4497 7.91299 7.82349 7.70837C7.33446 7.55004 7.02518 7.47298 6.63892 7.41638C5.99802 7.32287 5.44666 7.34516 4.54517 7.49353C3.92683 7.59612 3.59663 7.62286 3.24536 7.60388C3.12408 7.59757 3.05579 7.59081 3.01099 7.58044C2.97256 7.57149 2.95381 7.56044 2.93091 7.54041C2.89976 7.51314 2.88156 7.48843 2.87036 7.46228C2.85897 7.43549 2.85183 7.40111 2.85181 7.35193C2.85246 7.31129 2.85515 7.2917 2.8645 7.26111C2.87556 7.22506 2.89632 7.1743 2.94067 7.07361C3.19532 6.50071 3.74628 5.44998 4.08423 4.88904C4.59606 4.04482 5.03775 3.43725 5.34985 3.14392L5.35083 3.14294C5.44461 3.05391 5.54347 2.97679 5.63403 2.91833C5.7257 2.85923 5.80469 2.82237 5.86157 2.80896H5.8606C5.94442 2.79007 6.0784 2.7954 6.16431 2.82166L6.2356 2.84802C6.40745 2.92089 6.6046 3.07391 6.82153 3.31482C7.06771 3.58824 7.3329 3.96665 7.61157 4.44373C7.83101 4.82188 8.14613 5.44686 8.36646 5.94568C8.42265 6.07383 8.45407 6.14486 8.47778 6.18884C8.50512 6.23945 8.52554 6.2608 8.55493 6.28943H8.55591C8.59398 6.32598 8.63122 6.35564 8.67603 6.37634C8.72083 6.39695 8.7678 6.40585 8.82056 6.41052L8.88892 6.41248C9.04494 6.40323 9.18113 6.3102 9.24927 6.16345H9.24829C9.27849 6.09891 9.29485 6.03604 9.28931 5.96326C9.28393 5.89362 9.2591 5.82119 9.22095 5.73767C9.18698 5.66267 9.10826 5.492 9.04712 5.35583L9.04614 5.35486C9.01516 5.28737 8.988 5.22393 8.96802 5.17712C8.96069 5.15997 8.95429 5.14505 8.94946 5.13318C8.95643 5.12163 8.96525 5.10664 8.97681 5.08923C9.00641 5.04468 9.04839 4.98632 9.09399 4.92419C9.18609 4.79873 9.29188 4.66351 9.35083 4.59998C9.42259 4.52204 9.4649 4.49221 9.49146 4.48376C9.50528 4.47939 9.52079 4.47826 9.55786 4.5072C9.62328 4.55759 9.71479 4.66601 9.82446 4.82654C9.93256 4.9848 10.0548 5.18651 10.1799 5.41638C10.4301 5.87591 10.6947 6.44374 10.9055 6.99255V6.99353C10.9825 7.19295 11.0238 7.30725 11.0413 7.38611C11.0572 7.45816 11.0523 7.49678 11.0383 7.54529L11.011 7.59998C10.9721 7.65213 10.8912 7.70087 10.7073 7.76013H10.7063C10.3188 7.88649 9.91658 7.9513 9.45532 7.96228ZM7.16528 10.1547C8.42729 10.5466 9.50268 10.5484 10.6848 10.1595C10.8977 10.0893 11.1476 9.99538 11.3577 9.90955C11.4627 9.86663 11.5594 9.82512 11.636 9.78943C11.7096 9.75514 11.7732 9.72302 11.8079 9.69763L11.887 9.62439C12.0479 9.43546 12.0236 9.14192 11.8098 8.98767C11.779 8.96548 11.7498 8.94577 11.7112 8.93396C11.6931 8.92846 11.6737 8.9245 11.6536 8.92224L11.5891 8.91833C11.5447 8.91622 11.5075 8.91497 11.4719 8.92029C11.4533 8.92308 11.4361 8.92854 11.4192 8.93396L11.3674 8.95349C10.9799 9.12154 10.8709 9.16495 10.6614 9.24353C10.0816 9.46059 9.61598 9.55838 9.08813 9.57751V9.57849C8.54864 9.59613 8.04193 9.51936 7.41919 9.32556C6.72109 9.10732 6.30959 9.01417 5.78052 8.95349H5.77954C5.67487 8.9418 5.46122 8.93592 5.24829 8.93591C5.03432 8.93592 4.81215 8.94195 4.69067 8.95349H4.6897C4.45038 8.97743 4.07196 9.03201 3.79126 9.08533C3.50738 9.13791 3.13038 9.2202 2.81372 9.29626C2.65561 9.33425 2.51192 9.37141 2.40161 9.40173C2.34647 9.41689 2.29789 9.43092 2.26099 9.44275C2.22787 9.45338 2.19467 9.46509 2.17407 9.47693C1.98682 9.58543 1.90812 9.82422 2.00024 10.0209H2.00122C2.0846 10.1984 2.27721 10.3083 2.46802 10.2738H2.46899C2.51392 10.266 2.71298 10.2178 2.90942 10.1683C4.11092 9.86414 4.94771 9.75411 5.58813 9.81384L5.95142 9.85681C6.30799 9.91022 6.66272 9.99891 7.16528 10.1547ZM7.88989 11.9554C9.1355 12.2072 10.1269 12.0694 11.5012 11.4652C11.6631 11.394 11.7705 11.343 11.843 11.2943C11.9209 11.242 11.9625 11.1904 11.9944 11.1215L12.0149 11.0677C12.1029 10.8009 11.9326 10.5238 11.6399 10.5072C11.6133 10.5056 11.5848 10.5058 11.5598 10.5072C11.5382 10.5084 11.5076 10.5108 11.4846 10.5189C11.461 10.5274 11.3478 10.5769 11.2346 10.6273C10.3853 11.0063 9.86755 11.1536 9.2522 11.1986C8.77203 11.2331 8.29889 11.1815 7.6936 11.0199L7.42603 10.9437C6.80275 10.7579 6.49443 10.6859 6.05298 10.6224C5.3056 10.5149 4.63516 10.5487 3.65845 10.7406C3.40183 10.7911 3.06296 10.8694 2.77661 10.9408C2.63356 10.9765 2.50235 11.0108 2.40063 11.0394C2.35009 11.0537 2.30564 11.0663 2.27075 11.0775C2.23805 11.0881 2.20738 11.0989 2.18774 11.1088C2.10998 11.1482 2.04886 11.2221 2.01099 11.2982C1.9732 11.3745 1.95196 11.4668 1.96509 11.5521L1.97681 11.6039C2.01156 11.7242 2.09785 11.8297 2.21118 11.8812C2.27572 11.9111 2.3389 11.921 2.42896 11.9115C2.51379 11.9025 2.62835 11.8754 2.79712 11.8304C3.9811 11.5154 4.85483 11.3931 5.54224 11.4408C6.01848 11.4737 6.45363 11.5598 7.05493 11.7367L7.52954 11.8705C7.66752 11.9067 7.78699 11.9349 7.88989 11.9554Z" fill="black"/>
</svg>
