<svg width="14" height="14" viewBox="0 0 14 14" fill="none" xmlns="http://www.w3.org/2000/svg"><path d="M8.75 8.81C9.05 8.84 9.70 8.84 10.00 8.80C10.44 8.74 10.84 8.65 11.13 8.53L11.25 8.48C11.52 8.36 11.69 8.20 11.81 7.96H11.81C11.95 7.68 11.96 7.41 11.85 7.05L11.80 6.89C11.46 5.95 10.88 4.80 10.48 4.26C10.21 3.89 9.97 3.68 9.69 3.61C9.44 3.54 9.19 3.62 8.93 3.81L8.93 3.81C8.80 3.91 8.71 4.00 8.55 4.21V4.21C8.53 4.23 8.51 4.24 8.50 4.26L8.38 4.04C7.72 2.89 7.08 2.20 6.44 1.99C6.21 1.92 5.95 1.91 5.72 1.95H5.72C5.35 2.03 5.01 2.24 4.64 2.63C4.27 3.01 3.87 3.57 3.39 4.36C3.07 4.88 2.60 5.75 2.35 6.28C2.30 6.41 2.22 6.56 2.19 6.63L2.09 6.87C2.06 6.94 2.04 7.00 2.02 7.06C1.99 7.18 1.98 7.29 1.99 7.42V7.43C2.00 7.56 2.01 7.63 2.04 7.73L2.09 7.87C2.24 8.17 2.51 8.36 2.88 8.44L2.88 8.44C2.99 8.47 3.08 8.47 3.45 8.47H3.45C3.81 8.47 3.93 8.46 4.22 8.42L4.59 8.36L5.08 8.29C5.52 8.23 5.83 8.22 6.12 8.24C6.54 8.27 6.94 8.34 7.35 8.47V8.47C7.45 8.50 7.61 8.55 7.71 8.58C8.03 8.68 8.38 8.76 8.75 8.81V8.81ZM9.46 7.96C8.87 7.98 8.45 7.91 7.82 7.71C7.33 7.55 7.03 7.47 6.64 7.42C6.00 7.32 5.45 7.35 4.55 7.49C3.93 7.60 3.60 7.62 3.25 7.60C3.12 7.60 3.06 7.59 3.01 7.58C2.97 7.57 2.95 7.56 2.93 7.54C2.90 7.51 2.88 7.49 2.87 7.46C2.86 7.44 2.85 7.40 2.85 7.35C2.85 7.31 2.86 7.29 2.86 7.26C2.88 7.23 2.90 7.17 2.94 7.07C3.20 6.50 3.75 5.45 4.08 4.89C4.60 4.04 5.04 3.44 5.35 3.14L5.35 3.14C5.44 3.05 5.54 2.98 5.63 2.92C5.73 2.86 5.80 2.82 5.86 2.81H5.86C5.94 2.79 6.08 2.80 6.16 2.82L6.24 2.85C6.41 2.92 6.60 3.07 6.82 3.31C7.07 3.59 7.33 3.97 7.61 4.44C7.83 4.82 8.15 5.45 8.37 5.95C8.42 6.07 8.45 6.14 8.48 6.19C8.51 6.24 8.53 6.26 8.55 6.29H8.56C8.59 6.33 8.63 6.36 8.68 6.38C8.72 6.40 8.77 6.41 8.82 6.41L8.89 6.41C9.04 6.40 9.18 6.31 9.25 6.16H9.25C9.28 6.10 9.29 6.04 9.29 5.96C9.28 5.89 9.26 5.82 9.22 5.74C9.19 5.66 9.11 5.49 9.05 5.36L9.05 5.35C9.02 5.29 8.99 5.22 8.97 5.18C8.96 5.16 8.95 5.15 8.95 5.13C8.96 5.12 8.97 5.11 8.98 5.09C9.01 5.04 9.05 4.99 9.09 4.92C9.19 4.80 9.29 4.66 9.35 4.60C9.42 4.52 9.46 4.49 9.49 4.48C9.51 4.48 9.52 4.48 9.56 4.51C9.62 4.56 9.71 4.67 9.82 4.83C9.93 4.98 10.05 5.19 10.18 5.42C10.43 5.88 10.69 6.44 10.91 6.99V6.99C10.98 7.19 11.02 7.31 11.04 7.39C11.06 7.46 11.05 7.50 11.04 7.55L11.01 7.60C10.97 7.65 10.89 7.70 10.71 7.76H10.71C10.32 7.89 9.92 7.95 9.46 7.96ZM7.17 10.15C8.43 10.55 9.50 10.55 10.68 10.16C10.90 10.09 11.15 10.00 11.36 9.91C11.46 9.87 11.56 9.83 11.64 9.79C11.71 9.76 11.77 9.72 11.81 9.70L11.89 9.62C12.05 9.44 12.02 9.14 11.81 8.99C11.78 8.97 11.75 8.95 11.71 8.93C11.69 8.93 11.67 8.92 11.65 8.92L11.59 8.92C11.54 8.92 11.51 8.91 11.47 8.92C11.45 8.92 11.44 8.93 11.42 8.93L11.37 8.95C10.98 9.12 10.87 9.16 10.66 9.24C10.08 9.46 9.62 9.56 9.09 9.58V9.58C8.55 9.60 8.04 9.52 7.42 9.33C6.72 9.11 6.31 9.01 5.78 8.95H5.78C5.67 8.94 5.46 8.94 5.25 8.94C5.03 8.94 4.81 8.94 4.69 8.95H4.69C4.45 8.98 4.07 9.03 3.79 9.09C3.51 9.14 3.13 9.22 2.81 9.30C2.66 9.33 2.51 9.37 2.40 9.40C2.35 9.42 2.30 9.43 2.26 9.44C2.23 9.45 2.19 9.47 2.17 9.48C1.99 9.59 1.91 9.82 2.00 10.02H2.00C2.08 10.20 2.28 10.31 2.47 10.27H2.47C2.51 10.27 2.71 10.22 2.91 10.17C4.11 9.86 4.95 9.75 5.59 9.81L5.95 9.86C6.31 9.91 6.66 10.00 7.17 10.15ZM7.89 11.96C9.14 12.21 10.13 12.07 11.50 11.47C11.66 11.39 11.77 11.34 11.84 11.29C11.92 11.24 11.96 11.19 11.99 11.12L12.01 11.07C12.10 10.80 11.93 10.52 11.64 10.51C11.61 10.51 11.58 10.51 11.56 10.51C11.54 10.51 11.51 10.51 11.48 10.52C11.46 10.53 11.35 10.58 11.23 10.63C10.39 11.01 9.87 11.15 9.25 11.20C8.77 11.23 8.30 11.18 7.69 11.02L7.43 10.94C6.80 10.76 6.49 10.69 6.05 10.62C5.31 10.51 4.64 10.55 3.66 10.74C3.40 10.79 3.06 10.87 2.78 10.94C2.63 10.98 2.50 11.01 2.40 11.04C2.35 11.05 2.31 11.07 2.27 11.08C2.24 11.09 2.21 11.10 2.19 11.11C2.11 11.15 2.05 11.22 2.01 11.30C1.97 11.37 1.95 11.47 1.97 11.55L1.98 11.60C2.01 11.72 2.10 11.83 2.21 11.88C2.28 11.91 2.34 11.92 2.43 11.91C2.51 11.90 2.63 11.88 2.80 11.83C3.98 11.52 4.85 11.39 5.54 11.44C6.02 11.47 6.45 11.56 7.05 11.74L7.53 11.87C7.67 11.91 7.79 11.93 7.89 11.96Z" fill="black"/></svg>