<?xml version="1.0" standalone="no"?><!DOCTYPE svg PUBLIC "-//W3C//DTD SVG 1.1//EN" "http://www.w3.org/Graphics/SVG/1.1/DTD/svg11.dtd"><svg t="1757922225061" class="icon" viewBox="0 0 1024 1024" version="1.1" xmlns="http://www.w3.org/2000/svg" p-id="11750" xmlns:xlink="http://www.w3.org/1999/xlink" width="200" height="200"><path d="M512 922.24999971a54.5625 54.5625 0 0 1-24.75-5.81249971l-4.5-2.62500029L387.50000029 849.5H174.5a112.5 112.5 0 0 1-112.5-112.5V212.00000029a112.5 112.5 0 0 1 112.5-112.5h187.49999971a37.50000029 37.50000029 0 0 1 0 74.99999971H174.5a37.50000029 37.50000029 0 0 0-37.50000029 37.50000029v524.99999971a37.50000029 37.50000029 0 0 0 37.50000029 37.50000029h213.56250029a74.99999971 74.99999971 0 0 1 33.1875 7.68749942l4.5 2.62500029 86.24999971 58.12499971 83.43749971-60.1875a74.99999971 74.99999971 0 0 1 33.75-8.24999942H849.5a37.50000029 37.50000029 0 0 0 37.50000029-37.50000029V212.00000029a37.50000029 37.50000029 0 0 0-37.50000029-37.50000029H586.99999971a37.50000029 37.50000029 0 0 0-37.49999942 37.50000029v450a37.50000029 37.50000029 0 0 1-75.00000058 0V212.00000029a112.5 112.5 0 0 1 112.5-112.5h262.50000029a112.5 112.5 0 0 1 112.5 112.5v524.99999971a112.5 112.5 0 0 1-112.5 112.5H629.93750029l-92.25 66.56249971a56.25 56.25 0 0 1-25.68750029 6.1875z" p-id="11751" fill="#000000"></path><path d="M212.00000029 324.50000029m37.49999942 0l112.5 0q37.50000029 0 37.50000029 37.49999942l0 0q0 37.50000029-37.50000029 37.50000029l-112.5 0q-37.50000029 0-37.49999942-37.50000029l0 0q0-37.50000029 37.49999942-37.49999942Z" p-id="11752" fill="#000000"></path><path d="M212.00000029 474.49999971m37.49999942 0l112.5 0q37.50000029 0 37.50000029 37.50000029l0 0q0 37.50000029-37.50000029 37.50000029l-112.5 0q-37.50000029 0-37.49999942-37.50000029l0 0q0-37.50000029 37.49999942-37.50000029Z" p-id="11753" fill="#000000"></path></svg>