<svg t="1751101436971" class="icon" viewBox="0 0 1024 1024" version="1.1" xmlns="http://www.w3.org/2000/svg" p-id="4476" width="200" height="200"><path d="M679.74 513.00c63.88-47.03 105.59-122.49 105.59-207.72 0-142.31-115.79-258.09-258.10-258.09-142.31 0-258.10 115.78-258.10 258.09 0 86.27 42.71 162.58 107.92 209.45-0.03 0.01-0.06 0.03-0.10 0.04C79.48 621.39 79.48 942.75 79.48 942.75l63.96 0c0 0 33.17-383.76 383.79-383.76 351.37 0 383.69 383.76 383.69 383.76l63.96 0c0 0 0-320.68-294.86-429.65C679.92 513.07 679.83 513.03 679.74 513.00L679.74 513.00zM333.09 305.28c0-107.05 87.09-194.13 194.14-194.13 107.05 0 194.14 87.08 194.14 194.13 0 107.03-87.09 194.11-194.14 194.11S333.09 412.31 333.09 305.28L333.09 305.28z" fill="#e8ad56" p-id="4477"></path></svg>