<svg width="29" height="29" viewBox="0 0 29 29" fill="none" xmlns="http://www.w3.org/2000/svg">
<path d="M12.2193 6.51758C12.7434 6.51758 13.2624 6.62081 13.7467 6.82139C14.2309 7.02197 14.6709 7.31596 15.0415 7.68658C15.4121 8.0572 15.7061 8.49719 15.9067 8.98143C16.1073 9.46567 16.2105 9.98467 16.2105 10.5088V11.6492C16.2105 12.7077 15.79 13.7229 15.0415 14.4714C14.293 15.2199 13.2778 15.6404 12.2193 15.6404C11.1608 15.6404 10.1456 15.2199 9.39708 14.4714C8.64858 13.7229 8.22807 12.7077 8.22807 11.6492V10.5088C8.22807 9.98467 8.33131 9.46567 8.53189 8.98143C8.73247 8.49719 9.02646 8.0572 9.39708 7.68658C9.7677 7.31596 10.2077 7.02197 10.6919 6.82139C11.1762 6.62081 11.6952 6.51758 12.2193 6.51758ZM9.0822 15.7105C9.97991 16.406 11.0837 16.7825 12.2193 16.7807C13.4007 16.7807 14.4892 16.3816 15.3564 15.7105C16.899 16.3721 18.195 17.5013 19.0614 18.9389V19.6316C19.0614 19.9311 19.0024 20.2277 18.8878 20.5044C18.7732 20.7811 18.6052 21.0325 18.3934 21.2443C18.1816 21.4561 17.9302 21.6241 17.6535 21.7387C17.3768 21.8533 17.0802 21.9123 16.7807 21.9123H7.6579C7.05302 21.9123 6.47291 21.672 6.0452 21.2443C5.61748 20.8166 5.3772 20.2365 5.3772 19.6316V18.9389C6.24364 17.5013 7.53959 16.3721 9.0822 15.7105ZM18.4912 8.2281H23.0526C23.1275 8.2281 23.2017 8.24285 23.2708 8.27151C23.34 8.30016 23.4029 8.34216 23.4558 8.39511C23.5088 8.44805 23.5508 8.51091 23.5794 8.58008C23.6081 8.64926 23.6228 8.7234 23.6228 8.79828V9.93863C23.6228 10.0135 23.6081 10.0877 23.5794 10.1568C23.5508 10.226 23.5088 10.2889 23.4558 10.3418C23.4029 10.3948 23.34 10.4368 23.2708 10.4654C23.2017 10.4941 23.1275 10.5088 23.0526 10.5088H18.4912C18.4164 10.5088 18.3422 10.4941 18.273 10.4654C18.2039 10.4368 18.141 10.3948 18.0881 10.3418C18.0351 10.2889 17.9931 10.226 17.9645 10.1568C17.9358 10.0877 17.9211 10.0135 17.9211 9.93863V8.79828C17.9211 8.7234 17.9358 8.64926 17.9645 8.58008C17.9931 8.51091 18.0351 8.44805 18.0881 8.39511C18.141 8.34216 18.2039 8.30016 18.273 8.27151C18.3422 8.24285 18.4164 8.2281 18.4912 8.2281ZM19.6316 12.7895H23.0526C23.2039 12.7895 23.3489 12.8496 23.4558 12.9565C23.5627 13.0634 23.6228 13.2085 23.6228 13.3597V14.5C23.6228 14.6513 23.5627 14.7963 23.4558 14.9032C23.3489 15.0101 23.2039 15.0702 23.0526 15.0702H19.6316C19.5567 15.0702 19.4826 15.0555 19.4134 15.0268C19.3442 14.9982 19.2814 14.9562 19.2284 14.9032C19.1755 14.8503 19.1335 14.7874 19.1048 14.7182C19.0762 14.6491 19.0614 14.5749 19.0614 14.5V13.3597C19.0614 13.2848 19.0762 13.2107 19.1048 13.1415C19.1335 13.0723 19.1755 13.0095 19.2284 12.9565C19.2814 12.9036 19.3442 12.8616 19.4134 12.8329C19.4826 12.8043 19.5567 12.7895 19.6316 12.7895ZM21.3421 17.3509H23.0526C23.2039 17.3509 23.3489 17.411 23.4558 17.5179C23.5627 17.6248 23.6228 17.7699 23.6228 17.9211V19.0614C23.6228 19.2127 23.5627 19.3577 23.4558 19.4646C23.3489 19.5715 23.2039 19.6316 23.0526 19.6316H21.3421C21.1909 19.6316 21.0459 19.5715 20.9389 19.4646C20.832 19.3577 20.7719 19.2127 20.7719 19.0614V17.9211C20.7719 17.7699 20.832 17.6248 20.9389 17.5179C21.0459 17.411 21.1909 17.3509 21.3421 17.3509Z" fill="#FF9D1D"/>
</svg>
