<svg width="16" height="17" viewBox="0 0 16 17" fill="none" xmlns="http://www.w3.org/2000/svg">
<path d="M7.72854 1.37964C8.34436 1.37985 8.84768 1.88389 8.84768 2.49976V2.85913C8.84981 2.87583 8.85256 2.89264 8.85256 2.90991V2.9939C8.96317 2.95513 9.08196 2.93922 9.20022 2.93921H9.26369C9.87959 2.93921 10.3836 3.44347 10.3838 4.05933V6.50757C10.7118 6.13157 11.2644 5.85155 11.7764 6.09155L11.9199 6.16382C12.5038 6.53978 12.6162 7.0196 12.3203 7.9314C12.2717 8.09349 11.5838 10.3807 10.2324 11.78L10.2158 11.7957L10.1035 11.9089C9.57424 12.4667 9.55642 12.9041 9.50393 14.0515L9.4717 14.8201H4.54397V14.3318C4.54397 12.6279 4.24015 11.9551 3.95217 11.3152C3.63225 10.6114 3.33596 9.94696 3.46389 8.34741L3.4883 4.45972C3.4883 3.86774 3.96861 3.3875 4.56057 3.38745H4.62405C4.75205 3.38745 4.8724 3.4119 4.9844 3.4519V3.01929C4.98458 2.4419 5.42737 1.96258 5.99026 1.90503L6.10451 1.89917H6.1758C6.30173 1.89917 6.42356 1.91746 6.53713 1.95679L6.64846 2.00366C6.81647 1.66772 7.13738 1.44156 7.49905 1.39038L7.65627 1.37964H7.72854ZM5.27639 13.0515C5.31004 13.3388 5.33283 13.6585 5.34084 14.0193H8.7051V14.0154C8.72082 13.6717 8.73626 13.3493 8.76955 13.0515H5.27639ZM7.65627 2.17944C7.53455 2.17948 7.41943 2.24892 7.3633 2.36108C7.34856 2.39055 7.33056 2.4179 7.31252 2.44507C7.31341 2.45594 7.31642 2.46717 7.31643 2.47827V6.90698C7.31607 7.12759 7.13673 7.3064 6.91604 7.3064C6.69554 7.30616 6.51601 7.12745 6.51565 6.90698V2.79175C6.43796 2.77879 6.36172 2.75531 6.29006 2.71948C6.27573 2.71234 6.24209 2.69995 6.1758 2.69995H6.10451C5.9305 2.7 5.7844 2.8453 5.7842 3.01929V3.4519C5.78419 3.47126 5.78169 3.49038 5.7803 3.50952C5.78032 3.51131 5.78127 3.51358 5.78127 3.51538V6.90698C5.78095 7.12757 5.60153 7.30632 5.38088 7.3064C5.16017 7.3064 4.98081 7.12762 4.98049 6.90698V4.24976C4.89109 4.24937 4.80121 4.23567 4.71487 4.20483C4.67905 4.19207 4.64997 4.18726 4.62405 4.18726H4.56057C4.41044 4.1873 4.28811 4.30957 4.28811 4.45972V4.4646L4.26369 8.35229C4.26357 8.37186 4.2633 8.39236 4.26174 8.41187C4.20251 9.15289 4.24444 9.6381 4.32229 9.99878C4.38086 10.27 4.46353 10.4915 4.56838 10.7332L4.68069 10.9841L4.68166 10.9871C4.82686 11.3097 5.00285 11.6971 5.13381 12.2361C5.13498 12.2409 5.13558 12.2459 5.13674 12.2507H8.94729C9.09505 11.8598 9.3265 11.5428 9.65627 11.2244L9.66604 11.2136C10.245 10.6103 10.7069 9.78888 11.0362 9.06128C11.3618 8.34154 11.5341 7.76749 11.5537 7.7019L11.5596 7.68433C11.6928 7.27366 11.6856 7.09305 11.6699 7.02417C11.6656 7.00476 11.6585 6.95316 11.5108 6.85327L11.4346 6.81519C11.4047 6.80163 11.3626 6.79299 11.2813 6.82202C11.187 6.85583 11.0765 6.93168 10.9873 7.03394C10.7681 7.28503 10.4157 7.37354 10.1035 7.25659C9.79133 7.13955 9.58411 6.84098 9.58401 6.50757V4.05933C9.58383 3.88529 9.43776 3.73999 9.26369 3.73999H9.20022C9.14911 3.74 9.12364 3.7465 9.11721 3.74878C9.03109 3.77952 8.94158 3.79327 8.85256 3.7937V6.90601C8.85256 7.12692 8.67308 7.3064 8.45217 7.3064C8.23127 7.30638 8.05178 7.12691 8.05178 6.90601V3.0603C8.05003 3.03893 8.04789 3.0175 8.04787 2.99585V2.49976C8.04787 2.32571 7.90253 2.17966 7.72854 2.17944H7.65627Z" fill="#1F1722"/>
</svg>
