<svg width="14" height="15" viewBox="0 0 14 15" fill="none" xmlns="http://www.w3.org/2000/svg">
<path fill-rule="evenodd" clip-rule="evenodd" d="M3.44159 11.0819H4.31659V10.1544H3.44159V11.0819ZM1.45825 13.0419H6.30575V8.19439H1.45825V13.0419Z" fill="#FF9421"/>
<path fill-rule="evenodd" clip-rule="evenodd" d="M9.68325 11.0819H10.5583V10.1544H9.68325V11.0819ZM7.69409 13.0419H12.5416V8.19439H7.69409V13.0419Z" fill="#FF9421"/>
<path fill-rule="evenodd" clip-rule="evenodd" d="M8.57159 2.83308H9.98968V1.95808H7.69659V5.23583H8.57159V2.83308Z" fill="#FF9421"/>
<path fill-rule="evenodd" clip-rule="evenodd" d="M7.697 6.80255H9.867V5.92755H7.697V6.80255Z" fill="#FF9421"/>
<path fill-rule="evenodd" clip-rule="evenodd" d="M10.6739 1.95808V2.83308H11.6668V3.82533H12.5418V1.95808H10.6739Z" fill="#FF9421"/>
<path fill-rule="evenodd" clip-rule="evenodd" d="M11.6666 5.92743H10.6738V6.80243H12.5416V4.50993H11.6666V5.92743Z" fill="#FF9421"/>
<path fill-rule="evenodd" clip-rule="evenodd" d="M9.05185 3.33749V5.50691H10.9938V4.63191H9.92685V3.33749H9.05185Z" fill="#FF9421"/>
<path fill-rule="evenodd" clip-rule="evenodd" d="M11.3419 3.33177L10.4669 3.3376V4.2126H11.3419V3.33177Z" fill="#FF9421"/>
<path fill-rule="evenodd" clip-rule="evenodd" d="M3.44159 4.84605H4.31659V3.91271H3.44159V4.84605ZM1.45825 6.80021H6.30575V1.95855H1.45825V6.80021Z" fill="#FF9421"/>
</svg>
