<svg width="20" height="20" viewBox="0 0 20 20" fill="none" xmlns="http://www.w3.org/2000/svg">
<path d="M5.00012 8.33333H5.62512C6.20042 8.33333 6.66679 8.7997 6.66679 9.375V12.2917C6.66679 12.867 6.20042 13.3333 5.62512 13.3333H5.00012C3.61941 13.3333 2.50012 12.214 2.50012 10.8333C2.50012 9.45262 3.61941 8.33333 5.00012 8.33333ZM5.00012 8.33333V7.5C5.00012 4.73858 7.2387 2.5 10.0001 2.5C12.7615 2.5 15.0001 4.73858 15.0001 7.5V8.33333M15.0001 8.33333H14.3751C13.7998 8.33333 13.3335 8.7997 13.3335 9.375V12.2917C13.3335 12.867 13.7998 13.3333 14.3751 13.3333H15.0001M15.0001 8.33333C16.3808 8.33333 17.5001 9.45262 17.5001 10.8333C17.5001 12.214 16.3808 13.3333 15.0001 13.3333M15.0001 13.3333L14.4824 15.4042C14.2969 16.1462 13.6303 16.6667 12.8655 16.6667H10.8335" stroke="#FF9421" stroke-width="1.66667" stroke-linecap="round" stroke-linejoin="round"/>
</svg>
