<svg width="29" height="29" viewBox="0 0 29 29" fill="none" xmlns="http://www.w3.org/2000/svg">
<path d="M6.95839 8.6581C6.95839 4.95446 9.97271 1.94014 13.6764 1.94014C17.38 1.94014 20.3943 4.95446 20.3943 8.6581C20.3943 12.3617 17.38 15.3761 13.6764 15.3761C9.97271 15.3761 6.95839 12.3617 6.95839 8.6581ZM8.71091 8.6581C8.71399 9.97407 9.23813 11.2353 10.1687 12.1658C11.0992 13.0963 12.3604 13.6205 13.6764 13.6236C14.9923 13.6205 16.2535 13.0963 17.1841 12.1658C18.1146 11.2353 18.6387 9.97407 18.6418 8.6581C18.6387 7.34213 18.1146 6.08094 17.1841 5.15041C16.2535 4.21987 14.9923 3.69574 13.6764 3.69265C12.3604 3.69574 11.0992 4.21987 10.1687 5.15041C9.23813 6.08094 8.71399 7.34213 8.71091 8.6581Z" fill="#1F1722" fill-opacity="0.6"/>
<path d="M2.76392 26.1842C2.76392 21.1954 7.65927 17.1296 13.6762 17.1296C14.8563 17.1296 16.0129 17.2814 17.1345 17.5969C17.6019 17.7254 17.8706 18.2044 17.7421 18.6718C17.6135 19.1391 17.1345 19.4078 16.6672 19.2793C15.7091 19.0106 14.7044 18.8821 13.6762 18.8821C8.62899 18.8821 4.51643 22.1534 4.51643 26.1842C4.51643 26.6632 4.1192 27.0605 3.64018 27.0605C3.16116 27.0605 2.76392 26.6632 2.76392 26.1842Z" fill="#1F1722" fill-opacity="0.6"/>
<path d="M15.9429 24.3608C15.4172 23.5196 15.1368 22.5266 15.1368 21.5101C15.1368 19.8043 15.8962 18.2271 17.2164 17.1756C18.1978 16.3928 19.4363 15.9605 20.6864 15.9605C23.7474 15.9605 26.236 18.449 26.236 21.5101C26.236 22.5266 25.9556 23.5196 25.4298 24.3725C25.1378 24.8632 24.7639 25.3072 24.3199 25.6811C23.3502 26.569 22.0533 27.0597 20.6864 27.0597C18.7469 27.0597 16.9243 26.0316 15.9429 24.3608ZM18.3146 18.5542C17.5958 19.1249 17.1101 19.9385 16.9487 20.842C16.7874 21.7456 16.9615 22.677 17.4384 23.4612C18.116 24.6062 19.3662 25.3072 20.6864 25.3072C21.6094 25.3072 22.4973 24.9684 23.1749 24.3608C23.4787 24.1038 23.7357 23.8 23.9227 23.4729C24.2966 22.8771 24.4835 22.1994 24.4835 21.5101C24.4835 19.4188 22.7777 17.713 20.6864 17.713C19.8218 17.713 19.004 18.0051 18.3146 18.5542Z" fill="#1F1722" fill-opacity="0.6"/>
<path d="M19.401 23.2865L18.2443 22.1299C18.0817 21.9648 17.9905 21.7424 17.9905 21.5107C17.9905 21.2789 18.0817 21.0565 18.2443 20.8914C18.5832 20.5526 19.144 20.5526 19.4828 20.8914L20.0436 21.4522L21.9129 19.7231C22.2634 19.396 22.8242 19.4193 23.1514 19.7698C23.4785 20.1203 23.4551 20.6811 23.1046 21.0083L20.6161 23.3099C20.4408 23.4618 20.2305 23.5436 20.0202 23.5436C19.7982 23.5436 19.5762 23.4618 19.401 23.2865Z" fill="#1F1722" fill-opacity="0.6"/>
</svg>
