<svg width="29" height="29" viewBox="0 0 29 29" fill="none" xmlns="http://www.w3.org/2000/svg">
<path d="M9.20182 10.4388L5.27253 8.71002V10.1835H3.52639V6.98515L15.7513 1.81248L27.9781 6.98515V22.1145L15.7513 27.2872L3.52639 22.1164V19.3532H5.27253V20.9581L14.8792 25.0228V12.9371L10.9499 11.2084V15.8609C10.9499 16.0927 10.8578 16.315 10.6939 16.4789C10.53 16.6428 10.3077 16.7349 10.0759 16.7349C9.84405 16.7349 9.62173 16.6428 9.45782 16.4789C9.29391 16.315 9.20182 16.0927 9.20182 15.8609V10.4368V10.4388ZM21.6878 6.22134L12.8198 10.1236L15.759 11.4153L24.8629 7.56333L21.6878 6.22134ZM19.4775 5.28542L15.7513 3.70752L6.82529 7.48598L10.6521 9.16831L19.4775 5.28542ZM16.6253 25.0209L26.232 20.9581V8.88212L16.6253 12.9468V25.0228V25.0209ZM1.60428 13.6777C1.21754 13.6777 0.906212 13.2871 0.906212 12.8037C0.906212 12.3203 1.21947 11.9316 1.60428 11.9316H5.44656C5.8333 11.9316 6.14656 12.3222 6.14656 12.8037C6.14656 13.2871 5.8333 13.6777 5.44656 13.6777H1.60428ZM1.60428 17.7172C1.21754 17.7172 0.906212 17.3247 0.906212 16.8432C0.906212 16.3598 1.21947 15.9692 1.60428 15.9692H5.44656C5.8333 15.9692 6.14656 16.3598 6.14656 16.8432C6.14656 17.3266 5.8333 17.7172 5.44656 17.7172H1.60428Z" fill="#1F1722" fill-opacity="0.6"/>
</svg>
