<svg width="29" height="29" viewBox="0 0 29 29" fill="none" xmlns="http://www.w3.org/2000/svg">
<path d="M15.8194 1.43459L10.942 2.74231L11.5984 5.17934L9.97089 5.61693L10.666 8.21554C9.05055 8.76849 7.6194 9.75725 6.53067 11.0726C5.44194 12.3879 4.738 13.9786 4.49663 15.6689C4.25526 17.3592 4.48584 19.0833 5.16292 20.6508C5.83999 22.2183 6.93719 23.5681 8.3333 24.5511H2.7187V26.2341H26.2812V24.5511H18.9802C20.8059 23.2699 22.1071 21.3722 22.6441 19.2074L24.6015 18.6806L24.1639 17.0548L11.972 20.3233L12.4096 21.9491L20.7204 19.7224C20.2603 20.9035 19.5112 21.9501 18.5416 22.7665C17.572 23.5829 16.4131 24.1429 15.171 24.3952C13.9288 24.6475 12.6433 24.584 11.432 24.2106C10.2208 23.8372 9.12265 23.1657 8.23823 22.2578C7.35381 21.3498 6.71141 20.2345 6.36988 19.0139C6.02835 17.7932 5.99863 16.5064 6.28343 15.2713C6.56823 14.0363 7.15845 12.8924 8 11.9446C8.84155 10.9968 9.90751 10.2754 11.1002 9.8464L13.236 17.8072L21.3667 15.631L18.0983 3.4374L16.4741 3.87331L15.8194 1.43459ZM16.9084 5.49912L19.305 14.4411L14.4276 15.7471L12.0309 6.80515L16.9084 5.49912ZM14.6295 3.49631L14.8483 4.30921L13.2225 4.74512L13.0037 3.93221L14.6295 3.49462V3.49631Z" fill="#1F1722" fill-opacity="0.6"/>
</svg>
