<svg width="28" height="28" viewBox="0 0 28 28" fill="none" xmlns="http://www.w3.org/2000/svg">
<path d="M24.5488 17.2954C24.967 17.2957 25.3849 17.7142 25.3849 18.1325V22.0373H27.0593C27.3381 22.0374 27.6166 22.1776 27.8954 22.4564C28.0349 22.7353 28.0349 23.1536 27.8954 23.4326L24.2697 27.4773C23.9908 27.7563 23.7115 27.8954 23.4326 27.8954C23.1536 27.8954 22.8749 27.7562 22.7354 27.4773L19.1087 23.2925C18.9694 23.0137 18.9694 22.7352 19.1087 22.4564C19.2482 22.1774 19.5274 22.0373 19.9459 22.0373H21.6192V18.1325C21.6192 17.7141 22.0379 17.2954 22.4564 17.2954H24.5488ZM21.8983 0C23.0139 2.9431e-05 23.8504 0.836768 23.8506 1.95238V11.8553H21.8983V1.95238H1.95238V21.8983H13.9477V23.8506H1.95238C0.836737 23.8505 1.09504e-05 23.014 0 21.8983V1.95238C0.000201056 0.83687 0.836863 0.000181796 1.95238 0H21.8983ZM17.9925 13.1116H5.99716V11.1592H17.9925V13.1116ZM17.9925 7.67149H5.99716V5.71911H17.9925V7.67149Z" fill="#1F1722" fill-opacity="0.6"/>
</svg>
