<svg width="29" height="29" viewBox="0 0 29 29" fill="none" xmlns="http://www.w3.org/2000/svg">
<path d="M26.511 6.38827L23.1619 3.03928C22.7793 2.65665 22.3008 2.46519 21.8224 2.46519C21.344 2.46519 20.8655 2.65665 20.4829 3.03928L5.26898 18.1571C5.1734 18.3486 5.07765 18.4442 4.98193 18.6357L3.25967 25.1421C3.16409 25.4292 3.25967 25.8119 3.54672 26.099C3.73819 26.1946 3.92949 26.2903 4.21656 26.2903H4.50361L11.01 24.568C11.2015 24.568 11.2971 24.4722 11.3928 24.2809L26.511 9.06731C27.2764 8.30189 27.2764 7.15369 26.511 6.38827ZM7.94821 18.1571L18.0908 8.11058L21.4396 11.4595L11.3928 21.5062L7.94821 18.1571ZM6.70427 19.5924L9.86185 22.75L5.4605 23.8982L6.70427 19.5924ZM22.7793 10.12L19.4303 6.77093L21.8224 4.37894L25.1713 7.72782L22.7793 10.12ZM11.9669 4.28322C10.0532 2.36958 7.08701 2.46519 5.1734 4.28322L2.49422 6.96239C2.11146 7.34502 2.11146 7.91912 2.49422 8.30191L4.79063 10.5983L7.08704 12.8947L7.37409 13.1818C7.56541 13.3731 7.85246 13.4688 8.04393 13.4688C8.23523 13.4688 8.5223 13.3731 8.71361 13.1818C8.90507 12.9905 9.00065 12.7034 9.00065 12.4164L11.2015 10.2155C11.5841 9.83287 11.5841 9.2588 11.2015 8.87601C10.8187 8.49324 10.2446 8.49324 9.86182 8.87601L7.85246 10.9811L6.89574 10.0242L8.9051 7.91912C9.28778 7.53649 9.28778 6.96239 8.9051 6.5796C8.52233 6.19681 7.85249 6.19681 7.56544 6.5796L5.4605 8.58896L4.50361 7.63207L6.51297 5.62271C7.66116 4.47452 9.47919 4.47452 10.5317 5.62271L12.4453 7.53649C12.8281 7.91912 13.4022 7.91912 13.785 7.53649C14.1676 7.15369 14.1676 6.5796 13.785 6.19681L11.9669 4.28322ZM24.8842 17.2004L23.449 15.7652C23.0663 15.3824 22.4923 15.3824 22.1095 15.7652C21.7267 16.1478 21.7267 16.7219 22.1095 17.1047L23.5447 18.5399C24.1188 19.1141 24.4059 19.7839 24.4059 20.5493C24.4059 21.3147 24.1188 22.0803 23.5447 22.5586L21.5354 24.568L20.8655 23.8982L22.8749 21.8888C23.2576 21.5062 23.2576 20.9321 22.8749 20.5493C22.4922 20.1665 21.9182 20.1665 21.5354 20.5493L19.526 22.5586L18.4735 21.6018L20.4829 19.5924C20.8655 19.2097 20.8655 18.6357 20.4829 18.2529C20.1001 17.8701 19.526 17.8701 19.1432 18.2529L16.4641 20.932C16.0813 21.3147 16.0813 21.8888 16.4641 22.2716L20.8655 26.6731C21.057 26.8644 21.344 26.9601 21.5353 26.9601C21.7266 26.9601 22.0137 26.8644 22.2051 26.6731L24.8842 23.9939C25.7454 23.1328 26.3194 21.8888 26.3194 20.645C26.3195 19.3054 25.8411 18.0616 24.8842 17.2004Z" fill="#1F1722" fill-opacity="0.6"/>
</svg>
