<svg width="29" height="29" viewBox="0 0 29 29" fill="none" xmlns="http://www.w3.org/2000/svg">
<path d="M12.6753 5.7749C13.8747 4.76498 15.6263 4.76492 16.8257 5.7749L23.3267 11.2485C23.8451 11.6852 24.1272 12.3414 24.0874 13.0181L23.5356 22.3979C23.4354 24.101 22.0248 25.4311 20.3188 25.4312H9.18213C7.47608 25.4312 6.06557 24.101 5.96533 22.3979L5.41357 13.0181C5.37377 12.3413 5.65578 11.6852 6.17432 11.2485L12.6753 5.7749Z" stroke="#1F1722" stroke-opacity="0.3" stroke-width="2.14815"/>
<path d="M18.4895 14.2955C18.7641 13.9976 19.1917 13.9866 19.4775 14.284C19.7823 14.6013 19.8104 15.1495 19.5406 15.5081C17.0747 18.7871 12.7842 18.8898 10.2042 15.8158L9.95967 15.5081L9.9127 15.4386C9.69485 15.0817 9.73785 14.5814 10.0236 14.284C10.3095 13.9867 10.7371 13.9974 11.0116 14.2955L11.0643 14.3593L11.2521 14.5955C13.2375 16.9611 16.5393 16.8826 18.4369 14.3593L18.4895 14.2955Z" fill="#1F1722" fill-opacity="0.3"/>
</svg>
