<svg width="29" height="29" viewBox="0 0 29 29" fill="none" xmlns="http://www.w3.org/2000/svg">
<path d="M4.34135 13.081C4.28163 12.0658 4.70462 11.0821 5.48246 10.427L11.9829 4.953C13.5821 3.60632 15.9185 3.60632 17.5177 4.953L24.0181 10.427C24.7959 11.0821 25.2189 12.0658 25.1592 13.081L24.6074 22.4609C24.4739 24.7318 22.5933 26.5049 20.3186 26.5049H9.18199C6.9072 26.5049 5.02669 24.7318 4.89311 22.4609L4.34135 13.081Z" fill="url(#paint0_linear_14000_1275)"/>
<path d="M18.4895 14.2955C18.7641 13.9976 19.1917 13.9866 19.4775 14.284C19.7823 14.6013 19.8104 15.1495 19.5406 15.5081C17.0747 18.7871 12.7842 18.8898 10.2042 15.8158L9.95967 15.5081L9.9127 15.4386C9.69485 15.0817 9.73785 14.5814 10.0236 14.284C10.3095 13.9867 10.7371 13.9974 11.0116 14.2955L11.0643 14.3593L11.2521 14.5955C13.2375 16.9611 16.5393 16.8826 18.4369 14.3593L18.4895 14.2955Z" fill="white"/>
<defs>
<linearGradient id="paint0_linear_14000_1275" x1="14.9738" y1="31.3698" x2="-20.7871" y2="-14.2824" gradientUnits="userSpaceOnUse">
<stop offset="0.196785" stop-color="#FF9114"/>
<stop offset="0.59787" stop-color="#FFCA40"/>
<stop offset="1" stop-color="#FFE0F9"/>
</linearGradient>
</defs>
</svg>
