<svg width="29" height="29" viewBox="0 0 29 29" fill="none" xmlns="http://www.w3.org/2000/svg"><path d="M4.34 13.08C4.28 12.07 4.70 11.08 5.48 10.43L11.98 4.95C13.58 3.61 15.92 3.61 17.52 4.95L24.02 10.43C24.80 11.08 25.22 12.07 25.16 13.08L24.61 22.46C24.47 24.73 22.59 26.50 20.32 26.50H9.18C6.91 26.50 5.03 24.73 4.89 22.46L4.34 13.08Z" fill="url(#paint0_linear_14000_1275)"/><path d="M18.49 14.30C18.76 14.00 19.19 13.99 19.48 14.28C19.78 14.60 19.81 15.15 19.54 15.51C17.07 18.79 12.78 18.89 10.20 15.82L9.96 15.51L9.91 15.44C9.69 15.08 9.74 14.58 10.02 14.28C10.31 13.99 10.74 14.00 11.01 14.30L11.06 14.36L11.25 14.60C13.24 16.96 16.54 16.88 18.44 14.36L18.49 14.30Z" fill="white"/><defs><linearGradient id="paint0_linear_14000_1275" x1="14.97" y1="31.37" x2="-20.79" y2="-14.28" gradientUnits="userSpaceOnUse"><stop offset="0.20" stop-color="#FF9114"/><stop offset="0.60" stop-color="#FFCA40"/><stop offset="1" stop-color="#FFE0F9"/></linearGradient></defs></svg>