<svg width="29" height="29" viewBox="0 0 29 29" fill="none" xmlns="http://www.w3.org/2000/svg"><path d="M12.68 5.77C13.87 4.76 15.63 4.76 16.83 5.77L23.33 11.25C23.85 11.69 24.13 12.34 24.09 13.02L23.54 22.40C23.44 24.10 22.02 25.43 20.32 25.43H9.18C7.48 25.43 6.07 24.10 5.97 22.40L5.41 13.02C5.37 12.34 5.66 11.69 6.17 11.25L12.68 5.77Z" stroke="#1F1722" stroke-opacity="0.3" stroke-width="2.15"/><path d="M18.49 14.30C18.76 14.00 19.19 13.99 19.48 14.28C19.78 14.60 19.81 15.15 19.54 15.51C17.07 18.79 12.78 18.89 10.20 15.82L9.96 15.51L9.91 15.44C9.69 15.08 9.74 14.58 10.02 14.28C10.31 13.99 10.74 14.00 11.01 14.30L11.06 14.36L11.25 14.60C13.24 16.96 16.54 16.88 18.44 14.36L18.49 14.30Z" fill="#1F1722" fill-opacity="0.3"/></svg>