<svg width="29" height="29" viewBox="0 0 29 29" fill="none" xmlns="http://www.w3.org/2000/svg"><path d="M25.18 15.51C24.51 21.01 19.83 25.27 14.15 25.27C12.61 25.27 11.14 24.95 9.80 24.38C10.06 24.32 10.33 24.25 10.59 24.18L10.59 24.18C12.96 23.55 15.55 22.46 18.10 20.99L18.10 20.98C20.65 19.51 22.88 17.82 24.61 16.10L24.61 16.10C24.81 15.90 25.00 15.71 25.18 15.51ZM14.15 3.03C16.95 3.03 19.52 4.08 21.47 5.79C23.98 5.54 25.87 6.04 26.63 7.34C27.41 8.71 26.81 10.71 25.19 12.86C24.70 13.53 24.09 14.21 23.40 14.89C21.79 16.49 19.68 18.09 17.25 19.51C14.80 20.92 12.35 21.94 10.14 22.53C9.21 22.79 8.33 22.97 7.50 23.06C4.84 23.40 2.81 22.92 2.02 21.55C1.32 20.32 1.72 18.59 2.98 16.70L3.25 16.32C3.11 15.62 3.03 14.90 3.03 14.15C3.03 8.01 8.01 3.03 14.15 3.03ZM3.97 18.62C3.81 18.96 3.69 19.26 3.61 19.52C3.43 20.18 3.52 20.50 3.61 20.63C3.68 20.77 3.91 21.02 4.57 21.19C4.88 21.27 5.24 21.31 5.67 21.33C5.77 21.33 5.88 21.34 6.00 21.34C6.34 21.34 6.72 21.32 7.12 21.27L7.12 21.27C6.72 21.31 6.34 21.33 6.00 21.33C5.89 21.33 5.77 21.33 5.67 21.33C4.97 20.51 4.40 19.61 3.97 18.62ZM23.10 7.57C23.74 8.42 24.25 9.38 24.62 10.40C24.81 10.02 24.95 9.67 25.04 9.37C25.22 8.71 25.12 8.40 25.04 8.26C24.96 8.12 24.74 7.87 24.07 7.70C23.80 7.64 23.47 7.59 23.10 7.57Z" fill="url(#paint0_linear_14458_7627)"/><path d="M14.08 7.74C15.50 7.74 16.65 8.89 16.65 10.30C16.65 11.72 15.50 12.87 14.08 12.87C12.66 12.87 11.52 11.72 11.52 10.30C11.52 8.89 12.66 7.74 14.08 7.74ZM13.65 11.70C13.19 11.55 12.83 11.19 12.69 10.74C12.72 10.83 12.75 10.92 12.80 11.00C12.87 11.12 12.95 11.24 13.05 11.34C13.12 11.40 13.19 11.46 13.27 11.51C13.31 11.54 13.35 11.56 13.39 11.59C13.47 11.63 13.56 11.67 13.65 11.70ZM14.52 11.70C14.42 11.72 14.33 11.74 14.23 11.75C14.33 11.74 14.42 11.72 14.52 11.70ZM12.74 9.74C12.68 9.87 12.65 10.01 12.63 10.15C12.65 10.01 12.68 9.87 12.74 9.74ZM13.39 9.02C13.26 9.09 13.15 9.17 13.05 9.27C13.15 9.17 13.26 9.09 13.39 9.02Z" fill="white"/><defs><linearGradient id="paint0_linear_14458_7627" x1="14.59" y1="29.80" x2="-15.80" y2="-20.37" gradientUnits="userSpaceOnUse"><stop offset="0.20" stop-color="#FF9114"/><stop offset="0.60" stop-color="#FFCA40"/><stop offset="1" stop-color="#FFE0F9"/></linearGradient></defs></svg>