<svg xmlns="http://www.w3.org/2000/svg" width="29" height="29" viewBox="0 0 29 29" fill="none"><path d="M14.15 3.03C16.95 3.03 19.52 4.08 21.47 5.79C23.98 5.54 25.87 6.04 26.63 7.34C27.41 8.71 26.81 10.71 25.19 12.86C25.24 13.29 25.27 13.72 25.27 14.15C25.27 20.29 20.29 25.27 14.15 25.27C11.66 25.27 9.36 24.45 7.50 23.06C4.84 23.40 2.81 22.92 2.02 21.55C1.32 20.32 1.72 18.59 2.98 16.70L3.25 16.32C3.11 15.62 3.03 14.90 3.03 14.15C3.03 8.01 8.01 3.03 14.15 3.03ZM23.09 15.19C21.52 16.69 19.53 18.18 17.24 19.51C14.80 20.92 12.34 21.94 10.14 22.53C11.35 23.11 12.71 23.44 14.15 23.44C19.03 23.44 23.04 19.68 23.40 14.89L23.09 15.19ZM3.97 18.63C3.81 18.96 3.69 19.26 3.61 19.52C3.43 20.18 3.52 20.50 3.61 20.64C3.68 20.77 3.91 21.02 4.57 21.19C4.88 21.27 5.24 21.31 5.67 21.33C6.18 21.35 6.77 21.33 7.44 21.23C6.77 21.32 6.18 21.35 5.67 21.33C4.97 20.52 4.40 19.61 3.97 18.63ZM14.15 4.86C9.02 4.86 4.86 9.02 4.86 14.15V14.38L4.88 14.69C4.92 15.39 5.04 16.08 5.23 16.73C5.73 18.46 6.71 19.98 8.03 21.14L8.48 21.05C10.76 20.59 13.52 19.54 16.33 17.92C19.32 16.20 21.72 14.20 23.26 12.35C23.33 12.27 23.39 12.19 23.46 12.12H23.46C23.39 12.19 23.33 12.27 23.26 12.35C22.93 10.67 22.16 9.16 21.06 7.95L20.84 7.71L20.63 7.50C20.13 7.02 19.59 6.59 19.00 6.23C17.59 5.37 15.93 4.86 14.15 4.86ZM14.21 7.74C15.57 7.81 16.65 8.93 16.65 10.30C16.65 11.72 15.50 12.87 14.08 12.87C12.71 12.87 11.59 11.79 11.52 10.44L11.52 10.30L11.52 10.17C11.59 8.82 12.71 7.74 14.08 7.74L14.21 7.74ZM23.10 7.57C23.74 8.42 24.25 9.38 24.62 10.40L24.75 10.12C24.88 9.85 24.97 9.60 25.04 9.37C25.22 8.71 25.12 8.40 25.04 8.26C24.96 8.12 24.74 7.87 24.07 7.70C23.80 7.64 23.47 7.59 23.10 7.57Z" fill="#1F1722" fill-opacity="0.3"/></svg>