<svg width="28" height="28" viewBox="0 0 28 28" fill="none" xmlns="http://www.w3.org/2000/svg"><g clip-path="url(#clip0_5_1092)"><path d="M12.37 0.70C14.77 0.70 16.74 2.52 16.93 4.84H18.65C19.29 4.84 19.90 5.11 20.36 5.59C20.83 5.90 21.17 6.37 21.32 6.92L25.34 21.95C25.36 22.15 25.32 22.35 25.29 22.55C25.24 22.87 25.13 23.17 24.95 23.44C24.78 23.71 24.55 23.95 24.28 24.13C24.01 24.30 23.70 24.42 23.39 24.48L23.39 24.48L8.76 27.18L8.76 27.18C8.62 27.21 8.47 27.22 8.33 27.22C7.82 27.22 7.32 27.06 6.91 26.76L6.91 26.76C6.65 26.57 6.43 26.33 6.27 26.05C6.10 25.77 6.00 25.46 5.96 25.14L5.95 25.03H4.94C4.61 25.03 4.29 24.97 3.99 24.84C3.69 24.71 3.42 24.53 3.20 24.29L3.20 24.29C2.98 24.05 2.80 23.78 2.70 23.47C2.59 23.17 2.54 22.84 2.56 22.52V22.52L3.72 7.01C3.81 5.79 4.86 4.84 6.10 4.84H7.82C8.01 2.52 9.98 0.70 12.37 0.70ZM8.15 25.13C8.17 25.25 8.20 25.36 8.26 25.47C8.32 25.57 8.41 25.66 8.50 25.73C8.60 25.80 8.71 25.85 8.83 25.88C8.95 25.90 9.07 25.91 9.19 25.89L14.81 24.85H8.13L8.15 25.13ZM22.18 22.52V22.65L23.01 22.49C23.10 22.48 23.17 22.43 23.22 22.35C23.27 22.28 23.28 22.19 23.26 22.12L23.26 22.11L21.72 16.36L22.18 22.52ZM12.37 2.72C11.10 2.72 10.06 3.65 9.88 4.84H14.86C14.68 3.64 13.64 2.72 12.37 2.72Z" fill="url(#paint0_linear_5_1092)"/><path d="M16.69 8.98C16.07 10.73 14.37 12.00 12.37 12.00C10.38 12.00 8.68 10.74 8.06 8.97C7.85 8.39 8.35 7.85 8.97 7.85C9.49 7.85 9.92 8.26 10.18 8.71C10.61 9.46 11.43 9.97 12.37 9.97C13.31 9.97 14.13 9.46 14.56 8.71C14.83 8.26 15.25 7.85 15.78 7.85C16.40 7.85 16.90 8.39 16.69 8.98Z" fill="white"/></g><defs><linearGradient id="paint0_linear_5_1092" x1="14.19" y1="32.62" x2="-25.73" y2="-17.16" gradientUnits="userSpaceOnUse"><stop offset="0.20" stop-color="#FF9114"/><stop offset="0.60" stop-color="#FFCA40"/><stop offset="1" stop-color="#FFE0F9"/></linearGradient><clipPath id="clip0_5_1092"><rect width="28" height="28" fill="white"/></clipPath></defs></svg>