<svg width="28" height="28" viewBox="0 0 28 28" fill="none" xmlns="http://www.w3.org/2000/svg"><g clip-path="url(#clip0_5_662)"><path fill-rule="evenodd" clip-rule="evenodd" d="M12.37 0.70C14.77 0.70 16.74 2.52 16.93 4.84H18.65C19.29 4.84 19.90 5.11 20.36 5.59C20.83 5.90 21.17 6.37 21.32 6.92L25.34 21.95C25.36 22.15 25.32 22.35 25.29 22.55C25.24 22.87 25.13 23.17 24.95 23.44C24.78 23.71 24.55 23.95 24.28 24.12C24.01 24.30 23.70 24.42 23.39 24.48L23.39 24.48L8.76 27.18L8.76 27.18C8.62 27.21 8.47 27.22 8.33 27.22C7.82 27.22 7.32 27.06 6.91 26.76L6.91 26.76C6.65 26.57 6.43 26.33 6.27 26.05C6.10 25.77 6.00 25.46 5.96 25.14L5.95 25.03H4.94C4.61 25.03 4.29 24.97 3.99 24.84C3.69 24.71 3.42 24.53 3.20 24.29L3.20 24.29C2.98 24.05 2.80 23.78 2.70 23.47C2.59 23.17 2.54 22.84 2.56 22.52V22.52L3.72 7.01C3.81 5.79 4.86 4.84 6.10 4.84H7.82C8.01 2.52 9.98 0.70 12.37 0.70ZM6.10 6.87C5.92 6.87 5.78 7.00 5.77 7.16L4.61 22.67C4.61 22.71 4.61 22.75 4.63 22.80C4.63 22.82 4.64 22.84 4.65 22.85L4.69 22.90L4.70 22.91C4.73 22.94 4.77 22.97 4.81 22.98C4.85 23.00 4.89 23.01 4.94 23.01H19.81C19.90 23.01 19.99 22.97 20.05 22.91C20.11 22.84 20.14 22.76 20.14 22.67L18.98 7.19C18.98 7.18 18.97 7.17 18.97 7.16L18.97 7.15C18.96 7.14 18.96 7.13 18.96 7.13L18.96 7.13C18.95 7.11 18.94 7.09 18.93 7.08L18.93 7.08L18.91 7.04L18.91 7.04C18.91 7.02 18.90 7.01 18.90 7.00C18.89 7.00 18.89 6.99 18.89 6.98C18.89 6.98 18.88 6.97 18.88 6.97L18.88 6.97C18.87 6.96 18.87 6.95 18.85 6.94L18.84 6.94L18.80 6.91L18.80 6.91L18.76 6.90C18.76 6.89 18.75 6.89 18.75 6.89C18.74 6.89 18.74 6.89 18.74 6.89C18.70 6.88 18.66 6.87 18.63 6.87C18.61 6.87 18.60 6.87 18.58 6.87C18.58 6.87 18.57 6.87 18.56 6.87C18.56 6.87 18.56 6.87 18.55 6.87H16.94V10.96C16.94 11.09 16.91 11.22 16.86 11.35C16.81 11.47 16.73 11.58 16.64 11.68C16.54 11.77 16.43 11.84 16.31 11.89C16.18 11.94 16.05 11.97 15.92 11.97L15.92 11.97L15.92 11.97L15.92 11.97C15.78 11.97 15.65 11.94 15.53 11.90C15.41 11.85 15.29 11.77 15.20 11.68C15.10 11.58 15.03 11.47 14.97 11.35C14.92 11.23 14.89 11.09 14.89 10.96V6.87H9.85V10.96C9.85 11.52 9.39 11.97 8.83 11.97L8.83 11.97C8.69 11.97 8.56 11.94 8.44 11.89C8.32 11.84 8.20 11.77 8.11 11.68C8.01 11.58 7.94 11.47 7.88 11.35C7.83 11.22 7.80 11.09 7.80 10.96V6.87H6.10ZM22.18 22.52L22.18 22.65L23.01 22.49C23.10 22.48 23.17 22.43 23.22 22.35C23.27 22.28 23.28 22.19 23.26 22.11L23.26 22.11L21.72 16.36L22.18 22.52ZM12.37 2.72C11.10 2.72 10.06 3.65 9.88 4.84H14.86C14.68 3.64 13.64 2.72 12.37 2.72Z" fill="#1F1722" fill-opacity="0.3"/></g><defs><clipPath id="clip0_5_662"><rect width="28" height="28" fill="white"/></clipPath></defs></svg>