<svg width="28" height="28" viewBox="0 0 28 28" fill="none" xmlns="http://www.w3.org/2000/svg">
<g clip-path="url(#clip0_5_1092)">
<path d="M12.373 0.699219C14.7673 0.699227 16.7448 2.52463 16.9287 4.84277H18.6504C19.2909 4.84286 19.8975 5.11049 20.3594 5.58984C20.8296 5.90099 21.172 6.3719 21.3193 6.91699L25.3359 21.9482C25.3573 22.1478 25.3233 22.3496 25.292 22.5488C25.2421 22.8659 25.1255 23.1691 24.9512 23.4385C24.776 23.7108 24.5469 23.9455 24.2773 24.125C24.0081 24.3043 23.7042 24.4248 23.3857 24.4814L23.3867 24.4824L8.76172 27.1816L8.76074 27.1807C8.6198 27.2082 8.47256 27.2197 8.32715 27.2197C7.81915 27.22 7.32341 27.0615 6.91113 26.7646L6.91016 26.7637C6.64878 26.5728 6.42954 26.3294 6.2666 26.0498C6.10368 25.7701 6.00001 25.4592 5.96289 25.1377L5.95117 25.0332H4.93945C4.61428 25.0334 4.29221 24.9676 3.99316 24.8398C3.6943 24.7121 3.42384 24.5259 3.19922 24.291L3.19824 24.2891C2.97628 24.0539 2.80442 23.7751 2.69531 23.4707C2.58625 23.1663 2.54145 22.8421 2.56348 22.5195V22.5186L3.71973 7.0127C3.81001 5.79059 4.85886 4.84287 6.0957 4.84277H7.81934C8.00867 2.51891 9.98126 0.699465 12.373 0.699219ZM8.15332 25.1299C8.16607 25.2487 8.20328 25.3637 8.26367 25.4668C8.32412 25.57 8.40639 25.6592 8.50391 25.7285C8.60254 25.7989 8.71393 25.8498 8.83203 25.877C8.95022 25.9042 9.07281 25.907 9.19238 25.8867L14.8145 24.8477H8.125L8.15332 25.1299ZM22.1826 22.5186V22.6475L23.0117 22.4941C23.1009 22.4768 23.1727 22.429 23.2227 22.3525C23.269 22.2773 23.281 22.1947 23.2598 22.1152L23.2588 22.1143L21.7217 16.3584L22.1826 22.5186ZM12.373 2.72461C11.1041 2.72481 10.0568 3.65042 9.88086 4.84277H14.8623C14.6824 3.64431 13.6383 2.72484 12.373 2.72461Z" fill="url(#paint0_linear_5_1092)"/>
<path d="M16.69 8.97511C16.0676 10.7337 14.3651 11.9963 12.374 11.9965C10.3829 11.9964 8.68187 10.7357 8.05842 8.97265C7.85228 8.38969 8.34896 7.85291 8.9673 7.85291C9.49209 7.85291 9.91772 8.25586 10.1796 8.71066C10.6116 9.46102 11.4313 9.97092 12.373 9.97107C13.3127 9.97096 14.1309 9.46383 14.5634 8.71195C14.8257 8.25603 15.2524 7.85291 15.7784 7.85291C16.3984 7.85291 16.8969 8.3906 16.69 8.97511Z" fill="white"/>
</g>
<defs>
<linearGradient id="paint0_linear_5_1092" x1="14.1931" y1="32.6217" x2="-25.7316" y2="-17.1586" gradientUnits="userSpaceOnUse">
<stop offset="0.196785" stop-color="#FF9114"/>
<stop offset="0.59787" stop-color="#FFCA40"/>
<stop offset="1" stop-color="#FFE0F9"/>
</linearGradient>
<clipPath id="clip0_5_1092">
<rect width="28" height="28" fill="white"/>
</clipPath>
</defs>
</svg>
