<svg width="28" height="28" viewBox="0 0 28 28" fill="none" xmlns="http://www.w3.org/2000/svg">
<g clip-path="url(#clip0_5_668)">
<path fill-rule="evenodd" clip-rule="evenodd" d="M12.3736 0.699463C14.7679 0.699472 16.7449 2.52419 16.9288 4.84233H18.6506C19.2911 4.84242 19.8979 5.11035 20.3597 5.58972C20.8301 5.90094 21.1723 6.37214 21.3196 6.9174L25.3362 21.9478C25.3577 22.1475 25.3231 22.3495 25.2917 22.549C25.2418 22.866 25.1256 23.1686 24.9512 23.438C24.776 23.7105 24.547 23.945 24.2774 24.1246C24.008 24.3039 23.7042 24.4248 23.3856 24.4815L23.3865 24.4824L8.76202 27.1813L8.76112 27.1804C8.62001 27.208 8.47262 27.2195 8.32703 27.2195C7.819 27.2197 7.32356 27.0614 6.91126 26.7645L6.91036 26.7636C6.64895 26.5727 6.42944 26.3295 6.26649 26.0498C6.10357 25.7701 6.00029 25.4596 5.96318 25.138L5.95137 25.0336H4.93972C4.61451 25.0338 4.29254 24.9679 3.99346 24.8402C3.6945 24.7125 3.42443 24.5257 3.19975 24.2908L3.19794 24.2889C2.97598 24.0537 2.80485 23.7752 2.69574 23.4707C2.58665 23.1663 2.54203 22.8425 2.56407 22.5199V22.5181L3.72011 7.01275C3.81037 5.79063 4.85891 4.84243 6.09577 4.84233H7.81939C8.00874 2.51832 9.98165 0.699486 12.3736 0.699463ZM6.09577 6.86564C5.9194 6.86566 5.77769 7.00112 5.76612 7.16259L4.61007 22.667C4.60664 22.7101 4.61182 22.7545 4.62642 22.7951C4.63372 22.8154 4.64323 22.835 4.65457 22.8532L4.69453 22.904L4.69725 22.9068C4.72822 22.9394 4.7658 22.9654 4.80714 22.9831C4.84845 23.0007 4.89299 23.0095 4.93791 23.0094H19.8067C19.8996 23.0093 19.986 22.9731 20.0518 22.905C20.112 22.8416 20.1419 22.7584 20.1363 22.667L18.9803 7.18802C18.9773 7.1787 18.9747 7.1693 18.9721 7.15987L18.9657 7.14716C18.9632 7.14187 18.9595 7.13432 18.9557 7.12627L18.9566 7.12536C18.9476 7.10926 18.9386 7.09326 18.9312 7.07632L18.9303 7.07723L18.9149 7.04454L18.9103 7.03546C18.9054 7.02402 18.9011 7.01286 18.8976 7.00458C18.8939 6.99568 18.891 6.98936 18.8885 6.98369C18.8852 6.976 18.8826 6.97156 18.8813 6.96916L18.8776 6.96553C18.8732 6.96197 18.8653 6.95479 18.8468 6.94283L18.8377 6.93738L18.8041 6.91377L18.7959 6.90832L18.7605 6.89561C18.7557 6.89398 18.7511 6.89283 18.7487 6.89197C18.7435 6.89009 18.7401 6.88828 18.7378 6.88743C18.6989 6.87604 18.6591 6.87068 18.6261 6.86836C18.6098 6.86722 18.596 6.86679 18.5843 6.86655C18.5803 6.86647 18.5698 6.86684 18.5625 6.86655C18.5604 6.86646 18.5558 6.8661 18.5498 6.86564H16.9433V10.958C16.9423 11.0917 16.9147 11.2244 16.8625 11.3475C16.8104 11.4707 16.7344 11.5825 16.6391 11.6763C16.5438 11.7701 16.4307 11.8441 16.3067 11.8942C16.1839 11.9439 16.0524 11.9684 15.9199 11.9678L15.9208 11.9687L15.9181 11.9678L15.9162 11.9687C15.784 11.9694 15.6529 11.9446 15.5303 11.8951C15.4061 11.845 15.2925 11.7711 15.197 11.6772C15.1016 11.5835 15.0259 11.4716 14.9736 11.3485C14.9213 11.2251 14.8938 11.0919 14.8928 10.958V6.86564H9.85359V10.9561C9.85359 11.5201 9.39034 11.967 8.82923 11.9678L8.82741 11.9687C8.69454 11.9694 8.5628 11.9441 8.43964 11.8942C8.31572 11.844 8.20255 11.7701 8.10727 11.6763C8.01201 11.5825 7.93598 11.4707 7.88387 11.3475C7.83176 11.2244 7.80498 11.0917 7.80395 10.958V6.86564H6.09577ZM22.1823 22.5181L22.1832 22.647L23.0114 22.4945C23.1009 22.4772 23.173 22.4294 23.223 22.3528C23.2694 22.2774 23.2816 22.1944 23.2603 22.1149L23.2593 22.114L21.7219 16.3583L22.1823 22.5181ZM12.3727 2.72458C11.1038 2.72479 10.0568 3.64998 9.88084 4.84233H14.8628C14.6829 3.64373 13.6382 2.72458 12.3727 2.72458Z" fill="white" fill-opacity="0.3"/>
</g>
<defs>
<clipPath id="clip0_5_668">
<rect width="28" height="28" fill="white"/>
</clipPath>
</defs>
</svg>
