<svg width="59" height="23" viewBox="0 0 59 23" fill="none" xmlns="http://www.w3.org/2000/svg">
<path d="M56.8428 1.63735C57.2316 1.63473 58.6901 1.35195 58.9199 1.7184C59.0775 1.97058 58.9534 2.88168 58.9561 3.20082C58.9588 3.55704 58.9672 3.86436 58.96 4.21547C58.9519 4.6422 59.0719 6.07561 58.833 6.30043C58.7122 6.41388 58.5447 6.44877 58.3799 6.46742C57.5261 6.5599 55.5533 6.54318 54.6797 6.46938C54.4795 6.45241 54.2877 6.44923 54.1426 6.29653C54.1542 5.74524 54.0085 5.08462 54.0049 4.56215C53.9995 3.83849 53.9986 3.07675 54.0049 2.35903C54.0094 1.90548 54.0893 1.59945 54.6065 1.58071L54.6074 1.57973C55.3458 1.55343 56.1017 1.64159 56.8428 1.63735ZM57.9736 6.1686C57.9736 6.23816 58.1969 6.33866 58.2871 6.29457C58.5801 6.20712 58.2422 5.10793 58.2422 4.85512H57.9736V6.1686ZM58.7822 1.72133C58.1124 1.86895 57.3871 1.83501 56.7109 1.72133V2.0602H58.4219V2.23012H56.8457L56.71 2.48403H58.377C58.3959 2.48403 58.4801 2.3569 58.5117 2.39906V2.65395H56.6201V3.07778C56.1279 3.14733 55.6238 3.12576 55.1289 3.15883C54.9675 3.16986 54.8377 3.13613 54.7295 3.28969C55.2875 3.638 55.9866 3.142 56.6113 3.42446C56.6974 3.57074 56.5414 4.01039 56.3945 4.01039H54.457C54.4499 3.95569 54.5739 3.84234 54.5918 3.84047H56.2139L56.3496 3.58656H54.6826C54.0488 2.42178 55.7283 3.16825 56.3486 2.90785C56.3874 2.82896 56.268 2.65395 56.2139 2.65395H54.5469V2.48403H56.4395V1.80531C56.1074 1.87989 54.3791 1.6372 54.2764 1.93324L54.2783 1.93129V4.68617H55.9453L56.0811 4.94008H54.5039C54.4742 4.94008 54.3977 4.84644 54.3311 4.85805L54.1895 4.98403L54.3232 5.19496H55.8555C55.8791 5.19469 55.9765 5.07454 56.0801 5.11098L55.9453 5.36489H54.2783L54.291 6.07289L54.4268 6.19985L56.6553 6.29067L56.7881 6.15688L56.8467 5.36489L56.9824 6.2975L57.252 6.21254V4.68715H57.5215C57.5555 4.77907 57.4331 4.87213 57.4316 4.89906V6.17153C58.1187 6.68469 57.6441 4.85152 57.7041 4.77602L58.4209 4.6891L58.6035 6.21254C58.8666 6.04015 58.8114 5.40402 58.8213 5.06899C58.8348 4.62533 58.7771 4.08504 58.7744 3.62953C58.7708 2.99919 58.8219 2.36015 58.7822 1.72133ZM56.3057 4.26137C56.6672 4.47007 56.7054 5.49073 56.4033 5.70961C56.0391 5.97343 54.8568 5.80385 54.3682 5.95571C54.3402 5.79287 54.4396 5.72896 54.5938 5.7018C55.1023 5.61442 55.7836 5.84566 56.2695 5.49867C56.4335 5.31949 56.3889 4.43078 56.125 4.43031H54.458V4.26039H56.3047L56.3057 4.26137ZM56.8906 3.78969C56.9619 3.75066 57.0074 3.83754 57.0264 3.83754H58.5127V3.83852L58.5 4.33461C58.1096 4.55238 57.4975 4.33444 57.1279 4.44301C56.8757 4.51781 57.1658 5.2357 56.7129 4.80727L56.8906 4.26039H58.2422V4.00649H56.8008L56.8906 3.78969ZM56.8027 3.6686C56.7933 2.96505 58.0044 3.55236 58.5137 3.41664C58.5192 3.47113 58.3932 3.58461 58.3779 3.58461C57.9588 3.58459 57.4239 3.54136 57.0264 3.58461L56.9375 3.64028C56.899 3.66471 56.8529 3.68408 56.8027 3.6686ZM56.8447 2.98989C56.9517 2.84838 57.9514 2.88693 58.1768 2.92934C58.3433 2.96066 58.4733 2.96745 58.4229 3.15981H56.9356L56.8447 2.98989ZM55.8818 1.99574C56.0511 1.98719 56.1354 1.92305 56.2588 2.10024C56.2539 2.36347 54.7733 2.07912 54.5498 2.39711L54.6377 2.09828C55.0397 2.07367 55.4754 2.01695 55.8818 1.99574Z" fill="#EA3A3A"/>
<path d="M40.2657 15.8904C40.4419 15.637 41.3948 16.7062 41.4933 16.6414C41.4875 16.5382 41.4884 16.5282 41.5997 16.5428C41.5251 16.7835 41.8183 16.9331 41.7872 17.1443C41.7653 17.2901 41.3372 17.9463 41.2237 18.1092C39.4016 20.444 36.3713 23.0755 33.1368 22.9978C33.1124 22.8549 33.1692 22.9149 33.2579 22.8914C35.0341 22.7391 36.8123 22.0793 38.1515 20.9207C37.9883 20.7276 36.1401 22.0718 35.9064 21.7478C38.0321 20.9222 40.0644 18.0398 40.2657 15.8904ZM10.7657 0.076933C10.8776 -0.0317295 12.138 0.405155 12.3468 0.489042C13.1443 0.809102 12.6898 1.0448 12.5987 1.60721C12.5721 1.77037 12.553 2.07629 12.5431 2.25369C12.496 3.06571 12.5765 3.91571 12.5431 4.73123C12.6677 4.75871 12.6278 4.7098 12.6593 4.6658C13.0952 4.05817 13.7718 2.51367 13.8878 1.78982C13.9309 1.51984 13.7697 1.0474 14.1798 1.23611C14.4045 1.33976 14.9095 1.68078 15.1192 1.83768C15.3497 2.00997 15.5945 2.12584 15.4191 2.45682C14.5906 3.27134 13.7889 4.09399 12.881 4.82986C12.5513 5.09715 12.4825 4.99491 12.5431 5.53201C13.1301 5.46439 13.8747 5.52021 14.4366 5.36893C14.9153 5.24006 15.2135 4.659 15.7052 5.13064C15.8385 5.25838 16.4848 6.0173 16.5685 6.15506C16.8971 6.69587 15.9839 6.33136 15.7433 6.29568C15.4077 6.24559 15.1736 6.27998 14.8673 6.28299C14.0553 6.29101 13.2505 6.34901 12.4396 6.38357C12.6603 6.61 13.936 7.02307 13.9366 7.35916L12.0734 9.33572C12.4581 9.25257 12.8979 9.30179 13.2784 9.21463C13.6143 9.13737 13.9161 8.73374 14.2384 8.78494C14.3773 8.80746 15.4243 9.96635 15.4122 10.0545C15.3678 10.318 14.5544 10.0514 14.3448 10.0369C14.1886 10.0264 14.0299 10.042 13.8732 10.034L11.6808 10.1863L11.5509 10.2615V11.7625C11.59 11.8135 11.5965 11.8172 11.6573 11.8172C11.8758 11.8172 12.3927 11.7707 12.5997 11.7156C12.9447 11.6238 13.3391 11.0864 13.7159 11.3904C13.8497 11.4986 14.2818 12.0418 14.423 12.2146C15.09 13.0312 14.1598 12.6193 13.6691 12.5857C13.1595 12.5512 12.3003 12.5802 11.7911 12.6433C11.7081 12.6538 11.6266 12.6792 11.5509 12.7127L11.3946 14.4402L14.2355 14.284C14.7878 14.3212 15.3341 13.5002 15.8107 13.9373C15.933 14.2213 16.7839 14.9526 16.8194 15.1765C16.8267 15.222 16.837 15.2518 16.8048 15.2928C16.7013 15.4255 15.7842 15.1555 15.5489 15.1385C15.0415 15.1009 14.5299 15.1732 14.0314 15.1902C13.2725 15.2163 12.5166 15.2447 11.7599 15.2908C12.1252 16.0396 12.6761 16.3403 13.2003 16.991C13.2122 17.0055 13.7206 17.6284 13.8224 17.7429C14.3822 18.3706 15.1191 18.5531 15.8185 19.034C16.0094 19.1651 17.094 19.7872 17.1329 19.8767C17.1481 19.9128 17.1547 20.0128 17.1359 20.0398C16.7429 20.1365 16.3711 20.1708 15.9933 20.3211C15.7299 20.4259 15.1252 20.8776 14.9689 20.8943C14.8857 20.9028 14.8258 20.8878 14.7511 20.8562C14.5083 20.7541 13.9421 19.8948 13.7765 19.6385C13.2637 18.8465 12.8476 18.4452 12.464 17.5896L12.3653 17.4412L11.4884 15.3513L11.2482 15.3494C11.0574 16.3728 10.7242 17.3735 10.2208 18.2937C10.1715 18.3834 9.74526 19.0113 9.77648 19.0428L9.5128 19.3631C9.32158 19.5151 9.19636 19.7359 9.01769 19.8963C8.21752 20.614 7.36175 21.1458 6.33898 21.534C6.12101 21.6166 4.74595 22.088 4.65343 21.9969L4.65441 21.8484C5.36947 21.617 6.56849 20.6712 7.10948 20.2244C7.4387 19.9585 7.86294 19.4998 8.09191 19.2107C8.89262 18.1218 9.41399 16.759 9.61632 15.4412L6.87901 15.7908C6.70286 15.7708 6.32049 15.3828 6.19347 15.241C6.12798 15.1677 5.85151 14.8708 5.90734 14.7908L9.73839 14.5437C9.79622 14.5086 9.81102 14.4236 9.82042 14.3621C9.89254 13.8777 9.90837 13.3291 9.9298 12.8377C9.78305 12.8431 9.6337 12.8282 9.48644 12.8387C9.14985 12.8622 8.19651 13.1099 7.98155 13.0789C7.83676 13.0583 7.04577 12.226 7.05675 12.1629L9.98155 11.9373V10.4109C9.94738 10.3043 9.45777 10.3745 9.32921 10.3865C8.91959 10.4241 8.49898 10.4935 8.09093 10.5506C7.91022 10.5756 7.64479 10.6787 7.49523 10.6834C7.14449 10.6934 6.82348 10.028 6.53234 9.85916L6.58507 9.70877L8.93761 9.53494C8.64803 8.56064 8.26964 7.65054 7.6837 6.80447C7.56643 6.73569 6.49224 7.05831 6.16612 6.96072C6.0966 6.94018 5.47672 6.32483 5.40929 6.23416C5.36749 6.17822 5.31068 6.1469 5.33312 6.05838C5.37622 5.90094 8.35025 5.91966 8.70519 5.73514C8.72348 4.81091 8.76037 3.87616 8.73058 2.95193C8.7149 2.46316 8.71223 1.66953 8.61144 1.21463C8.55185 0.945626 8.35614 0.707567 8.36241 0.426542C8.44741 0.346571 9.61101 0.754753 9.79991 0.825956C9.92157 0.871994 10.265 0.980564 10.3126 1.08865C10.4569 1.41977 10.1306 1.89808 10.1368 2.25174L10.086 5.6824L11.1319 5.63162C11.099 4.52417 11.1736 3.40849 11.1339 2.30154C11.1182 1.86533 11.107 1.18138 11.003 0.776152C10.9398 0.529191 10.7663 0.325397 10.7657 0.076933ZM25.0567 1.10721C25.3053 1.15391 26.6286 1.62265 26.7794 1.75857C26.8374 1.81117 26.9118 1.8978 26.9259 1.97244C26.9587 2.15139 26.6981 2.82447 26.6739 3.11209C26.6431 3.47667 26.6318 3.93969 26.6192 4.31033C26.5675 5.85063 26.6614 6.44297 26.6212 7.98318H26.6603C26.7442 7.97202 26.8031 7.89028 26.8575 7.83377C28.2861 6.353 29.4624 4.08657 29.8058 2.09939H29.9679L31.4493 3.33279C31.5492 3.5006 31.5499 3.61894 31.4679 3.79275C31.3728 3.99411 30.7755 4.68713 30.5909 4.90408C29.4697 6.22403 28.1016 7.30609 26.671 8.30545C26.5817 8.42383 26.5989 8.86976 26.671 9.01248C26.7552 9.06706 27.7109 8.94486 27.9025 8.93435C28.6724 8.89131 29.981 8.9364 30.673 8.73709C31.1329 8.60484 31.665 7.95334 32.1417 8.40018C32.2421 8.49479 33.125 9.60943 33.1642 9.69803C33.2032 9.78647 33.2229 9.88289 33.1964 9.9783C33.1426 9.99984 33.0806 10.0271 33.0216 10.0271C32.7052 10.0259 32.0806 9.76427 31.6642 9.73318C30.8488 9.67257 30.0179 9.79116 29.2062 9.83475C29.0519 9.84322 28.4844 9.79371 28.42 9.88162C28.3139 11.1074 28.3551 12.3364 28.3478 13.5662C28.3404 14.7957 28.2894 15.1028 28.3458 16.3679C28.3704 16.9185 28.3839 17.8565 28.9552 18.1326C29.4893 18.3905 31.0303 18.349 31.5782 18.1111C31.8506 17.9929 31.9455 17.8718 32.0401 17.6023L32.797 13.9734L32.9942 13.8875C33.0073 15.0765 32.909 16.3318 33.2931 17.4793C33.5048 18.1114 34.1911 18.8315 33.4913 19.4422C32.7523 20.0868 29.7318 20.0602 28.7618 19.8689C26.7876 19.4792 26.8287 17.7961 26.7765 16.2156C26.697 13.8197 26.8459 12.4128 26.7706 10.0164L26.672 9.95584L24.0616 10.1355C24.2127 10.3985 24.936 10.4578 25.0314 10.7322C25.0972 10.922 24.9771 11.606 24.9425 11.8543C24.4167 15.6789 22.5844 19.7602 18.9249 21.7049C18.7899 21.777 18.2071 22.1555 18.2091 21.8709C18.2096 21.7768 19.3629 20.7005 19.5431 20.4959C21.5863 18.1765 22.8409 14.9604 23.2189 11.9558C23.2429 11.765 23.3933 10.257 23.2482 10.2332C22.1489 10.2517 21.0615 10.4417 19.9737 10.5779C19.887 10.5484 19.8049 10.5068 19.7286 10.4578C19.6335 10.3962 19.0423 9.79007 18.9659 9.68728C18.9241 9.63068 18.8678 9.60017 18.8898 9.5115L25.0538 9.13553C25.0888 7.26554 25.1556 6.33672 25.1085 4.46072C25.0881 3.64171 25.0977 2.49928 24.8829 1.72439C24.8233 1.5106 24.6489 1.32009 24.6876 1.08475C24.8131 1.07573 24.9329 1.08416 25.0567 1.10721ZM42.8048 12.3113C42.8853 11.8196 44.6662 12.7422 44.8429 12.8094C45.0443 13.0769 44.6671 13.5395 44.7335 13.8387L48.7237 13.6336C49.3661 13.6115 49.9322 12.6974 50.5343 13.2117C50.51 13.3876 52.097 14.7092 51.5392 14.8318C49.8827 14.4366 47.5789 14.538 45.9884 14.7635C46.9674 17.1439 49.4431 19.2499 51.8146 20.2879C51.8402 20.711 50.78 20.5122 50.5187 20.7517C49.9719 20.9676 49.8244 21.4298 49.2306 21.0105C47.3076 19.685 47.0234 16.2607 44.6817 15.4412C44.6703 16.771 44.6776 18.6432 44.7628 19.9461C44.8109 20.3638 43.6358 20.7583 43.3253 20.9217C42.6808 21.1105 43.2046 19.9916 43.1163 19.6209C42.9182 18.6836 43.8359 14.7398 42.5919 15.366C45.0622 14.3802 37.6391 15.3692 37.1368 15.4373C36.6834 15.3368 36.222 14.7055 35.9591 14.3689L43.0812 13.9324C43.2916 13.5392 42.8849 12.6486 42.8048 12.3113ZM4.88585 3.62967C5.11009 3.65972 5.85118 4.67128 6.04405 4.87967L5.98937 4.98416C5.78753 5.11576 5.29107 4.90999 5.03917 4.88846C4.4513 4.83795 3.83525 5.02442 3.24425 5.03299V5.03201C3.21932 5.14628 3.25635 5.11179 3.31066 5.14432C3.45404 5.2299 3.8054 5.29817 3.90831 5.39529C4.16217 5.63514 3.83496 6.15968 3.81847 6.45779L3.76573 9.53592C4.23559 9.63898 4.61616 8.97379 5.03429 9.09451C5.12946 9.12216 5.54675 9.59983 5.64464 9.7117C6.71253 10.9315 5.88383 10.3863 5.04698 10.3347C4.61794 10.3083 4.19008 10.4148 3.76573 10.4363L3.82433 15.6082L3.97472 15.6668L6.14171 14.0896C6.35379 14.257 6.04852 14.5291 5.92784 14.6853C4.79153 16.1534 3.12359 17.5722 1.67687 18.7693C1.39726 19.0007 1.14542 19.3299 0.880968 18.9304C0.797335 18.8037 0.323147 17.8657 0.289171 17.7439C0.246941 17.5919 0.240501 17.4828 0.403429 17.3992C0.696212 17.281 2.22565 16.7723 2.29308 16.5574L2.3546 10.6375C2.3086 10.5869 1.24813 10.9534 0.981554 10.8767C0.90812 10.8554 0.149744 10.0691 0.161241 10.0115C0.27885 9.91733 0.506727 9.90454 0.658312 9.8865C0.893049 9.85846 2.26786 9.82718 2.33214 9.73904C2.34417 8.74891 2.39409 7.74676 2.35753 6.75662C2.35335 6.6384 2.30716 6.52816 2.30089 6.40994C2.27792 5.99273 2.3358 5.59564 2.19835 5.18143C1.85223 5.18004 1.08198 5.50951 0.801866 5.39432C0.751513 5.37247 0.0955244 4.71901 0.0547961 4.65896C0.0140981 4.59896 -0.0100115 4.56017 0.00401485 4.48221L4.05577 4.03396C4.3144 3.92781 4.57815 3.58894 4.88585 3.62967ZM39.67 0.00271421C39.8148 0.0307665 40.5955 0.661255 40.7638 0.802519C41.0998 1.08439 41.615 1.37093 41.4015 1.86502L39.6134 4.68143L39.6144 4.68045C40.5552 4.88182 40.205 5.18889 40.0968 5.76834C39.8297 7.19949 40.0594 9.50224 40.086 11.0096C40.0928 11.3952 40.1391 12.0582 40.0812 12.4099C40.0566 12.5597 39.9623 12.6466 39.84 12.7303C39.7007 12.8252 38.5459 13.3569 38.4444 13.3426L38.5685 5.9324C38.4776 5.90994 38.4635 5.96954 38.4112 6.0076C38.0302 6.28582 37.5146 6.95333 37.1066 7.30935C36.814 7.56521 36.4518 7.84845 36.1378 8.08182C35.9758 8.20249 35.3102 8.72345 35.1525 8.6824C34.9094 8.44596 35.4692 8.10635 35.6417 7.90799C37.0112 6.33055 38.3618 4.21544 39.0538 2.26834C39.3036 1.56465 39.5278 0.778261 39.5138 0.0329876C39.5639 0.0159886 39.6147 -0.00815077 39.67 0.00271421ZM42.9581 0.427519C43.0795 0.312846 44.9349 1.12209 45.1691 1.28689C46.0427 1.90203 45.6292 2.72801 45.047 3.37967C45.2116 3.37616 45.3784 3.38818 45.5431 3.37967C46.0172 3.35561 47.1155 3.28192 47.504 3.10623C47.7988 2.97298 48.0383 2.61852 48.3858 2.80838C48.4639 2.85131 49.3656 3.85458 49.4308 3.96365C49.6971 4.41408 48.5927 4.05304 48.4103 4.03689C48.2207 4.02088 48.0301 4.03458 47.84 4.0281L44.4718 4.33084L45.0421 4.56033C45.4634 4.80579 44.9305 5.59496 45.046 5.98318C45.6591 5.9336 46.5399 5.9887 47.0851 5.70877C47.4603 5.51595 47.6287 5.17595 48.0509 5.58084C48.1548 5.6809 48.8948 6.54456 48.9112 6.61111C48.998 6.99283 48.331 6.71278 48.0958 6.68924C47.0892 6.58913 46.0552 6.82225 45.046 6.83377L45.0128 8.41287L45.0782 8.47732C45.1973 8.49133 45.3204 8.4921 45.4405 8.48709C45.8175 8.47005 46.7784 8.41817 47.0968 8.32303C47.4151 8.22786 47.7099 7.83757 48.047 7.8826C48.2378 7.90814 49.0102 8.9166 49.1749 9.11209C49.2178 9.46074 48.3676 9.16092 48.1476 9.14139C47.9752 9.1264 47.8023 9.13857 47.63 9.13357L45.046 9.33572V10.9871C45.2974 10.9816 45.551 10.9946 45.8028 10.9861C46.282 10.9701 47.687 10.9056 48.0587 10.7459C48.343 10.6237 48.7105 10.2035 49.0382 10.491C49.1348 10.5756 49.943 11.5103 49.9806 11.5896C50.1985 12.052 49.257 11.7078 49.0411 11.6892C48.6559 11.6562 48.1292 11.6748 47.7335 11.6863C45.8482 11.7409 43.7649 11.9239 41.8917 12.1443C41.5107 12.1894 41.2555 12.3892 40.8985 12.0828C40.84 12.0322 40.3816 11.5237 40.3419 11.4646C40.3023 11.4057 40.2771 11.3653 40.2921 11.2879L43.5304 11.0877V9.53592L41.753 9.76639C41.5927 9.72226 40.8815 9.00355 40.8663 8.91092C40.8496 8.80757 41.1232 8.79343 41.2071 8.78592C41.9781 8.71879 42.762 8.7312 43.5314 8.63553V7.03299C43.4496 6.95734 41.996 7.31877 41.7335 7.28201C41.4999 7.24945 41.0105 6.58333 40.8155 6.40799L43.4825 6.16092C43.6345 6.05902 43.4458 4.6797 43.3741 4.43045L41.2638 4.72928C41.1499 4.71776 41.0756 4.65189 40.9962 4.58279C40.9353 4.52989 40.3691 3.9035 40.3458 3.85525C40.2982 3.74805 40.4265 3.79053 40.4767 3.78201C41.1598 3.66379 42.0109 3.68677 42.7218 3.62967C43.2957 3.58358 43.8673 3.48025 44.4464 3.48025L44.5773 3.4031C44.2772 2.53554 43.8519 1.71459 43.3146 0.960722C43.1944 0.791965 42.9514 0.658344 42.9581 0.427519ZM8.15441 6.73318C8.76827 7.28814 10.3153 7.88765 9.87999 8.91189L9.40831 9.53494L11.4366 9.37771C11.849 8.44354 12.4752 7.42996 12.2804 6.3826L8.15441 6.73318ZM20.6984 3.03201C20.805 3.01798 20.8768 3.07607 20.9552 3.12967C21.6035 3.57477 23.468 5.53332 23.5401 6.2576C23.5823 6.67784 23.2888 7.23111 22.9669 7.50955C21.962 8.37832 21.9976 6.90523 21.8429 6.28201C21.6438 5.48164 21.3807 4.75114 21.0421 3.99685C20.9569 3.80756 20.6463 3.33907 20.6232 3.19314C20.6101 3.10911 20.6182 3.0755 20.6984 3.03201ZM6.06456 2.02908C6.16491 1.9254 7.21258 2.67473 7.34288 2.78103C8.02606 3.33757 8.67348 4.04713 7.78331 4.80154C6.95447 5.50369 6.95475 4.36283 6.79698 3.85525C6.72955 3.63735 6.64593 3.39184 6.55968 3.18045C6.44515 2.89956 6.14798 2.46889 6.07726 2.24197C6.0553 2.17234 6.06143 2.09971 6.06456 2.02908Z" fill="white"/>
</svg>
