<svg xmlns="http://www.w3.org/2000/svg" width="59" height="23" viewBox="0 0 59 23" fill="none">
  <path d="M54.6076 1.57996C55.346 1.55366 56.1015 1.64189 56.8426 1.63765C57.2312 1.6351 58.69 1.35175 58.9199 1.71824C59.0777 1.97021 58.9532 2.88221 58.9559 3.2012C58.9587 3.55751 58.9668 3.86462 58.9596 4.21585C58.9514 4.64258 59.0723 6.07548 58.8333 6.3003C58.7125 6.41398 58.5448 6.44876 58.3798 6.46743C57.526 6.5599 55.5533 6.54293 54.6797 6.46912C54.4795 6.45216 54.2875 6.44961 54.1423 6.29691C54.1541 5.74546 54.008 5.08458 54.0044 4.56199C53.999 3.83832 53.9981 3.07734 54.0044 2.35961C54.0089 1.90573 54.0892 1.59947 54.6067 1.58081L54.6076 1.57996ZM54.2785 1.93119V4.68585H55.9455L56.0808 4.94036H54.5039C54.4741 4.94036 54.3975 4.84619 54.3308 4.85807L54.1892 4.98447L54.3236 5.19487H55.8554C55.8788 5.19487 55.9762 5.0744 56.0799 5.11088L55.9455 5.36454H54.2785L54.2911 6.07293L54.4263 6.20019L56.6551 6.29097L56.7876 6.15692L56.8462 5.36454L56.9824 6.29775L57.2519 6.21292V4.68754H57.5215C57.5558 4.78002 57.4314 4.87334 57.4314 4.89964V6.17135C58.1202 6.68631 57.6423 4.84449 57.7045 4.77578L58.4204 4.68924L58.6034 6.21292C58.8667 6.0407 58.8117 5.40442 58.8216 5.06931C58.8351 4.62561 58.7774 4.0852 58.7747 3.62963C58.7711 2.99929 58.8216 2.36046 58.7819 1.72164C58.1121 1.86925 57.3872 1.83532 56.711 1.72164V2.06014H58.4222V2.22981H56.8453L56.7101 2.48432H58.3771C58.3961 2.48432 58.4799 2.35707 58.5115 2.39949V2.654H56.6199V3.07818C56.1277 3.14775 55.6237 3.12569 55.1287 3.15878C54.9673 3.16981 54.8375 3.13587 54.7293 3.28943C55.2874 3.63811 55.9861 3.14181 56.6109 3.42432C56.6975 3.57024 56.5415 4.01054 56.3945 4.01054H54.457C54.4498 3.9554 54.576 3.84087 54.5922 3.84087H56.2142L56.3494 3.58636H54.6824C54.0486 2.42154 55.7282 3.16811 56.3485 2.90766C56.3873 2.82876 56.2683 2.654 56.2142 2.654H54.5472V2.48432H56.4396V1.80563C56.1078 1.88028 54.3795 1.6368 54.2767 1.93288L54.2785 1.93119ZM57.9732 4.85467V6.1688C57.9732 6.23837 58.1968 6.33847 58.287 6.29436C58.58 6.20698 58.2419 5.10834 58.2419 4.85552H57.9732V4.85467Z" fill="#EA3A3A"/>
  <path d="M56.306 4.26159C56.6675 4.47029 56.7054 5.49088 56.4034 5.70976C56.0391 5.9736 54.8571 5.80393 54.3685 5.95579C54.3405 5.7929 54.4397 5.72927 54.5939 5.70213C55.1024 5.61474 55.7831 5.8455 56.269 5.49852C56.4331 5.31951 56.3889 4.43042 56.1248 4.43042H54.4577V4.26074H56.3051L56.306 4.26159Z" fill="#EA3A3A"/>
  <path d="M58.5129 3.83825L58.5003 4.33455C58.1099 4.55258 57.4977 4.33455 57.128 4.44314C56.8756 4.5178 57.1659 5.23637 56.7124 4.80709L56.8909 4.26074H58.2424V4.00623H56.8008L56.8909 3.7899C56.9621 3.75087 57.0072 3.8374 57.0262 3.8374H58.5129V3.83825Z" fill="#EA3A3A"/>
  <path d="M56.9358 3.15991L56.8447 2.99023C56.9511 2.84855 57.951 2.88673 58.1764 2.92915C58.3432 2.96054 58.473 2.96733 58.4225 3.15991H56.9358Z" fill="#EA3A3A"/>
  <path d="M57.0268 3.58426C56.988 3.5885 56.9033 3.70049 56.8023 3.6691C56.7924 2.96495 58.0041 3.55202 58.5135 3.41628C58.5198 3.47058 58.3936 3.58511 58.3783 3.58511C57.959 3.58511 57.4244 3.54184 57.0268 3.58511V3.58426Z" fill="#EA3A3A"/>
  <path d="M54.5498 2.39693L54.6373 2.0983C55.0394 2.0737 55.4748 2.01686 55.8815 1.99565C56.051 1.98716 56.1357 1.92269 56.2592 2.1C56.2556 2.36384 54.7734 2.07879 54.5498 2.39693Z" fill="#EA3A3A"/>
  <path d="M26.6224 7.98363C26.727 7.99615 26.7955 7.89897 26.8577 7.83435C28.2862 6.35358 29.4623 4.08686 29.8057 2.09965H29.9678L31.4496 3.33345C31.5495 3.50126 31.5495 3.61898 31.4674 3.79281C31.3723 3.99418 30.7753 4.68748 30.5908 4.90438C29.4696 6.22434 28.1012 7.30586 26.6705 8.30523C26.5812 8.42345 26.5984 8.86978 26.6705 9.01255C26.7526 9.06765 27.7102 8.94542 27.902 8.9349C28.672 8.89182 29.9808 8.9364 30.6729 8.73703C31.1329 8.60478 31.6645 7.95357 32.1412 8.4004C32.2405 8.49358 33.1244 9.60916 33.1636 9.69782C33.2028 9.78649 33.2232 9.88317 33.1965 9.97885C33.1427 10.0004 33.081 10.0269 33.0219 10.0269C32.7057 10.0259 32.0805 9.76445 31.6639 9.73339C30.8485 9.67278 30.0179 9.791 29.2062 9.83458C29.052 9.84309 28.4838 9.794 28.42 9.88217C28.3139 11.108 28.3547 12.3362 28.3474 13.566C28.3401 14.7958 28.2888 15.1029 28.3453 16.3683C28.3699 16.9188 28.384 17.8565 28.9553 18.1326C29.4895 18.3905 31.0304 18.349 31.5782 18.111C31.8505 17.9928 31.9452 17.8721 32.0398 17.6026L32.7966 13.9733L32.9942 13.8876C33.0073 15.0769 32.909 16.3322 33.2932 17.4798C33.5049 18.112 34.1907 18.8314 33.4908 19.442C32.7517 20.0867 29.731 20.0607 28.7614 19.8693C26.7871 19.4796 26.8284 17.7964 26.7761 16.216C26.6967 13.82 26.8462 12.4134 26.7709 10.0169L26.6716 9.95581L24.0617 10.1356C24.2128 10.3986 24.9357 10.4582 25.0308 10.7328C25.0967 10.9226 24.9765 11.6069 24.942 11.8548C24.4161 15.6795 22.5846 19.7601 18.9251 21.7047C18.7908 21.7764 18.2069 22.1561 18.209 21.871C18.2095 21.7769 19.3642 20.6999 19.5435 20.496C21.5867 18.1766 22.8407 14.9606 23.2186 11.956C23.2426 11.7652 23.3932 10.2569 23.2479 10.2338C22.1486 10.2524 21.0614 10.4417 19.9736 10.578C19.8869 10.5484 19.8048 10.5068 19.7285 10.4577C19.6334 10.3961 19.0417 9.7905 18.9653 9.68781C18.9235 9.6312 18.8676 9.60064 18.8896 9.51198L25.0538 9.13527C25.0888 7.26529 25.1552 6.33712 25.1082 4.46112C25.0878 3.64209 25.0972 2.49996 24.8824 1.72501C24.8228 1.51111 24.6492 1.32076 24.6879 1.08532C24.8134 1.0763 24.9325 1.08482 25.0564 1.10786C25.3047 1.15445 26.6298 1.62282 26.7798 1.75857C26.8378 1.81117 26.912 1.89783 26.9261 1.97247C26.9591 2.15131 26.6982 2.82506 26.6742 3.1126C26.6434 3.47728 26.6313 3.94014 26.6188 4.31084C26.567 5.85121 26.6617 6.44325 26.6214 7.98363H26.6224Z" fill="#2B2B2B"/>
  <path d="M20.6985 3.03214C20.8051 3.01811 20.8762 3.07672 20.9546 3.13032C21.6028 3.57515 23.4683 5.5333 23.5405 6.25765C23.5828 6.67794 23.289 7.23147 22.9671 7.50999C21.9619 8.37911 21.998 6.90536 21.8432 6.2822C21.6441 5.48171 21.3806 4.75134 21.0419 3.99694C20.9567 3.80758 20.6462 3.33921 20.6232 3.19344C20.6102 3.10928 20.618 3.07572 20.6985 3.03214Z" fill="#2B2B2B"/>
  <path d="M43.5313 7.03342C43.4508 6.95728 41.995 7.31895 41.7332 7.28189C41.4995 7.24932 41.0108 6.58308 40.8158 6.40775L43.4821 6.16079C43.6342 6.0591 43.4455 4.67953 43.3739 4.43057L41.2633 4.72962C41.1493 4.7181 41.0751 4.65248 40.9956 4.58335C40.9345 4.53025 40.3647 3.89907 40.3454 3.85499C40.2978 3.74779 40.4264 3.79087 40.4766 3.78236C41.1598 3.66414 42.0107 3.68718 42.7216 3.63007C43.2955 3.58399 43.8668 3.48029 44.446 3.48029L44.5767 3.40365C44.2766 2.53603 43.8517 1.715 43.3143 0.961092C43.1941 0.792277 42.9511 0.658528 42.9579 0.427597C43.0791 0.312883 44.9347 1.12189 45.1689 1.2867C46.0429 1.90185 45.6294 2.72789 45.0471 3.3796C45.2118 3.3761 45.378 3.38812 45.5426 3.3796C46.0167 3.35556 47.116 3.28242 47.5044 3.1066C47.7992 2.97335 48.038 2.61869 48.3856 2.80854C48.463 2.85062 49.3662 3.85599 49.4305 3.9642C49.6971 4.41504 48.5905 4.05236 48.4097 4.03683C48.2199 4.0208 48.0297 4.03483 47.8394 4.02832L44.4721 4.33138L45.0424 4.56031C45.4637 4.80577 44.9306 5.59474 45.0461 5.98296C45.6592 5.93337 46.54 5.98897 47.0851 5.70895C47.4604 5.51609 47.6288 5.17596 48.0511 5.58121C48.1551 5.6814 48.8963 6.54701 48.911 6.61163C48.9977 6.99335 48.3313 6.71282 48.0961 6.68928C47.0893 6.58909 46.0554 6.82203 45.0461 6.83355L45.0126 8.413L45.078 8.47712C45.1971 8.49114 45.32 8.49214 45.4402 8.48713C45.8171 8.4701 46.7783 8.418 47.0966 8.32283C47.415 8.22765 47.7098 7.83792 48.0469 7.88301C48.2377 7.90855 49.0103 8.91694 49.1749 9.1123C49.2178 9.46095 48.3679 9.16089 48.1478 9.14135C47.9753 9.12633 47.8023 9.13835 47.6298 9.13334L45.0461 9.33572V10.9873C45.2975 10.9818 45.551 10.9953 45.8029 10.9868C46.2823 10.9708 47.6878 10.9056 48.0589 10.7458C48.3433 10.6236 48.7102 10.2038 49.038 10.4914C49.1347 10.576 49.9449 11.5123 49.9809 11.5899C50.1989 12.0523 49.257 11.7076 49.0411 11.6891C48.6559 11.656 48.1295 11.6746 47.7338 11.6861C45.8484 11.7407 43.7649 11.924 41.8915 12.1445C41.5105 12.1895 41.2554 12.3894 40.8984 12.0828C40.8399 12.0322 40.3815 11.5243 40.3417 11.4652C40.302 11.4061 40.2769 11.3655 40.2921 11.2879L43.5307 11.0875V9.53609L41.753 9.76702C41.5931 9.72344 40.8812 9.0041 40.866 8.91143C40.8487 8.80773 41.1237 8.79371 41.2073 8.78619C41.9783 8.71907 42.7618 8.73109 43.5313 8.63541V7.03392V7.03342Z" fill="#2B2B2B"/>
  <path d="M44.7331 13.8397L48.724 13.6339C49.3664 13.6118 49.9325 12.6971 50.5346 13.2116C50.508 13.3859 52.0975 14.7094 51.5393 14.8321C49.8828 14.4369 47.5792 14.5381 45.9886 14.7635C46.9677 17.1439 49.4425 19.2504 51.8141 20.2883C51.8397 20.7116 50.7791 20.5122 50.5183 20.7522C49.9715 20.9681 49.8241 21.4305 49.2303 21.0112C47.3073 19.6857 47.0236 16.2608 44.6819 15.4412C44.6704 16.7712 44.6772 18.6437 44.7624 19.9466C44.8105 20.3644 43.6354 20.7582 43.3249 20.9215C42.6805 21.1103 43.2047 19.9917 43.1164 19.621C42.9183 18.6838 43.8362 14.7404 42.5921 15.3666C45.0624 14.3808 37.6395 15.3696 37.1372 15.4377C36.6835 15.3375 36.2219 14.7054 35.959 14.3687L43.0814 13.9329C43.292 13.5397 42.8843 12.6485 42.8043 12.3114C42.8848 11.8195 44.6673 12.7432 44.8429 12.8098C45.0446 13.0778 44.6662 13.5412 44.7342 13.8402L44.7331 13.8397Z" fill="#2B2B2B"/>
  <path d="M39.6138 4.68052C40.5552 4.88189 40.2045 5.18897 40.0963 5.76855C39.8292 7.19972 40.0597 9.50251 40.0864 11.0098C40.0932 11.3955 40.1392 12.0588 40.0811 12.4104C40.0566 12.5602 39.9625 12.6469 39.8402 12.7305C39.7016 12.8252 38.5433 13.3582 38.444 13.3427L38.5684 5.93285C38.4775 5.91031 38.4639 5.96942 38.4116 6.00749C38.0306 6.28551 37.5146 6.95326 37.1064 7.30942C36.8137 7.5654 36.4515 7.84893 36.1373 8.08236C35.9753 8.20309 35.3094 8.72456 35.152 8.68299C34.909 8.44654 35.4688 8.10641 35.6413 7.90804C37.0108 6.3306 38.3614 4.21565 39.0535 2.26852C39.3033 1.5647 39.5281 0.778237 39.514 0.0328458C39.5642 0.015814 39.6149 -0.00823085 39.6703 0.00278971C39.8151 0.030842 40.5949 0.661018 40.7633 0.802281C41.0994 1.08431 41.6147 1.37084 41.401 1.86526L39.6133 4.68152L39.6138 4.68052Z" fill="#2B2B2B"/>
  <path d="M41.4931 16.6414C41.4873 16.5382 41.4879 16.5282 41.5992 16.5427C41.5244 16.7837 41.8187 16.9334 41.7874 17.1448C41.7654 17.2906 41.3373 17.9468 41.2239 18.1096C39.4017 20.4445 36.3716 23.0759 33.1371 22.9983C33.1125 22.855 33.169 22.9151 33.2579 22.8916C35.034 22.7393 36.8123 22.08 38.1514 20.9214C37.9899 20.7265 36.139 22.073 35.9059 21.7479C38.0317 20.9224 40.0645 18.04 40.2658 15.8905C40.4419 15.637 41.3948 16.7065 41.4931 16.6414Z" fill="#2B2B2B"/>
  <path d="M11.437 9.37768C11.8494 8.44343 12.4751 7.43004 12.2801 6.38259L8.15388 6.73324C8.76753 7.28828 10.3153 7.8874 9.87985 8.91181L9.40785 9.53547L11.437 9.37768ZM9.59916 19.3027C9.3561 19.451 9.22176 19.7135 9.01738 19.8968C8.21712 20.6146 7.36146 21.1461 6.33852 21.5344C6.12055 21.617 4.74584 22.0884 4.65332 21.9972L4.65437 21.8489C5.36943 21.6175 6.56851 20.6717 7.10951 20.2249C7.43882 19.9589 7.86273 19.4996 8.09167 19.2105C8.89246 18.1215 9.4136 16.7589 9.61588 15.441L6.87848 15.7906C6.70232 15.7706 6.32075 15.3834 6.19373 15.2416C6.12892 15.169 5.85136 14.8714 5.90729 14.7913L9.73819 14.5443C9.79622 14.5092 9.81137 14.4241 9.82078 14.3625C9.89292 13.8781 9.9086 13.3295 9.93003 12.8381C9.78315 12.8436 9.63365 12.8286 9.48625 12.8391C9.14963 12.8627 8.19622 13.1101 7.98138 13.0791C7.83659 13.0585 7.04574 12.2265 7.05672 12.1634L9.98178 11.9375V10.4111C9.9478 10.3044 9.45802 10.3745 9.32944 10.3866C8.91964 10.4241 8.49886 10.4938 8.09063 10.5509C7.90977 10.5759 7.64424 10.6791 7.49475 10.6836C7.14401 10.6936 6.82359 10.0279 6.53245 9.85908L6.58524 9.7093L8.93741 9.53497C8.64783 8.56065 8.26992 7.65045 7.68396 6.80438C7.5674 6.73525 6.4922 7.05835 6.16603 6.96067C6.09651 6.94013 5.47658 6.32548 5.40915 6.23481C5.36734 6.17871 5.31088 6.14765 5.33336 6.05898C5.37309 5.90119 8.35198 5.91972 8.70533 5.73488C8.72362 4.81066 8.76021 3.87641 8.73042 2.95219C8.71474 2.46328 8.71213 1.66929 8.61124 1.21445C8.55165 0.945444 8.35616 0.708001 8.36244 0.426977C8.44711 0.346828 9.61118 0.755089 9.79987 0.826222C9.92166 0.872308 10.2656 0.981011 10.3126 1.08921C10.4569 1.42033 10.1307 1.89822 10.137 2.25188L10.0863 5.68228L11.1317 5.63219C11.0988 4.52462 11.1735 3.40904 11.1338 2.30198C11.1181 1.86566 11.1066 1.18138 11.0026 0.776128C10.9394 0.529168 10.7664 0.325788 10.7658 0.0773247C10.8777 -0.0313781 12.139 0.405437 12.347 0.489093C13.1447 0.80919 12.6899 1.04513 12.599 1.60768C12.5723 1.77098 12.553 2.07706 12.543 2.25439C12.496 3.0664 12.5765 3.91549 12.543 4.73101C12.668 4.75856 12.6277 4.70997 12.6596 4.66589C13.0955 4.05825 13.7719 2.51437 13.888 1.79052C13.9313 1.52052 13.7693 1.04713 14.1801 1.23649C14.4049 1.34018 14.9098 1.68132 15.1194 1.83811C15.35 2.01043 15.5946 2.12615 15.419 2.45727C14.5905 3.27178 13.7892 4.09432 12.8812 4.83019C12.5514 5.09769 12.4824 4.995 12.543 5.5325C13.13 5.46488 13.8744 5.52048 14.4363 5.3692C14.9151 5.24046 15.213 4.65937 15.7049 5.13125C15.8382 5.25899 16.4847 6.01741 16.5684 6.15516C16.8972 6.69617 15.9835 6.33149 15.743 6.29593C15.4075 6.24583 15.1738 6.2804 14.8675 6.2834C14.0552 6.29142 13.2503 6.34953 12.439 6.38409C12.6596 6.61051 13.936 7.02328 13.9366 7.35941L12.0736 9.3361C12.4584 9.25294 12.8974 9.30154 13.278 9.21437C13.6141 9.13723 13.9162 8.73347 14.2387 8.78507C14.3777 8.80761 15.4263 9.96928 15.4116 10.0549C15.3672 10.3184 14.5544 10.0519 14.3448 10.0374C14.1885 10.0269 14.0301 10.0424 13.8733 10.0344L11.6811 10.1862L11.5509 10.2613V11.7626C11.5901 11.8137 11.5964 11.8172 11.6576 11.8172C11.8761 11.8172 12.3925 11.7711 12.5995 11.716C12.9445 11.6244 13.3391 11.0864 13.716 11.3904C13.8498 11.4986 14.2815 12.0416 14.4227 12.2145C15.0902 13.0315 14.1598 12.6197 13.6689 12.5862C13.1593 12.5516 12.3 12.5802 11.7909 12.6433C11.7077 12.6538 11.6262 12.6793 11.5504 12.7129L11.3941 14.4401L14.235 14.2838C14.7875 14.3214 15.3338 13.5004 15.8105 13.9377C15.9328 14.2217 16.7843 14.9526 16.8198 15.1765C16.8271 15.2221 16.8371 15.2521 16.8046 15.2932C16.7011 15.426 15.7843 15.156 15.5491 15.1389C15.0416 15.1014 14.5304 15.173 14.0317 15.19C13.2727 15.2161 12.5169 15.2446 11.76 15.2907C12.1254 16.0396 12.6758 16.3402 13.2001 16.9909C13.2001 16.9909 13.7202 17.6281 13.8226 17.7433C14.3824 18.371 15.1189 18.5528 15.8183 19.0337C16.0086 19.1644 17.0942 19.7881 17.1324 19.8773C17.1475 19.9133 17.1549 20.013 17.136 20.0401C16.743 20.1367 16.3713 20.1708 15.9934 20.3211C15.73 20.4258 15.1241 20.8786 14.9684 20.8947C14.8853 20.9032 14.8262 20.8882 14.7515 20.8566C14.5089 20.7554 13.9418 19.8953 13.7761 19.6388C13.2633 18.8468 12.8472 18.4456 12.4636 17.59L12.3648 17.4412L11.4882 15.3513L11.2483 15.3498C11.0575 16.3732 10.7245 17.3736 10.2212 18.2938C10.1726 18.3825 9.74394 19.0132 9.77635 19.0432" fill="#2B2B2B"/>
  <path d="M3.24384 5.03177C3.21875 5.14648 3.25586 5.11192 3.31022 5.14448C3.45345 5.23014 3.80523 5.29827 3.9082 5.39545C4.16223 5.63539 3.8345 6.16037 3.81829 6.45843L3.7655 9.53617C4.23541 9.63937 4.61594 8.97412 5.03411 9.09485C5.12924 9.1224 5.54688 9.60029 5.64462 9.712C6.71251 10.9318 5.88402 10.3863 5.04717 10.3347C4.61803 10.3081 4.19046 10.4153 3.76602 10.4369L3.82404 15.608L3.97458 15.6671L6.14119 14.0897C6.35394 14.257 6.04868 14.529 5.92793 14.6853C4.79157 16.1535 3.12362 17.5727 1.67677 18.7699C1.39712 19.0013 1.1457 19.3299 0.881214 18.9302C0.797581 18.8035 0.323488 17.8662 0.289512 17.7445C0.247173 17.5922 0.240378 17.4835 0.403462 17.3998C0.696176 17.2816 2.22561 16.7727 2.29304 16.5578L2.35472 10.6372C2.30872 10.5866 1.24815 10.9533 0.981573 10.8767C0.908395 10.8556 0.14995 10.0697 0.161449 10.0121C0.279058 9.91788 0.506435 9.90486 0.658019 9.88683C0.892191 9.85877 2.26795 9.82772 2.33224 9.73955C2.34427 8.7492 2.39392 7.74683 2.35733 6.75649C2.35315 6.63827 2.30715 6.52856 2.30088 6.41034C2.27788 5.99306 2.3359 5.59632 2.19843 5.18205C1.8524 5.18055 1.08193 5.51016 0.801763 5.39495C0.752629 5.37441 0.0950658 4.71969 0.0542948 4.65957C0.0135238 4.59946 -0.00999795 4.56039 0.00411509 4.48224L4.0556 4.03391C4.31434 3.92771 4.57831 3.58858 4.88618 3.62965C5.11042 3.65971 5.85109 4.6711 6.04397 4.87948L5.98961 4.98468C5.78785 5.11643 5.29128 4.91004 5.03933 4.8885C4.45129 4.83791 3.83502 5.02425 3.24384 5.03277V5.03177Z" fill="#2B2B2B"/>
  <path d="M6.06482 2.02935C6.16517 1.92566 7.21268 2.67505 7.34283 2.78125C8.026 3.33779 8.67364 4.04762 7.78347 4.80202C6.95446 5.50433 6.95446 4.3627 6.7966 3.85526C6.72917 3.63735 6.64606 3.39239 6.55982 3.181C6.44534 2.89997 6.14793 2.46867 6.07736 2.24175C6.05541 2.17212 6.06168 2.09998 6.06482 2.02935Z" fill="#2B2B2B"/>
</svg>